# Blender v2.76 (sub 0) OBJ File: 'missile_incendiary.blend'
# www.blender.org
mtllib missile_incendiary.mtl
o WING_B_B_2
v -0.362056 0.700476 -0.450444
v -0.450444 0.700476 -0.362056
v -0.044194 1.275000 0.044194
v 0.044194 1.275000 -0.044194
v -0.044194 0.125952 0.044194
v 0.044194 0.125952 -0.044194
v 0.450444 0.700476 0.362056
v 0.362056 0.700476 0.450444
vt 0.312500 0.593750
vt 0.312500 0.695313
vt 0.296875 0.695313
vt 0.429688 0.593750
vt 0.429688 0.695313
vt 0.414063 0.695313
vt 0.312500 0.796875
vt 0.296875 0.796875
vt 0.328125 0.695313
vt 0.328125 0.796875
vt 0.195313 0.593750
vt 0.296875 0.593750
vt 0.414063 0.593750
vt 0.195313 0.695313
vn -0.500000 0.707100 -0.500000
vn 0.500000 -0.707100 0.500000
vn 0.500000 0.707100 0.500000
vn -0.500000 -0.707100 -0.500000
vn 0.707100 0.000000 -0.707100
vn -0.707100 -0.000000 0.707100
usemtl Material
s off
f 2/1/1 3/2/1 4/3/1
f 6/4/2 7/5/2 8/6/2
f 3/2/3 8/7/3 7/8/3
f 5/9/4 2/10/4 1/7/4
f 6/11/5 1/12/5 4/3/5
f 5/13/6 8/6/6 3/2/6
f 1/12/1 2/1/1 4/3/1
f 5/13/2 6/4/2 8/6/2
f 4/3/3 3/2/3 7/8/3
f 6/2/4 5/9/4 1/7/4
f 7/14/5 6/11/5 4/3/5
f 2/1/6 5/13/6 3/2/6
o WARHEAD_4
v -0.174556 3.590641 -0.262943
v -0.262944 3.590641 -0.174555
v -0.044194 3.900000 0.044195
v 0.044195 3.900000 -0.044193
v -0.044194 3.281282 0.044195
v 0.044194 3.281282 -0.044193
v 0.262944 3.590641 0.174557
v 0.174556 3.590641 0.262945
vt 0.257813 0.226563
vt 0.273438 0.226563
vt 0.273438 0.281250
vt 0.343750 0.226563
vt 0.343750 0.281250
vt 0.328125 0.281250
vt 0.257813 0.281250
vt 0.273438 0.335938
vt 0.289063 0.281250
vt 0.289063 0.335938
vt 0.203125 0.226563
vt 0.328125 0.226563
vt 0.257813 0.335938
vt 0.203125 0.281250
vn -0.500000 0.707100 -0.500000
vn 0.500000 -0.707100 0.500000
vn 0.500000 0.707100 0.500000
vn -0.500000 -0.707100 -0.500000
vn 0.707100 -0.000000 -0.707100
vn -0.707100 -0.000000 0.707100
usemtl Material
s off
f 9/15/7 10/16/7 11/17/7
f 14/18/8 15/19/8 16/20/8
f 12/21/9 11/17/9 16/22/9
f 13/23/10 10/24/10 9/22/10
f 14/25/11 9/15/11 12/21/11
f 13/26/12 16/20/12 11/17/12
f 12/21/7 9/15/7 11/17/7
f 13/26/8 14/18/8 16/20/8
f 15/27/9 12/21/9 16/22/9
f 14/17/10 13/23/10 9/22/10
f 15/28/11 14/25/11 12/21/11
f 10/16/12 13/26/12 11/17/12
o WARHEAD_2
v 0.062500 3.525000 -0.062499
v -0.062500 3.525000 -0.062499
v -0.062500 3.900000 -0.062499
v 0.062500 3.900000 -0.062499
v -0.062500 3.525000 0.062501
v 0.062500 3.525000 0.062501
v 0.062500 3.900000 0.062501
v -0.062500 3.900000 0.062501
vt 0.234375 0.148438
vt 0.234375 0.195313
vt 0.218750 0.195313
vt 0.265625 0.148438
vt 0.265625 0.195313
vt 0.250000 0.195313
vt 0.234375 0.210938
vt 0.218750 0.210938
vt 0.250000 0.210938
vt 0.203125 0.148438
vt 0.218750 0.148438
vt 0.250000 0.148438
vt 0.203125 0.195313
vn 0.000000 0.000000 -1.000000
vn 0.000000 -0.000000 1.000000
vn 0.000000 1.000000 0.000000
vn 0.000000 -1.000000 0.000000
vn 1.000000 -0.000000 0.000000
vn -1.000000 0.000000 0.000000
usemtl Material
s off
f 18/29/13 19/30/13 20/31/13
f 22/32/14 23/33/14 24/34/14
f 19/30/15 24/35/15 23/36/15
f 21/34/16 18/37/16 17/35/16
f 22/38/17 17/39/17 20/31/17
f 21/40/18 24/34/18 19/30/18
f 17/39/13 18/29/13 20/31/13
f 21/40/14 22/32/14 24/34/14
f 20/31/15 19/30/15 23/36/15
f 22/30/16 21/34/16 17/35/16
f 23/41/17 22/38/17 20/31/17
f 18/29/18 21/40/18 19/30/18
o WING_B_B_1
v -0.353553 -0.037500 -0.441942
v -0.441942 -0.037500 -0.353553
v -0.441942 0.712500 -0.353553
v -0.353553 0.712500 -0.441942
v 0.353553 -0.037500 0.441942
v 0.441942 -0.037500 0.353553
v 0.441942 0.712500 0.353553
v 0.353553 0.712500 0.441942
vt 0.601563 0.562500
vt 0.617188 0.562500
vt 0.617188 0.656250
vt 0.773438 0.562500
vt 0.773438 0.656250
vt 0.757813 0.656250
vt 0.617188 0.796875
vt 0.601563 0.796875
vt 0.632813 0.656250
vt 0.632813 0.796875
vt 0.601563 0.656250
vt 0.460938 0.656250
vt 0.757813 0.562500
vt 0.460938 0.562500
vn -0.707100 0.000000 -0.707100
vn 0.707100 -0.000000 0.707100
vn 0.000000 1.000000 0.000000
vn 0.000000 -1.000000 -0.000000
vn 0.707100 0.000000 -0.707100
vn -0.707100 -0.000000 0.707100
usemtl Material
s off
f 25/42/19 26/43/19 27/44/19
f 30/45/20 31/46/20 32/47/20
f 27/44/21 32/48/21 31/49/21
f 29/50/22 26/51/22 25/48/22
f 25/42/23 28/52/23 31/53/23
f 29/54/24 32/47/24 27/44/24
f 28/52/19 25/42/19 27/44/19
f 29/54/20 30/45/20 32/47/20
f 28/52/21 27/44/21 31/49/21
f 30/44/22 29/50/22 25/48/22
f 30/55/23 25/42/23 31/53/23
f 26/43/24 29/54/24 27/44/24
o WING_B_A_2
v 0.450444 0.700476 -0.362056
v 0.362056 0.700476 -0.450444
v -0.044194 1.275000 -0.044194
v 0.044194 1.275000 0.044194
v -0.044194 0.125952 -0.044194
v 0.044194 0.125952 0.044194
v -0.362056 0.700476 0.450444
v -0.450444 0.700476 0.362056
vt 0.312500 0.593750
vt 0.312500 0.695313
vt 0.296875 0.695313
vt 0.429688 0.593750
vt 0.429688 0.695313
vt 0.414063 0.695313
vt 0.312500 0.796875
vt 0.296875 0.796875
vt 0.328125 0.695313
vt 0.328125 0.796875
vt 0.195313 0.593750
vt 0.296875 0.593750
vt 0.414063 0.593750
vt 0.195313 0.695313
vn 0.500000 0.707100 -0.500000
vn -0.500000 -0.707100 0.500000
vn -0.500000 0.707100 0.500000
vn 0.500000 -0.707100 -0.500000
vn 0.707100 -0.000000 0.707100
vn -0.707100 0.000000 -0.707100
usemtl Material
s off
f 34/56/25 35/57/25 36/58/25
f 38/59/26 39/60/26 40/61/26
f 35/57/27 40/62/27 39/63/27
f 37/64/28 34/65/28 33/62/28
f 38/66/29 33/67/29 36/58/29
f 37/68/30 40/61/30 35/57/30
f 33/67/25 34/56/25 36/58/25
f 37/68/26 38/59/26 40/61/26
f 36/58/27 35/57/27 39/63/27
f 38/57/28 37/64/28 33/62/28
f 39/69/29 38/66/29 36/58/29
f 34/56/30 37/68/30 35/57/30
o PROPULSOR_MODULE
v 0.441942 -0.037500 -0.000000
v 0.000000 -0.037500 -0.441942
v 0.000000 0.962500 -0.441942
v 0.441942 0.962500 0.000000
v -0.441942 -0.037500 -0.000000
v 0.000000 -0.037500 0.441942
v 0.000000 0.962500 0.441942
v -0.441942 0.962500 0.000000
vt 0.156250 0.351563
vt 0.156250 0.476563
vt 0.078125 0.476563
vt 0.312500 0.351563
vt 0.312500 0.476563
vt 0.234375 0.476563
vt 0.156250 0.554688
vt 0.078125 0.554688
vt 0.234375 0.554688
vt 0.078125 0.351563
vt 0.000000 0.476563
vt 0.234375 0.351563
vt 0.000000 0.351563
vn 0.707100 0.000000 -0.707100
vn -0.707100 -0.000000 0.707100
vn 0.000000 1.000000 0.000000
vn 0.000000 -1.000000 -0.000000
vn 0.707100 -0.000000 0.707100
vn -0.707100 0.000000 -0.707100
usemtl Material
s off
f 42/70/31 43/71/31 44/72/31
f 46/73/32 47/74/32 48/75/32
f 43/71/33 48/76/33 47/77/33
f 45/75/34 42/78/34 41/76/34
f 41/79/35 44/72/35 47/80/35
f 45/81/36 48/75/36 43/71/36
f 41/79/31 42/70/31 44/72/31
f 45/81/32 46/73/32 48/75/32
f 44/72/33 43/71/33 47/77/33
f 46/71/34 45/75/34 41/76/34
f 46/82/35 41/79/35 47/80/35
f 42/70/36 45/81/36 43/71/36
o WING_B_A_1
v 0.441942 -0.037500 -0.353553
v 0.353553 -0.037500 -0.441942
v 0.353553 0.712500 -0.441942
v 0.441942 0.712500 -0.353553
v -0.441942 -0.037500 0.353553
v -0.353553 -0.037500 0.441942
v -0.353553 0.712500 0.441942
v -0.441942 0.712500 0.353553
vt 0.617188 0.562500
vt 0.617188 0.656250
vt 0.601563 0.656250
vt 0.757813 0.562500
vt 0.773438 0.562500
vt 0.773438 0.656250
vt 0.617188 0.796875
vt 0.601563 0.796875
vt 0.632813 0.656250
vt 0.632813 0.796875
vt 0.601563 0.562500
vt 0.460938 0.656250
vt 0.757813 0.656250
vt 0.460938 0.562500
vn 0.707100 0.000000 -0.707100
vn -0.707100 -0.000000 0.707100
vn -0.000000 1.000000 -0.000000
vn -0.000000 -1.000000 -0.000000
vn 0.707100 -0.000000 0.707100
vn -0.707100 0.000000 -0.707100
usemtl Material
s off
f 50/83/37 51/84/37 52/85/37
f 53/86/38 54/87/38 55/88/38
f 51/84/39 56/89/39 55/90/39
f 53/91/40 50/92/40 49/89/40
f 49/93/41 52/85/41 55/94/41
f 53/86/42 56/95/42 51/84/42
f 49/93/37 50/83/37 52/85/37
f 56/95/38 53/86/38 55/88/38
f 52/85/39 51/84/39 55/90/39
f 54/84/40 53/91/40 49/89/40
f 54/96/41 49/93/41 55/94/41
f 50/83/42 53/86/42 51/84/42
o WARHEAD_1
v 0.187500 3.087500 -0.187499
v -0.187500 3.087500 -0.187499
v -0.187500 3.525000 -0.187499
v 0.187500 3.525000 -0.187499
v -0.187500 3.087500 0.187501
v 0.187500 3.087500 0.187501
v 0.187500 3.525000 0.187501
v -0.187500 3.525000 0.187501
vt 0.093750 0.234375
vt 0.093750 0.289063
vt 0.046875 0.289063
vt 0.187500 0.234375
vt 0.187500 0.289063
vt 0.140625 0.289063
vt 0.093750 0.335938
vt 0.046875 0.335938
vt 0.140625 0.335938
vt 0.000000 0.234375
vt 0.046875 0.234375
vt 0.140625 0.234375
vt 0.000000 0.289063
vn 0.000000 0.000000 -1.000000
vn 0.000000 -0.000000 1.000000
vn 0.000000 1.000000 0.000000
vn 0.000000 -1.000000 0.000000
vn 1.000000 0.000000 0.000000
vn -1.000000 0.000000 0.000000
usemtl Material
s off
f 58/97/43 59/98/43 60/99/43
f 62/100/44 63/101/44 64/102/44
f 59/98/45 64/103/45 63/104/45
f 61/102/46 58/105/46 57/103/46
f 62/106/47 57/107/47 60/99/47
f 61/108/48 64/102/48 59/98/48
f 57/107/43 58/97/43 60/99/43
f 61/108/44 62/100/44 64/102/44
f 60/99/45 59/98/45 63/104/45
f 62/98/46 61/102/46 57/103/46
f 63/109/47 62/106/47 60/99/47
f 58/97/48 61/108/48 59/98/48
o WARHEAD_3
v 0.262944 3.590641 -0.174555
v 0.174556 3.590641 -0.262943
v -0.044194 3.900000 -0.044193
v 0.044195 3.900000 0.044195
v -0.044194 3.281282 -0.044193
v 0.044194 3.281282 0.044195
v -0.174556 3.590641 0.262945
v -0.262944 3.590641 0.174557
vt 0.273438 0.226563
vt 0.273438 0.281250
vt 0.257813 0.281250
vt 0.328125 0.226563
vt 0.343750 0.226563
vt 0.343750 0.281250
vt 0.273438 0.335938
vt 0.257813 0.335938
vt 0.289063 0.281250
vt 0.289063 0.335938
vt 0.203125 0.226563
vt 0.257813 0.226563
vt 0.328125 0.281250
vt 0.203125 0.281250
vn 0.500000 0.707100 -0.500000
vn -0.500000 -0.707100 0.500000
vn -0.500000 0.707100 0.500000
vn 0.500000 -0.707100 -0.500000
vn 0.707100 -0.000000 0.707100
vn -0.707100 0.000000 -0.707100
usemtl Material
s off
f 66/110/49 67/111/49 68/112/49
f 69/113/50 70/114/50 71/115/50
f 67/111/51 72/116/51 71/117/51
f 70/111/52 69/118/52 66/119/52
f 70/120/53 65/121/53 68/112/53
f 69/113/54 72/122/54 67/111/54
f 65/121/49 66/110/49 68/112/49
f 72/122/50 69/113/50 71/115/50
f 68/112/51 67/111/51 71/117/51
f 65/116/52 70/111/52 66/119/52
f 71/123/53 70/120/53 68/112/53
f 66/110/54 69/113/54 67/111/54
o MAIN_MISSILE_MODULE
v 0.187500 -0.037500 -0.187500
v -0.187500 -0.037500 -0.187500
v -0.187500 3.087500 -0.187499
v 0.187500 3.087500 -0.187499
v -0.187500 -0.037500 0.187500
v 0.187500 -0.037500 0.187500
v 0.187500 3.087500 0.187501
v -0.187500 3.087500 0.187501
vt 0.093750 0.562500
vt 0.093750 0.953125
vt 0.046875 0.953125
vt 0.187500 0.562500
vt 0.187500 0.953125
vt 0.140625 0.953125
vt 0.093750 1.000000
vt 0.046875 1.000000
vt 0.140625 1.000000
vt 0.046875 0.562500
vt 0.000000 0.953125
vt 0.140625 0.562500
vt 0.000000 0.562500
vn 0.000000 0.000000 -1.000000
vn 0.000000 -0.000000 1.000000
vn 0.000000 1.000000 0.000000
vn 0.000000 -1.000000 -0.000000
vn 1.000000 0.000000 0.000000
vn -1.000000 0.000000 0.000000
usemtl Material
s off
f 74/124/55 75/125/55 76/126/55
f 78/127/56 79/128/56 80/129/56
f 75/125/57 80/130/57 79/131/57
f 77/129/58 74/132/58 73/130/58
f 73/133/59 76/126/59 79/134/59
f 77/135/60 80/129/60 75/125/60
f 73/133/55 74/124/55 76/126/55
f 77/135/56 78/127/56 80/129/56
f 76/126/57 75/125/57 79/131/57
f 78/125/58 77/129/58 73/130/58
f 78/136/59 73/133/59 79/134/59
f 74/124/60 77/135/60 75/125/60
o WARHEAD_6
v -0.176776 3.150000 -0.265164
v -0.265165 3.150000 -0.176776
v -0.265165 3.587500 -0.176776
v -0.176776 3.587500 -0.265164
v 0.176777 3.150000 0.265166
v 0.265165 3.150000 0.176778
v 0.265165 3.587500 0.176778
v 0.176777 3.587500 0.265166
vt 0.093750 0.078125
vt 0.093750 0.132813
vt 0.078125 0.132813
vt 0.187500 0.078125
vt 0.187500 0.132813
vt 0.171875 0.132813
vt 0.093750 0.210938
vt 0.109375 0.132813
vt 0.109375 0.210938
vt 0.000000 0.078125
vt 0.078125 0.078125
vt 0.171875 0.078125
vt 0.078125 0.210938
vt 0.000000 0.132813
vn -0.707100 0.000000 -0.707100
vn 0.707100 -0.000000 0.707100
vn 0.000000 1.000000 0.000000
vn 0.000000 -1.000000 0.000000
vn 0.707100 0.000000 -0.707100
vn -0.707100 -0.000000 0.707100
usemtl Material
s off
f 82/137/61 83/138/61 84/139/61
f 86/140/62 87/141/62 88/142/62
f 84/139/63 83/138/63 88/143/63
f 85/144/64 82/145/64 81/143/64
f 86/146/65 81/147/65 84/139/65
f 85/148/66 88/142/66 83/138/66
f 81/147/61 82/137/61 84/139/61
f 85/148/62 86/140/62 88/142/62
f 87/149/63 84/139/63 88/143/63
f 86/138/64 85/144/64 81/143/64
f 87/150/65 86/146/65 84/139/65
f 82/137/66 85/148/66 83/138/66
o WING_T_A_1
v 0.356694 2.520558 -0.268306
v 0.268306 2.520558 -0.356694
v -0.044194 2.962500 -0.044194
v 0.044194 2.962500 0.044194
v -0.044194 2.078617 -0.044194
v 0.044194 2.078617 0.044194
v -0.268306 2.520558 0.356694
v -0.356694 2.520558 0.268306
vt 0.539063 0.843750
vt 0.554688 0.843750
vt 0.554688 0.921875
vt 0.648438 0.843750
vt 0.648438 0.921875
vt 0.632813 0.921875
vt 0.554688 1.000000
vt 0.539063 1.000000
vt 0.570313 0.921875
vt 0.570313 1.000000
vt 0.460938 0.843750
vt 0.539063 0.921875
vt 0.632813 0.843750
vt 0.460938 0.921875
vn 0.500000 0.707100 -0.500000
vn -0.500000 -0.707100 0.500000
vn -0.500000 0.707100 0.500000
vn 0.500000 -0.707100 -0.500000
vn 0.707100 -0.000000 0.707100
vn -0.707100 0.000000 -0.707100
usemtl Material
s off
f 89/151/67 90/152/67 91/153/67
f 94/154/68 95/155/68 96/156/68
f 91/153/69 96/157/69 95/158/69
f 94/153/70 93/159/70 90/160/70
f 94/161/71 89/151/71 92/162/71
f 93/163/72 96/156/72 91/153/72
f 92/162/67 89/151/67 91/153/67
f 93/163/68 94/154/68 96/156/68
f 92/162/69 91/153/69 95/158/69
f 89/157/70 94/153/70 90/160/70
f 95/164/71 94/161/71 92/162/71
f 90/152/72 93/163/72 91/153/72
o WING_T_A_2
v 0.353554 1.900000 -0.265165
v 0.265165 1.900000 -0.353553
v 0.265165 2.525000 -0.353553
v 0.353554 2.525000 -0.265165
v -0.353553 1.900000 0.265165
v -0.265165 1.900000 0.353553
v -0.265165 2.525000 0.353553
v -0.353553 2.525000 0.265165
vt 0.320313 0.812500
vt 0.320313 0.890625
vt 0.304688 0.890625
vt 0.429688 0.812500
vt 0.445313 0.812500
vt 0.445313 0.890625
vt 0.320313 1.000000
vt 0.304688 1.000000
vt 0.335938 0.890625
vt 0.335938 1.000000
vt 0.195313 0.812500
vt 0.304688 0.812500
vt 0.429688 0.890625
vt 0.195313 0.890625
vn 0.707100 0.000000 -0.707100
vn -0.707100 -0.000000 0.707100
vn 0.000000 1.000000 0.000000
vn 0.000000 -1.000000 -0.000000
vn 0.707100 -0.000000 0.707100
vn -0.707100 0.000000 -0.707100
usemtl Material
s off
f 98/165/73 99/166/73 100/167/73
f 101/168/74 102/169/74 103/170/74
f 99/166/75 104/171/75 103/172/75
f 102/166/76 101/173/76 98/174/76
f 102/175/77 97/176/77 100/167/77
f 101/168/78 104/177/78 99/166/78
f 97/176/73 98/165/73 100/167/73
f 104/177/74 101/168/74 103/170/74
f 100/167/75 99/166/75 103/172/75
f 97/171/76 102/166/76 98/174/76
f 103/178/77 102/175/77 100/167/77
f 98/165/78 101/168/78 99/166/78
o WING_T_B_2
v -0.265165 1.900000 -0.353553
v -0.353553 1.900000 -0.265165
v -0.353553 2.525000 -0.265165
v -0.265165 2.525000 -0.353553
v 0.265165 1.900000 0.353553
v 0.353554 1.900000 0.265165
v 0.353554 2.525000 0.265165
v 0.265165 2.525000 0.353553
vt 0.304688 0.812500
vt 0.320313 0.812500
vt 0.320313 0.890625
vt 0.445313 0.812500
vt 0.445313 0.890625
vt 0.429688 0.890625
vt 0.304688 0.890625
vt 0.320313 1.000000
vt 0.335938 0.890625
vt 0.335938 1.000000
vt 0.195313 0.890625
vt 0.429688 0.812500
vt 0.304688 1.000000
vt 0.195313 0.812500
vn -0.707100 0.000000 -0.707100
vn 0.707100 -0.000000 0.707100
vn 0.000000 1.000000 -0.000000
vn 0.000000 -1.000000 0.000000
vn 0.707100 0.000000 -0.707100
vn -0.707100 -0.000000 0.707100
usemtl Material
s off
f 105/179/79 106/180/79 107/181/79
f 110/182/80 111/183/80 112/184/80
f 108/185/81 107/181/81 112/186/81
f 109/187/82 106/188/82 105/186/82
f 105/179/83 108/185/83 111/189/83
f 109/190/84 112/184/84 107/181/84
f 108/185/79 105/179/79 107/181/79
f 109/190/80 110/182/80 112/184/80
f 111/191/81 108/185/81 112/186/81
f 110/181/82 109/187/82 105/186/82
f 110/192/83 105/179/83 111/189/83
f 106/180/84 109/190/84 107/181/84
o WING_T_B_1
v -0.268306 2.520558 -0.356694
v -0.356694 2.520558 -0.268306
v -0.044194 2.962500 0.044194
v 0.044194 2.962500 -0.044194
v -0.044194 2.078617 0.044194
v 0.044194 2.078617 -0.044194
v 0.356694 2.520558 0.268306
v 0.268306 2.520558 0.356694
vt 0.539063 0.843750
vt 0.554688 0.843750
vt 0.554688 0.921875
vt 0.632813 0.843750
vt 0.648438 0.843750
vt 0.648438 0.921875
vt 0.554688 1.000000
vt 0.539063 1.000000
vt 0.570313 0.921875
vt 0.570313 1.000000
vt 0.460938 0.843750
vt 0.539063 0.921875
vt 0.632813 0.921875
vt 0.460938 0.921875
vn -0.500000 0.707100 -0.500000
vn 0.500000 -0.707100 0.500000
vn 0.500000 0.707100 0.500000
vn -0.500000 -0.707100 -0.500000
vn 0.707100 0.000000 -0.707100
vn -0.707100 -0.000000 0.707100
usemtl Material
s off
f 113/193/85 114/194/85 115/195/85
f 117/196/86 118/197/86 119/198/86
f 115/195/87 120/199/87 119/200/87
f 117/201/88 114/202/88 113/199/88
f 118/203/89 113/193/89 116/204/89
f 117/196/90 120/205/90 115/195/90
f 116/204/85 113/193/85 115/195/85
f 120/205/86 117/196/86 119/198/86
f 116/204/87 115/195/87 119/200/87
f 118/195/88 117/201/88 113/199/88
f 119/206/89 118/203/89 116/204/89
f 114/194/90 117/196/90 115/195/90
o WARHEAD_5
v 0.265165 3.150000 -0.176776
v 0.176777 3.150000 -0.265164
v 0.176777 3.587500 -0.265164
v 0.265165 3.587500 -0.176776
v -0.265165 3.150000 0.176778
v -0.176776 3.150000 0.265166
v -0.176776 3.587500 0.265166
v -0.265165 3.587500 0.176778
vt 0.093750 0.078125
vt 0.093750 0.132813
vt 0.078125 0.132813
vt 0.187500 0.078125
vt 0.187500 0.132813
vt 0.171875 0.132813
vt 0.093750 0.210938
vt 0.078125 0.210938
vt 0.109375 0.132813
vt 0.109375 0.210938
vt 0.000000 0.078125
vt 0.078125 0.078125
vt 0.171875 0.078125
vt 0.000000 0.132813
vn 0.707100 0.000000 -0.707100
vn -0.707100 -0.000000 0.707100
vn 0.000000 1.000000 0.000000
vn 0.000000 -1.000000 -0.000000
vn 0.707100 -0.000000 0.707100
vn -0.707100 0.000000 -0.707100
usemtl Material
s off
f 122/207/91 123/208/91 124/209/91
f 126/210/92 127/211/92 128/212/92
f 123/208/93 128/213/93 127/214/93
f 126/208/94 125/215/94 122/216/94
f 126/217/95 121/218/95 124/209/95
f 125/219/96 128/212/96 123/208/96
f 121/218/91 122/207/91 124/209/91
f 125/219/92 126/210/92 128/212/92
f 124/209/93 123/208/93 127/214/93
f 121/213/94 126/208/94 122/216/94
f 127/220/95 126/217/95 124/209/95
f 122/207/96 125/219/96 123/208/96
