# Blender v2.76 (sub 0) OBJ File: 'missile_chemical.blend'
# www.blender.org
mtllib missile_chemical.mtl
o CHEMICAL_CONDUCT
v 0.000000 1.712500 -0.250000
v -0.062500 1.712500 -0.250000
v -0.062500 3.212500 -0.249999
v 0.000000 3.212500 -0.249999
v -0.062500 1.712500 -0.187500
v 0.000000 1.712500 -0.187500
v 0.000000 3.212500 -0.187499
v -0.062500 3.212500 -0.187499
vt 0.281250 0.132813
vt 0.281250 0.320313
vt 0.273438 0.320313
vt 0.296875 0.132813
vt 0.296875 0.320313
vt 0.289063 0.320313
vt 0.281250 0.328125
vt 0.273438 0.328125
vt 0.289063 0.328125
vt 0.273438 0.132813
vt 0.265625 0.320313
vt 0.289063 0.132813
vt 0.265625 0.132813
vn 0.000000 0.000000 -1.000000
vn 0.000000 -0.000000 1.000000
vn 0.000000 1.000000 0.000000
vn 0.000000 -1.000000 0.000000
vn 1.000000 0.000000 0.000000
vn -1.000000 0.000000 0.000000
usemtl Material
s off
f 2/1/1 3/2/1 4/3/1
f 6/4/2 7/5/2 8/6/2
f 3/2/3 8/7/3 7/8/3
f 5/6/4 2/9/4 1/7/4
f 1/10/5 4/3/5 7/11/5
f 5/12/6 8/6/6 3/2/6
f 1/10/1 2/1/1 4/3/1
f 5/12/2 6/4/2 8/6/2
f 4/3/3 3/2/3 7/8/3
f 6/2/4 5/6/4 1/7/4
f 6/13/5 1/10/5 7/11/5
f 2/1/6 5/12/6 3/2/6
o CHEMICAL_CONTROL_MODULE
v 0.250000 1.212500 -0.250000
v -0.250000 1.212500 -0.250000
v -0.250000 1.712500 -0.250000
v 0.250000 1.712500 -0.250000
v -0.250000 1.212500 0.250000
v 0.250000 1.212500 0.250000
v 0.250000 1.712500 0.250000
v -0.250000 1.712500 0.250000
vt 0.125000 0.203125
vt 0.125000 0.265625
vt 0.062500 0.265625
vt 0.250000 0.203125
vt 0.250000 0.265625
vt 0.187500 0.265625
vt 0.125000 0.328125
vt 0.062500 0.328125
vt 0.187500 0.328125
vt 0.000000 0.203125
vt 0.062500 0.203125
vt 0.187500 0.203125
vt 0.000000 0.265625
vn 0.000000 0.000000 -1.000000
vn 0.000000 -0.000000 1.000000
vn 0.000000 1.000000 0.000000
vn 0.000000 -1.000000 0.000000
vn 1.000000 -0.000000 0.000000
vn -1.000000 0.000000 0.000000
usemtl Material
s off
f 10/14/7 11/15/7 12/16/7
f 14/17/8 15/18/8 16/19/8
f 11/15/9 16/20/9 15/21/9
f 13/19/10 10/22/10 9/20/10
f 14/23/11 9/24/11 12/16/11
f 13/25/12 16/19/12 11/15/12
f 9/24/7 10/14/7 12/16/7
f 13/25/8 14/17/8 16/19/8
f 12/16/9 11/15/9 15/21/9
f 14/15/10 13/19/10 9/20/10
f 15/26/11 14/23/11 12/16/11
f 10/14/12 13/25/12 11/15/12
o WING_B_B_1
v -0.353553 -0.037500 -0.441942
v -0.441942 -0.037500 -0.353553
v -0.441942 0.712500 -0.353553
v -0.353553 0.712500 -0.441942
v 0.353553 -0.037500 0.441942
v 0.441942 -0.037500 0.353553
v 0.441942 0.712500 0.353553
v 0.353553 0.712500 0.441942
vt 0.601563 0.562500
vt 0.617188 0.562500
vt 0.617188 0.656250
vt 0.773438 0.562500
vt 0.773438 0.656250
vt 0.757813 0.656250
vt 0.617188 0.796875
vt 0.601563 0.796875
vt 0.632813 0.656250
vt 0.632813 0.796875
vt 0.601563 0.656250
vt 0.460938 0.656250
vt 0.757813 0.562500
vt 0.460938 0.562500
vn -0.707100 0.000000 -0.707100
vn 0.707100 -0.000000 0.707100
vn 0.000000 1.000000 0.000000
vn 0.000000 -1.000000 -0.000000
vn 0.707100 0.000000 -0.707100
vn -0.707100 -0.000000 0.707100
usemtl Material
s off
f 17/27/13 18/28/13 19/29/13
f 22/30/14 23/31/14 24/32/14
f 19/29/15 24/33/15 23/34/15
f 21/35/16 18/36/16 17/33/16
f 17/27/17 20/37/17 23/38/17
f 21/39/18 24/32/18 19/29/18
f 20/37/13 17/27/13 19/29/13
f 21/39/14 22/30/14 24/32/14
f 20/37/15 19/29/15 23/34/15
f 22/29/16 21/35/16 17/33/16
f 22/40/17 17/27/17 23/38/17
f 18/28/18 21/39/18 19/29/18
o WING_T_A_1
v -0.268306 2.520558 -0.356694
v -0.356694 2.520558 -0.268306
v -0.044194 2.962500 0.044194
v 0.044194 2.962500 -0.044194
v -0.044194 2.078617 0.044194
v 0.044194 2.078617 -0.044194
v 0.356694 2.520558 0.268306
v 0.268306 2.520558 0.356694
vt 0.539063 0.843750
vt 0.554688 0.843750
vt 0.554688 0.921875
vt 0.632813 0.843750
vt 0.648438 0.843750
vt 0.648438 0.921875
vt 0.554688 1.000000
vt 0.539063 1.000000
vt 0.570313 0.921875
vt 0.570313 1.000000
vt 0.460938 0.843750
vt 0.539063 0.921875
vt 0.632813 0.921875
vt 0.460938 0.921875
vn -0.500000 0.707100 -0.500000
vn 0.500000 -0.707100 0.500000
vn 0.500000 0.707100 0.500000
vn -0.500000 -0.707100 -0.500000
vn 0.707100 0.000000 -0.707100
vn -0.707100 -0.000000 0.707100
usemtl Material
s off
f 25/41/19 26/42/19 27/43/19
f 29/44/20 30/45/20 31/46/20
f 27/43/21 32/47/21 31/48/21
f 29/49/22 26/50/22 25/47/22
f 30/51/23 25/41/23 28/52/23
f 29/44/24 32/53/24 27/43/24
f 28/52/19 25/41/19 27/43/19
f 32/53/20 29/44/20 31/46/20
f 28/52/21 27/43/21 31/48/21
f 30/43/22 29/49/22 25/47/22
f 31/54/23 30/51/23 28/52/23
f 26/42/24 29/44/24 27/43/24
o CHEM_WARHEAD_2
v 0.265165 3.400000 0.000001
v 0.000000 3.400000 -0.265164
v 0.000000 3.712500 -0.265164
v 0.265165 3.712500 0.000001
v -0.265165 3.400000 0.000001
v 0.000000 3.400000 0.265166
v 0.000000 3.712500 0.265166
v -0.265165 3.712500 0.000001
vt 0.359375 0.242188
vt 0.406250 0.242188
vt 0.406250 0.281250
vt 0.500000 0.242188
vt 0.500000 0.281250
vt 0.453125 0.281250
vt 0.406250 0.328125
vt 0.359375 0.328125
vt 0.453125 0.328125
vt 0.312500 0.242188
vt 0.359375 0.281250
vt 0.453125 0.242188
vt 0.312500 0.281250
vn 0.707100 0.000000 -0.707100
vn -0.707100 -0.000000 0.707100
vn 0.000000 1.000000 0.000000
vn 0.000000 -1.000000 0.000000
vn 0.707100 -0.000000 0.707100
vn -0.707100 0.000000 -0.707100
usemtl Material
s off
f 33/55/25 34/56/25 35/57/25
f 38/58/26 39/59/26 40/60/26
f 35/57/27 40/61/27 39/62/27
f 37/60/28 34/63/28 33/61/28
f 38/64/29 33/55/29 36/65/29
f 37/66/30 40/60/30 35/57/30
f 36/65/25 33/55/25 35/57/25
f 37/66/26 38/58/26 40/60/26
f 36/65/27 35/57/27 39/62/27
f 38/57/28 37/60/28 33/61/28
f 39/67/29 38/64/29 36/65/29
f 34/56/30 37/66/30 35/57/30
o WING_B_A_1
v 0.441942 -0.037500 -0.353553
v 0.353553 -0.037500 -0.441942
v 0.353553 0.712500 -0.441942
v 0.441942 0.712500 -0.353553
v -0.441942 -0.037500 0.353553
v -0.353553 -0.037500 0.441942
v -0.353553 0.712500 0.441942
v -0.441942 0.712500 0.353553
vt 0.617188 0.562500
vt 0.617188 0.656250
vt 0.601563 0.656250
vt 0.757813 0.562500
vt 0.773438 0.562500
vt 0.773438 0.656250
vt 0.617188 0.796875
vt 0.601563 0.796875
vt 0.632813 0.656250
vt 0.632813 0.796875
vt 0.601563 0.562500
vt 0.460938 0.656250
vt 0.757813 0.656250
vt 0.460938 0.562500
vn 0.707100 0.000000 -0.707100
vn -0.707100 -0.000000 0.707100
vn -0.000000 1.000000 -0.000000
vn -0.000000 -1.000000 -0.000000
vn 0.707100 -0.000000 0.707100
vn -0.707100 0.000000 -0.707100
usemtl Material
s off
f 42/68/31 43/69/31 44/70/31
f 45/71/32 46/72/32 47/73/32
f 43/69/33 48/74/33 47/75/33
f 45/76/34 42/77/34 41/74/34
f 41/78/35 44/70/35 47/79/35
f 45/71/36 48/80/36 43/69/36
f 41/78/31 42/68/31 44/70/31
f 48/80/32 45/71/32 47/73/32
f 44/70/33 43/69/33 47/75/33
f 46/69/34 45/76/34 41/74/34
f 46/81/35 41/78/35 47/79/35
f 42/68/36 45/71/36 43/69/36
o WING_T_A_2
v -0.265165 1.900000 -0.353553
v -0.353553 1.900000 -0.265165
v -0.353553 2.525000 -0.265165
v -0.265165 2.525000 -0.353553
v 0.265165 1.900000 0.353553
v 0.353554 1.900000 0.265165
v 0.353554 2.525000 0.265165
v 0.265165 2.525000 0.353553
vt 0.304688 0.812500
vt 0.320313 0.812500
vt 0.320313 0.890625
vt 0.445313 0.812500
vt 0.445313 0.890625
vt 0.429688 0.890625
vt 0.304688 0.890625
vt 0.320313 1.000000
vt 0.335938 0.890625
vt 0.335938 1.000000
vt 0.195313 0.890625
vt 0.429688 0.812500
vt 0.304688 1.000000
vt 0.195313 0.812500
vn -0.707100 0.000000 -0.707100
vn 0.707100 -0.000000 0.707100
vn 0.000000 1.000000 -0.000000
vn 0.000000 -1.000000 0.000000
vn 0.707100 0.000000 -0.707100
vn -0.707100 -0.000000 0.707100
usemtl Material
s off
f 49/82/37 50/83/37 51/84/37
f 54/85/38 55/86/38 56/87/38
f 52/88/39 51/84/39 56/89/39
f 53/90/40 50/91/40 49/89/40
f 49/82/41 52/88/41 55/92/41
f 53/93/42 56/87/42 51/84/42
f 52/88/37 49/82/37 51/84/37
f 53/93/38 54/85/38 56/87/38
f 55/94/39 52/88/39 56/89/39
f 54/84/40 53/90/40 49/89/40
f 54/95/41 49/82/41 55/92/41
f 50/83/42 53/93/42 51/84/42
o WING_B_A_2
v 0.450444 0.700476 -0.362056
v 0.362056 0.700476 -0.450444
v -0.044194 1.275000 -0.044194
v 0.044194 1.275000 0.044194
v -0.044194 0.125952 -0.044194
v 0.044194 0.125952 0.044194
v -0.362056 0.700476 0.450444
v -0.450444 0.700476 0.362056
vt 0.312500 0.593750
vt 0.312500 0.695313
vt 0.296875 0.695313
vt 0.429688 0.593750
vt 0.429688 0.695313
vt 0.414063 0.695313
vt 0.312500 0.796875
vt 0.296875 0.796875
vt 0.328125 0.695313
vt 0.328125 0.796875
vt 0.195313 0.593750
vt 0.296875 0.593750
vt 0.414063 0.593750
vt 0.195313 0.695313
vn 0.500000 0.707100 -0.500000
vn -0.500000 -0.707100 0.500000
vn -0.500000 0.707100 0.500000
vn 0.500000 -0.707100 -0.500000
vn 0.707100 -0.000000 0.707100
vn -0.707100 0.000000 -0.707100
usemtl Material
s off
f 58/96/43 59/97/43 60/98/43
f 62/99/44 63/100/44 64/101/44
f 59/97/45 64/102/45 63/103/45
f 61/104/46 58/105/46 57/102/46
f 62/106/47 57/107/47 60/98/47
f 61/108/48 64/101/48 59/97/48
f 57/107/43 58/96/43 60/98/43
f 61/108/44 62/99/44 64/101/44
f 60/98/45 59/97/45 63/103/45
f 62/97/46 61/104/46 57/102/46
f 63/109/47 62/106/47 60/98/47
f 58/96/48 61/108/48 59/97/48
o WING_B_B_2
v -0.362056 0.700476 -0.450444
v -0.450444 0.700476 -0.362056
v -0.044194 1.275000 0.044194
v 0.044194 1.275000 -0.044194
v -0.044194 0.125952 0.044194
v 0.044194 0.125952 -0.044194
v 0.450444 0.700476 0.362056
v 0.362056 0.700476 0.450444
vt 0.312500 0.593750
vt 0.312500 0.695313
vt 0.296875 0.695313
vt 0.429688 0.593750
vt 0.429688 0.695313
vt 0.414063 0.695313
vt 0.312500 0.796875
vt 0.296875 0.796875
vt 0.328125 0.695313
vt 0.328125 0.796875
vt 0.195313 0.593750
vt 0.296875 0.593750
vt 0.414063 0.593750
vt 0.195313 0.695313
vn -0.500000 0.707100 -0.500000
vn 0.500000 -0.707100 0.500000
vn 0.500000 0.707100 0.500000
vn -0.500000 -0.707100 -0.500000
vn 0.707100 0.000000 -0.707100
vn -0.707100 -0.000000 0.707100
usemtl Material
s off
f 66/110/49 67/111/49 68/112/49
f 70/113/50 71/114/50 72/115/50
f 67/111/51 72/116/51 71/117/51
f 69/118/52 66/119/52 65/116/52
f 70/120/53 65/121/53 68/112/53
f 69/122/54 72/115/54 67/111/54
f 65/121/49 66/110/49 68/112/49
f 69/122/50 70/113/50 72/115/50
f 68/112/51 67/111/51 71/117/51
f 70/111/52 69/118/52 65/116/52
f 71/123/53 70/120/53 68/112/53
f 66/110/54 69/122/54 67/111/54
o MAIN_MISSILE_MODULE
v 0.187500 -0.037500 -0.187500
v -0.187500 -0.037500 -0.187500
v -0.187500 3.087500 -0.187499
v 0.187500 3.087500 -0.187499
v -0.187500 -0.037500 0.187500
v 0.187500 -0.037500 0.187500
v 0.187500 3.087500 0.187501
v -0.187500 3.087500 0.187501
vt 0.093750 0.562500
vt 0.093750 0.953125
vt 0.046875 0.953125
vt 0.187500 0.562500
vt 0.187500 0.953125
vt 0.140625 0.953125
vt 0.093750 1.000000
vt 0.046875 1.000000
vt 0.140625 1.000000
vt 0.046875 0.562500
vt 0.000000 0.953125
vt 0.140625 0.562500
vt 0.000000 0.562500
vn 0.000000 0.000000 -1.000000
vn 0.000000 -0.000000 1.000000
vn 0.000000 1.000000 0.000000
vn 0.000000 -1.000000 -0.000000
vn 1.000000 0.000000 0.000000
vn -1.000000 0.000000 0.000000
usemtl Material
s off
f 74/124/55 75/125/55 76/126/55
f 78/127/56 79/128/56 80/129/56
f 75/125/57 80/130/57 79/131/57
f 77/129/58 74/132/58 73/130/58
f 73/133/59 76/126/59 79/134/59
f 77/135/60 80/129/60 75/125/60
f 73/133/55 74/124/55 76/126/55
f 77/135/56 78/127/56 80/129/56
f 76/126/57 75/125/57 79/131/57
f 78/125/58 77/129/58 73/130/58
f 78/136/59 73/133/59 79/134/59
f 74/124/60 77/135/60 75/125/60
o WING_T_B_1
v 0.356694 2.520558 -0.268306
v 0.268306 2.520558 -0.356694
v -0.044194 2.962500 -0.044194
v 0.044194 2.962500 0.044194
v -0.044194 2.078617 -0.044194
v 0.044194 2.078617 0.044194
v -0.268306 2.520558 0.356694
v -0.356694 2.520558 0.268306
vt 0.539063 0.843750
vt 0.554688 0.843750
vt 0.554688 0.921875
vt 0.648438 0.843750
vt 0.648438 0.921875
vt 0.632813 0.921875
vt 0.554688 1.000000
vt 0.539063 1.000000
vt 0.570313 0.921875
vt 0.570313 1.000000
vt 0.460938 0.843750
vt 0.539063 0.921875
vt 0.632813 0.843750
vt 0.460938 0.921875
vn 0.500000 0.707100 -0.500000
vn -0.500000 -0.707100 0.500000
vn -0.500000 0.707100 0.500000
vn 0.500000 -0.707100 -0.500000
vn 0.707100 -0.000000 0.707100
vn -0.707100 0.000000 -0.707100
usemtl Material
s off
f 81/137/61 82/138/61 83/139/61
f 86/140/62 87/141/62 88/142/62
f 83/139/63 88/143/63 87/144/63
f 86/139/64 85/145/64 82/146/64
f 86/147/65 81/137/65 84/148/65
f 85/149/66 88/142/66 83/139/66
f 84/148/61 81/137/61 83/139/61
f 85/149/62 86/140/62 88/142/62
f 84/148/63 83/139/63 87/144/63
f 81/143/64 86/139/64 82/146/64
f 87/150/65 86/147/65 84/148/65
f 82/138/66 85/149/66 83/139/66
o CHEM_WARHEAD_1
v 0.353554 3.087500 0.000001
v 0.000000 3.087500 -0.353552
v 0.000000 3.400000 -0.353552
v 0.353554 3.400000 0.000001
v -0.353553 3.087500 0.000001
v 0.000000 3.087500 0.353554
v 0.000000 3.400000 0.353554
v -0.353553 3.400000 0.000001
vt 0.062500 0.093750
vt 0.125000 0.093750
vt 0.125000 0.132813
vt 0.187500 0.093750
vt 0.250000 0.093750
vt 0.250000 0.132813
vt 0.125000 0.195313
vt 0.062500 0.195313
vt 0.187500 0.132813
vt 0.187500 0.195313
vt 0.000000 0.093750
vt 0.062500 0.132813
vt 0.000000 0.132813
vn 0.707100 0.000000 -0.707100
vn -0.707100 -0.000000 0.707100
vn 0.000000 1.000000 0.000000
vn 0.000000 -1.000000 0.000000
vn 0.707100 -0.000000 0.707100
vn -0.707100 0.000000 -0.707100
usemtl Material
s off
f 89/151/67 90/152/67 91/153/67
f 93/154/68 94/155/68 95/156/68
f 91/153/69 96/157/69 95/158/69
f 94/153/70 93/159/70 90/160/70
f 94/161/71 89/151/71 92/162/71
f 93/154/72 96/159/72 91/153/72
f 92/162/67 89/151/67 91/153/67
f 96/159/68 93/154/68 95/156/68
f 92/162/69 91/153/69 95/158/69
f 89/157/70 94/153/70 90/160/70
f 95/163/71 94/161/71 92/162/71
f 90/152/72 93/154/72 91/153/72
o WING_T_B_2
v 0.353554 1.900000 -0.265165
v 0.265165 1.900000 -0.353553
v 0.265165 2.525000 -0.353553
v 0.353554 2.525000 -0.265165
v -0.353553 1.900000 0.265165
v -0.265165 1.900000 0.353553
v -0.265165 2.525000 0.353553
v -0.353553 2.525000 0.265165
vt 0.320313 0.812500
vt 0.320313 0.890625
vt 0.304688 0.890625
vt 0.429688 0.812500
vt 0.445313 0.812500
vt 0.445313 0.890625
vt 0.320313 1.000000
vt 0.304688 1.000000
vt 0.335938 0.890625
vt 0.335938 1.000000
vt 0.195313 0.812500
vt 0.304688 0.812500
vt 0.429688 0.890625
vt 0.195313 0.890625
vn 0.707100 0.000000 -0.707100
vn -0.707100 -0.000000 0.707100
vn 0.000000 1.000000 0.000000
vn 0.000000 -1.000000 -0.000000
vn 0.707100 -0.000000 0.707100
vn -0.707100 0.000000 -0.707100
usemtl Material
s off
f 98/164/73 99/165/73 100/166/73
f 101/167/74 102/168/74 103/169/74
f 99/165/75 104/170/75 103/171/75
f 102/165/76 101/172/76 98/173/76
f 102/174/77 97/175/77 100/166/77
f 101/167/78 104/176/78 99/165/78
f 97/175/73 98/164/73 100/166/73
f 104/176/74 101/167/74 103/169/74
f 100/166/75 99/165/75 103/171/75
f 97/170/76 102/165/76 98/173/76
f 103/177/77 102/174/77 100/166/77
f 98/164/78 101/167/78 99/165/78
o MOTOR_MODULE
v 0.441942 -0.037500 -0.000000
v 0.000000 -0.037500 -0.441942
v 0.000000 0.962500 -0.441942
v 0.441942 0.962500 0.000000
v -0.441942 -0.037500 -0.000000
v 0.000000 -0.037500 0.441942
v 0.000000 0.962500 0.441942
v -0.441942 0.962500 0.000000
vt 0.156250 0.351563
vt 0.156250 0.476563
vt 0.078125 0.476563
vt 0.312500 0.351563
vt 0.312500 0.476563
vt 0.234375 0.476563
vt 0.156250 0.554688
vt 0.078125 0.554688
vt 0.234375 0.554688
vt 0.078125 0.351563
vt 0.000000 0.476563
vt 0.234375 0.351563
vt 0.000000 0.351563
vn 0.707100 0.000000 -0.707100
vn -0.707100 -0.000000 0.707100
vn 0.000000 1.000000 0.000000
vn 0.000000 -1.000000 -0.000000
vn 0.707100 -0.000000 0.707100
vn -0.707100 0.000000 -0.707100
usemtl Material
s off
f 106/178/79 107/179/79 108/180/79
f 110/181/80 111/182/80 112/183/80
f 107/179/81 112/184/81 111/185/81
f 109/183/82 106/186/82 105/184/82
f 105/187/83 108/180/83 111/188/83
f 109/189/84 112/183/84 107/179/84
f 105/187/79 106/178/79 108/180/79
f 109/189/80 110/181/80 112/183/80
f 108/180/81 107/179/81 111/185/81
f 110/179/82 109/183/82 105/184/82
f 110/190/83 105/187/83 111/188/83
f 106/178/84 109/189/84 107/179/84
