# Blender v2.76 (sub 0) OBJ File: 'missile_shrapnel.blend'
# www.blender.org
mtllib missile_shrapnel.mtl
o MOTOR_MODULE
v 0.441942 -0.037500 -0.000000
v 0.000000 -0.037500 -0.441942
v 0.000000 0.962500 -0.441942
v 0.441942 0.962500 0.000000
v -0.441942 -0.037500 -0.000000
v 0.000000 -0.037500 0.441942
v 0.000000 0.962500 0.441942
v -0.441942 0.962500 0.000000
vt 0.156250 0.351563
vt 0.156250 0.476563
vt 0.078125 0.476563
vt 0.312500 0.351563
vt 0.312500 0.476563
vt 0.234375 0.476563
vt 0.156250 0.554688
vt 0.078125 0.554688
vt 0.234375 0.554688
vt 0.078125 0.351563
vt 0.000000 0.476563
vt 0.234375 0.351563
vt 0.000000 0.351563
vn 0.707100 0.000000 -0.707100
vn -0.707100 -0.000000 0.707100
vn 0.000000 1.000000 0.000000
vn 0.000000 -1.000000 -0.000000
vn 0.707100 -0.000000 0.707100
vn -0.707100 0.000000 -0.707100
usemtl Material
s off
f 2/1/1 3/2/1 4/3/1
f 6/4/2 7/5/2 8/6/2
f 3/2/3 8/7/3 7/8/3
f 5/6/4 2/9/4 1/7/4
f 1/10/5 4/3/5 7/11/5
f 5/12/6 8/6/6 3/2/6
f 1/10/1 2/1/1 4/3/1
f 5/12/2 6/4/2 8/6/2
f 4/3/3 3/2/3 7/8/3
f 6/2/4 5/6/4 1/7/4
f 6/13/5 1/10/5 7/11/5
f 2/1/6 5/12/6 3/2/6
o WARHEAD_2
v 0.187500 3.337500 -0.187499
v -0.187500 3.337500 -0.187499
v -0.187500 3.587500 -0.187499
v 0.187500 3.587500 -0.187499
v -0.187500 3.337500 0.187501
v 0.187500 3.337500 0.187501
v 0.187500 3.587500 0.187501
v -0.187500 3.587500 0.187501
vt 0.093750 0.132813
vt 0.093750 0.164063
vt 0.046875 0.164063
vt 0.187500 0.132813
vt 0.187500 0.164063
vt 0.140625 0.164063
vt 0.093750 0.210938
vt 0.046875 0.210938
vt 0.140625 0.210938
vt 0.000000 0.132813
vt 0.046875 0.132813
vt 0.140625 0.132813
vt 0.000000 0.164063
vn 0.000000 0.000000 -1.000000
vn 0.000000 -0.000000 1.000000
vn 0.000000 1.000000 0.000000
vn 0.000000 -1.000000 0.000000
vn 1.000000 0.000000 0.000000
vn -1.000000 -0.000000 0.000000
usemtl Material
s off
f 10/14/7 11/15/7 12/16/7
f 14/17/8 15/18/8 16/19/8
f 11/15/9 16/20/9 15/21/9
f 13/19/10 10/22/10 9/20/10
f 14/23/11 9/24/11 12/16/11
f 13/25/12 16/19/12 11/15/12
f 9/24/7 10/14/7 12/16/7
f 13/25/8 14/17/8 16/19/8
f 12/16/9 11/15/9 15/21/9
f 14/15/10 13/19/10 9/20/10
f 15/26/11 14/23/11 12/16/11
f 10/14/12 13/25/12 11/15/12
o WING_B_B_1
v -0.353553 -0.037500 -0.441942
v -0.441942 -0.037500 -0.353553
v -0.441942 0.712500 -0.353553
v -0.353553 0.712500 -0.441942
v 0.353553 -0.037500 0.441942
v 0.441942 -0.037500 0.353553
v 0.441942 0.712500 0.353553
v 0.353553 0.712500 0.441942
vt 0.601563 0.562500
vt 0.617188 0.562500
vt 0.617188 0.656250
vt 0.773438 0.562500
vt 0.773438 0.656250
vt 0.757813 0.656250
vt 0.617188 0.796875
vt 0.601563 0.796875
vt 0.632813 0.656250
vt 0.632813 0.796875
vt 0.601563 0.656250
vt 0.460938 0.656250
vt 0.757813 0.562500
vt 0.460938 0.562500
vn -0.707100 0.000000 -0.707100
vn 0.707100 -0.000000 0.707100
vn 0.000000 1.000000 0.000000
vn 0.000000 -1.000000 -0.000000
vn 0.707100 0.000000 -0.707100
vn -0.707100 -0.000000 0.707100
usemtl Material
s off
f 17/27/13 18/28/13 19/29/13
f 22/30/14 23/31/14 24/32/14
f 19/29/15 24/33/15 23/34/15
f 21/35/16 18/36/16 17/33/16
f 17/27/17 20/37/17 23/38/17
f 21/39/18 24/32/18 19/29/18
f 20/37/13 17/27/13 19/29/13
f 21/39/14 22/30/14 24/32/14
f 20/37/15 19/29/15 23/34/15
f 22/29/16 21/35/16 17/33/16
f 22/40/17 17/27/17 23/38/17
f 18/28/18 21/39/18 19/29/18
o WING_B_A_2
v 0.450444 0.700476 -0.362056
v 0.362056 0.700476 -0.450444
v -0.044194 1.275000 -0.044194
v 0.044194 1.275000 0.044194
v -0.044194 0.125952 -0.044194
v 0.044194 0.125952 0.044194
v -0.362056 0.700476 0.450444
v -0.450444 0.700476 0.362056
vt 0.312500 0.593750
vt 0.312500 0.695313
vt 0.296875 0.695313
vt 0.429688 0.593750
vt 0.429688 0.695313
vt 0.414063 0.695313
vt 0.312500 0.796875
vt 0.296875 0.796875
vt 0.328125 0.695313
vt 0.328125 0.796875
vt 0.195313 0.593750
vt 0.296875 0.593750
vt 0.414063 0.593750
vt 0.195313 0.695313
vn 0.500000 0.707100 -0.500000
vn -0.500000 -0.707100 0.500000
vn -0.500000 0.707100 0.500000
vn 0.500000 -0.707100 -0.500000
vn 0.707100 -0.000000 0.707100
vn -0.707100 0.000000 -0.707100
usemtl Material
s off
f 26/41/19 27/42/19 28/43/19
f 30/44/20 31/45/20 32/46/20
f 27/42/21 32/47/21 31/48/21
f 29/49/22 26/50/22 25/47/22
f 30/51/23 25/52/23 28/43/23
f 29/53/24 32/46/24 27/42/24
f 25/52/19 26/41/19 28/43/19
f 29/53/20 30/44/20 32/46/20
f 28/43/21 27/42/21 31/48/21
f 30/42/22 29/49/22 25/47/22
f 31/54/23 30/51/23 28/43/23
f 26/41/24 29/53/24 27/42/24
o SHRAPNEL_PIECE_2
v 0.062500 3.150000 -0.312499
v -0.062500 3.150000 -0.312499
v -0.062500 3.275000 -0.312499
v 0.062500 3.275000 -0.312499
v -0.062500 3.150000 0.312501
v 0.062500 3.150000 0.312501
v 0.062500 3.275000 0.312501
v -0.062500 3.275000 0.312501
vt 0.304688 0.031250
vt 0.304688 0.046875
vt 0.289063 0.046875
vt 0.398438 0.031250
vt 0.398438 0.046875
vt 0.382813 0.046875
vt 0.304688 0.125000
vt 0.289063 0.125000
vt 0.320313 0.046875
vt 0.320313 0.125000
vt 0.289063 0.031250
vt 0.210938 0.046875
vt 0.382813 0.031250
vt 0.210938 0.031250
vn 0.000000 0.000000 -1.000000
vn 0.000000 -0.000000 1.000000
vn 0.000000 1.000000 0.000000
vn 0.000000 -1.000000 0.000000
vn 1.000000 0.000000 0.000000
vn -1.000000 0.000000 0.000000
usemtl Material
s off
f 34/55/25 35/56/25 36/57/25
f 38/58/26 39/59/26 40/60/26
f 35/56/27 40/61/27 39/62/27
f 37/63/28 34/64/28 33/61/28
f 33/65/29 36/57/29 39/66/29
f 37/67/30 40/60/30 35/56/30
f 33/65/25 34/55/25 36/57/25
f 37/67/26 38/58/26 40/60/26
f 36/57/27 35/56/27 39/62/27
f 38/56/28 37/63/28 33/61/28
f 38/68/29 33/65/29 39/66/29
f 34/55/30 37/67/30 35/56/30
o WING_B_A_1
v 0.441942 -0.037500 -0.353553
v 0.353553 -0.037500 -0.441942
v 0.353553 0.712500 -0.441942
v 0.441942 0.712500 -0.353553
v -0.441942 -0.037500 0.353553
v -0.353553 -0.037500 0.441942
v -0.353553 0.712500 0.441942
v -0.441942 0.712500 0.353553
vt 0.617188 0.562500
vt 0.617188 0.656250
vt 0.601563 0.656250
vt 0.757813 0.562500
vt 0.773438 0.562500
vt 0.773438 0.656250
vt 0.617188 0.796875
vt 0.601563 0.796875
vt 0.632813 0.656250
vt 0.632813 0.796875
vt 0.601563 0.562500
vt 0.460938 0.656250
vt 0.757813 0.656250
vt 0.460938 0.562500
vn 0.707100 0.000000 -0.707100
vn -0.707100 -0.000000 0.707100
vn -0.000000 1.000000 -0.000000
vn -0.000000 -1.000000 -0.000000
vn 0.707100 -0.000000 0.707100
vn -0.707100 0.000000 -0.707100
usemtl Material
s off
f 42/69/31 43/70/31 44/71/31
f 45/72/32 46/73/32 47/74/32
f 43/70/33 48/75/33 47/76/33
f 45/77/34 42/78/34 41/75/34
f 41/79/35 44/71/35 47/80/35
f 45/72/36 48/81/36 43/70/36
f 41/79/31 42/69/31 44/71/31
f 48/81/32 45/72/32 47/74/32
f 44/71/33 43/70/33 47/76/33
f 46/70/34 45/77/34 41/75/34
f 46/82/35 41/79/35 47/80/35
f 42/69/36 45/72/36 43/70/36
o WARHEAD_1
v 0.250000 3.087500 -0.249999
v -0.250000 3.087500 -0.249999
v -0.250000 3.337500 -0.249999
v 0.250000 3.337500 -0.249999
v -0.250000 3.087500 0.250001
v 0.250000 3.087500 0.250001
v 0.250000 3.337500 0.250001
v -0.250000 3.337500 0.250001
vt 0.125000 0.226563
vt 0.125000 0.257813
vt 0.062500 0.257813
vt 0.250000 0.226563
vt 0.250000 0.257813
vt 0.187500 0.257813
vt 0.125000 0.320313
vt 0.062500 0.320313
vt 0.187500 0.320313
vt 0.000000 0.226563
vt 0.062500 0.226563
vt 0.187500 0.226563
vt 0.000000 0.257813
vn 0.000000 0.000000 -1.000000
vn 0.000000 -0.000000 1.000000
vn 0.000000 1.000000 0.000000
vn 0.000000 -1.000000 0.000000
vn 1.000000 0.000000 0.000000
vn -1.000000 0.000000 0.000000
usemtl Material
s off
f 50/83/37 51/84/37 52/85/37
f 54/86/38 55/87/38 56/88/38
f 51/84/39 56/89/39 55/90/39
f 53/88/40 50/91/40 49/89/40
f 54/92/41 49/93/41 52/85/41
f 53/94/42 56/88/42 51/84/42
f 49/93/37 50/83/37 52/85/37
f 53/94/38 54/86/38 56/88/38
f 52/85/39 51/84/39 55/90/39
f 54/84/40 53/88/40 49/89/40
f 55/95/41 54/92/41 52/85/41
f 50/83/42 53/94/42 51/84/42
o WING_T_B_1
v -0.268306 2.520558 -0.356694
v -0.356694 2.520558 -0.268306
v -0.044194 2.962500 0.044194
v 0.044194 2.962500 -0.044194
v -0.044194 2.078617 0.044194
v 0.044194 2.078617 -0.044194
v 0.356694 2.520558 0.268306
v 0.268306 2.520558 0.356694
vt 0.539063 0.843750
vt 0.554688 0.843750
vt 0.554688 0.921875
vt 0.632813 0.843750
vt 0.648438 0.843750
vt 0.648438 0.921875
vt 0.554688 1.000000
vt 0.539063 1.000000
vt 0.570313 0.921875
vt 0.570313 1.000000
vt 0.460938 0.843750
vt 0.539063 0.921875
vt 0.632813 0.921875
vt 0.460938 0.921875
vn -0.500000 0.707100 -0.500000
vn 0.500000 -0.707100 0.500000
vn 0.500000 0.707100 0.500000
vn -0.500000 -0.707100 -0.500000
vn 0.707100 0.000000 -0.707100
vn -0.707100 -0.000000 0.707100
usemtl Material
s off
f 57/96/43 58/97/43 59/98/43
f 61/99/44 62/100/44 63/101/44
f 59/98/45 64/102/45 63/103/45
f 61/104/46 58/105/46 57/102/46
f 62/106/47 57/96/47 60/107/47
f 61/99/48 64/108/48 59/98/48
f 60/107/43 57/96/43 59/98/43
f 64/108/44 61/99/44 63/101/44
f 60/107/45 59/98/45 63/103/45
f 62/98/46 61/104/46 57/102/46
f 63/109/47 62/106/47 60/107/47
f 58/97/48 61/99/48 59/98/48
o MAIN_MISSILE_MODULE
v 0.187500 -0.037500 -0.187500
v -0.187500 -0.037500 -0.187500
v -0.187500 3.087500 -0.187499
v 0.187500 3.087500 -0.187499
v -0.187500 -0.037500 0.187500
v 0.187500 -0.037500 0.187500
v 0.187500 3.087500 0.187501
v -0.187500 3.087500 0.187501
vt 0.093750 0.562500
vt 0.093750 0.953125
vt 0.046875 0.953125
vt 0.187500 0.562500
vt 0.187500 0.953125
vt 0.140625 0.953125
vt 0.093750 1.000000
vt 0.046875 1.000000
vt 0.140625 1.000000
vt 0.046875 0.562500
vt 0.000000 0.953125
vt 0.140625 0.562500
vt 0.000000 0.562500
vn 0.000000 0.000000 -1.000000
vn 0.000000 -0.000000 1.000000
vn 0.000000 1.000000 0.000000
vn 0.000000 -1.000000 -0.000000
vn 1.000000 0.000000 0.000000
vn -1.000000 0.000000 0.000000
usemtl Material
s off
f 66/110/49 67/111/49 68/112/49
f 70/113/50 71/114/50 72/115/50
f 67/111/51 72/116/51 71/117/51
f 69/115/52 66/118/52 65/116/52
f 65/119/53 68/112/53 71/120/53
f 69/121/54 72/115/54 67/111/54
f 65/119/49 66/110/49 68/112/49
f 69/121/50 70/113/50 72/115/50
f 68/112/51 67/111/51 71/117/51
f 70/111/52 69/115/52 65/116/52
f 70/122/53 65/119/53 71/120/53
f 66/110/54 69/121/54 67/111/54
o SHRAPNEL_PIECE_1
v 0.312500 3.150000 -0.062499
v -0.312500 3.150000 -0.062499
v -0.312500 3.275000 -0.062499
v 0.312500 3.275000 -0.062499
v -0.312500 3.150000 0.062501
v 0.312500 3.150000 0.062501
v 0.312500 3.275000 0.062501
v -0.312500 3.275000 0.062501
vt 0.093750 0.093750
vt 0.093750 0.109375
vt 0.015625 0.109375
vt 0.187500 0.093750
vt 0.187500 0.109375
vt 0.109375 0.109375
vt 0.093750 0.125000
vt 0.015625 0.125000
vt 0.171875 0.109375
vt 0.171875 0.125000
vt 0.000000 0.093750
vt 0.015625 0.093750
vt 0.109375 0.093750
vt 0.000000 0.109375
vn 0.000000 0.000000 -1.000000
vn 0.000000 -0.000000 1.000000
vn 0.000000 1.000000 0.000000
vn 0.000000 -1.000000 0.000000
vn 1.000000 -0.000000 0.000000
vn -1.000000 0.000000 0.000000
usemtl Material
s off
f 74/123/55 75/124/55 76/125/55
f 78/126/56 79/127/56 80/128/56
f 75/124/57 80/129/57 79/130/57
f 77/131/58 74/132/58 73/129/58
f 78/133/59 73/134/59 76/125/59
f 77/135/60 80/128/60 75/124/60
f 73/134/55 74/123/55 76/125/55
f 77/135/56 78/126/56 80/128/56
f 76/125/57 75/124/57 79/130/57
f 78/124/58 77/131/58 73/129/58
f 79/136/59 78/133/59 76/125/59
f 74/123/60 77/135/60 75/124/60
o WING_T_A_1
v 0.356694 2.520558 -0.268306
v 0.268306 2.520558 -0.356694
v -0.044194 2.962500 -0.044194
v 0.044194 2.962500 0.044194
v -0.044194 2.078617 -0.044194
v 0.044194 2.078617 0.044194
v -0.268306 2.520558 0.356694
v -0.356694 2.520558 0.268306
vt 0.539063 0.843750
vt 0.554688 0.843750
vt 0.554688 0.921875
vt 0.648438 0.843750
vt 0.648438 0.921875
vt 0.632813 0.921875
vt 0.554688 1.000000
vt 0.539063 1.000000
vt 0.570313 0.921875
vt 0.570313 1.000000
vt 0.460938 0.843750
vt 0.539063 0.921875
vt 0.632813 0.843750
vt 0.460938 0.921875
vn 0.500000 0.707100 -0.500000
vn -0.500000 -0.707100 0.500000
vn -0.500000 0.707100 0.500000
vn 0.500000 -0.707100 -0.500000
vn 0.707100 -0.000000 0.707100
vn -0.707100 0.000000 -0.707100
usemtl Material
s off
f 81/137/61 82/138/61 83/139/61
f 86/140/62 87/141/62 88/142/62
f 83/139/63 88/143/63 87/144/63
f 86/139/64 85/145/64 82/146/64
f 86/147/65 81/137/65 84/148/65
f 85/149/66 88/142/66 83/139/66
f 84/148/61 81/137/61 83/139/61
f 85/149/62 86/140/62 88/142/62
f 84/148/63 83/139/63 87/144/63
f 81/143/64 86/139/64 82/146/64
f 87/150/65 86/147/65 84/148/65
f 82/138/66 85/149/66 83/139/66
o WING_T_A_2
v 0.353554 1.900000 -0.265165
v 0.265165 1.900000 -0.353553
v 0.265165 2.525000 -0.353553
v 0.353554 2.525000 -0.265165
v -0.353553 1.900000 0.265165
v -0.265165 1.900000 0.353553
v -0.265165 2.525000 0.353553
v -0.353553 2.525000 0.265165
vt 0.320313 0.812500
vt 0.320313 0.890625
vt 0.304688 0.890625
vt 0.429688 0.812500
vt 0.445313 0.812500
vt 0.445313 0.890625
vt 0.320313 1.000000
vt 0.304688 1.000000
vt 0.335938 0.890625
vt 0.335938 1.000000
vt 0.195313 0.812500
vt 0.304688 0.812500
vt 0.429688 0.890625
vt 0.195313 0.890625
vn 0.707100 0.000000 -0.707100
vn -0.707100 -0.000000 0.707100
vn 0.000000 1.000000 0.000000
vn 0.000000 -1.000000 -0.000000
vn 0.707100 -0.000000 0.707100
vn -0.707100 0.000000 -0.707100
usemtl Material
s off
f 90/151/67 91/152/67 92/153/67
f 93/154/68 94/155/68 95/156/68
f 91/152/69 96/157/69 95/158/69
f 94/152/70 93/159/70 90/160/70
f 94/161/71 89/162/71 92/153/71
f 93/154/72 96/163/72 91/152/72
f 89/162/67 90/151/67 92/153/67
f 96/163/68 93/154/68 95/156/68
f 92/153/69 91/152/69 95/158/69
f 89/157/70 94/152/70 90/160/70
f 95/164/71 94/161/71 92/153/71
f 90/151/72 93/154/72 91/152/72
o SHRAPNEL_PIECE_4
v 0.062500 3.400000 -0.249999
v -0.062500 3.400000 -0.249999
v -0.062500 3.525000 -0.249999
v 0.062500 3.525000 -0.249999
v -0.062500 3.400000 0.250001
v 0.062500 3.400000 0.250001
v 0.062500 3.525000 0.250001
v -0.062500 3.525000 0.250001
vt 0.492188 0.046875
vt 0.492188 0.062500
vt 0.476563 0.062500
vt 0.570313 0.046875
vt 0.570313 0.062500
vt 0.554688 0.062500
vt 0.492188 0.125000
vt 0.476563 0.125000
vt 0.507813 0.062500
vt 0.507813 0.125000
vt 0.476563 0.046875
vt 0.414063 0.062500
vt 0.554688 0.046875
vt 0.414063 0.046875
vn 0.000000 0.000000 -1.000000
vn 0.000000 0.000000 1.000000
vn 0.000000 1.000000 0.000000
vn 0.000000 -1.000000 0.000000
vn 1.000000 -0.000000 0.000000
vn -1.000000 0.000000 0.000000
usemtl Material
s off
f 98/165/73 99/166/73 100/167/73
f 102/168/74 103/169/74 104/170/74
f 99/166/75 104/171/75 103/172/75
f 101/173/76 98/174/76 97/171/76
f 97/175/77 100/167/77 103/176/77
f 101/177/78 104/170/78 99/166/78
f 97/175/73 98/165/73 100/167/73
f 101/177/74 102/168/74 104/170/74
f 100/167/75 99/166/75 103/172/75
f 102/166/76 101/173/76 97/171/76
f 102/178/77 97/175/77 103/176/77
f 98/165/78 101/177/78 99/166/78
o WING_T_B_2
v -0.265165 1.900000 -0.353553
v -0.353553 1.900000 -0.265165
v -0.353553 2.525000 -0.265165
v -0.265165 2.525000 -0.353553
v 0.265165 1.900000 0.353553
v 0.353554 1.900000 0.265165
v 0.353554 2.525000 0.265165
v 0.265165 2.525000 0.353553
vt 0.304688 0.812500
vt 0.320313 0.812500
vt 0.320313 0.890625
vt 0.445313 0.812500
vt 0.445313 0.890625
vt 0.429688 0.890625
vt 0.304688 0.890625
vt 0.320313 1.000000
vt 0.335938 0.890625
vt 0.335938 1.000000
vt 0.195313 0.890625
vt 0.429688 0.812500
vt 0.304688 1.000000
vt 0.195313 0.812500
vn -0.707100 0.000000 -0.707100
vn 0.707100 -0.000000 0.707100
vn 0.000000 1.000000 -0.000000
vn 0.000000 -1.000000 0.000000
vn 0.707100 0.000000 -0.707100
vn -0.707100 -0.000000 0.707100
usemtl Material
s off
f 105/179/79 106/180/79 107/181/79
f 110/182/80 111/183/80 112/184/80
f 108/185/81 107/181/81 112/186/81
f 109/187/82 106/188/82 105/186/82
f 105/179/83 108/185/83 111/189/83
f 109/190/84 112/184/84 107/181/84
f 108/185/79 105/179/79 107/181/79
f 109/190/80 110/182/80 112/184/80
f 111/191/81 108/185/81 112/186/81
f 110/181/82 109/187/82 105/186/82
f 110/192/83 105/179/83 111/189/83
f 106/180/84 109/190/84 107/181/84
o WING_B_B_2
v -0.362056 0.700476 -0.450444
v -0.450444 0.700476 -0.362056
v -0.044194 1.275000 0.044194
v 0.044194 1.275000 -0.044194
v -0.044194 0.125952 0.044194
v 0.044194 0.125952 -0.044194
v 0.450444 0.700476 0.362056
v 0.362056 0.700476 0.450444
vt 0.312500 0.593750
vt 0.312500 0.695313
vt 0.296875 0.695313
vt 0.429688 0.593750
vt 0.429688 0.695313
vt 0.414063 0.695313
vt 0.312500 0.796875
vt 0.296875 0.796875
vt 0.328125 0.695313
vt 0.328125 0.796875
vt 0.195313 0.593750
vt 0.296875 0.593750
vt 0.414063 0.593750
vt 0.195313 0.695313
vn -0.500000 0.707100 -0.500000
vn 0.500000 -0.707100 0.500000
vn 0.500000 0.707100 0.500000
vn -0.500000 -0.707100 -0.500000
vn 0.707100 0.000000 -0.707100
vn -0.707100 -0.000000 0.707100
usemtl Material
s off
f 114/193/85 115/194/85 116/195/85
f 118/196/86 119/197/86 120/198/86
f 115/194/87 120/199/87 119/200/87
f 117/201/88 114/202/88 113/199/88
f 118/203/89 113/204/89 116/195/89
f 117/205/90 120/198/90 115/194/90
f 113/204/85 114/193/85 116/195/85
f 117/205/86 118/196/86 120/198/86
f 116/195/87 115/194/87 119/200/87
f 118/194/88 117/201/88 113/199/88
f 119/206/89 118/203/89 116/195/89
f 114/193/90 117/205/90 115/194/90
o SHRAPNEL_PIECE_3
v 0.250000 3.400000 -0.062499
v -0.250000 3.400000 -0.062499
v -0.250000 3.525000 -0.062499
v 0.250000 3.525000 -0.062499
v -0.250000 3.400000 0.062501
v 0.250000 3.400000 0.062501
v 0.250000 3.525000 0.062501
v -0.250000 3.525000 0.062501
vt 0.078125 0.039063
vt 0.078125 0.054688
vt 0.015625 0.054688
vt 0.156250 0.039063
vt 0.156250 0.054688
vt 0.093750 0.054688
vt 0.078125 0.070313
vt 0.015625 0.070313
vt 0.140625 0.054688
vt 0.140625 0.070313
vt 0.000000 0.039063
vt 0.015625 0.039063
vt 0.093750 0.039063
vt 0.000000 0.054688
vn 0.000000 0.000000 -1.000000
vn 0.000000 -0.000000 1.000000
vn 0.000000 1.000000 0.000000
vn 0.000000 -1.000000 0.000000
vn 1.000000 0.000000 0.000000
vn -1.000000 0.000000 0.000000
usemtl Material
s off
f 122/207/91 123/208/91 124/209/91
f 126/210/92 127/211/92 128/212/92
f 123/208/93 128/213/93 127/214/93
f 125/215/94 122/216/94 121/213/94
f 126/217/95 121/218/95 124/209/95
f 125/219/96 128/212/96 123/208/96
f 121/218/91 122/207/91 124/209/91
f 125/219/92 126/210/92 128/212/92
f 124/209/93 123/208/93 127/214/93
f 126/208/94 125/215/94 121/213/94
f 127/220/95 126/217/95 124/209/95
f 122/207/96 125/219/96 123/208/96
