# Blender v2.76 (sub 0) OBJ File: 'missile_repulsion.blend'
# www.blender.org
mtllib missile_repulsion.mtl
o a
v 0.187500 -0.037500 -0.187500
v -0.187500 -0.037500 -0.187500
v -0.187500 3.087500 -0.187499
v 0.187500 3.087500 -0.187499
v -0.187500 -0.037500 0.187500
v 0.187500 -0.037500 0.187500
v 0.187500 3.087500 0.187501
v -0.187500 3.087500 0.187501
vt 0.093750 0.562500
vt 0.093750 0.953125
vt 0.046875 0.953125
vt 0.187500 0.562500
vt 0.187500 0.953125
vt 0.140625 0.953125
vt 0.093750 1.000000
vt 0.046875 1.000000
vt 0.140625 1.000000
vt 0.046875 0.562500
vt 0.000000 0.953125
vt 0.140625 0.562500
vt 0.000000 0.562500
vn 0.000000 0.000000 -1.000000
vn 0.000000 -0.000000 1.000000
vn 0.000000 1.000000 0.000000
vn 0.000000 -1.000000 -0.000000
vn 1.000000 0.000000 0.000000
vn -1.000000 0.000000 0.000000
usemtl Material
s off
f 2/1/1 3/2/1 4/3/1
f 6/4/2 7/5/2 8/6/2
f 3/2/3 8/7/3 7/8/3
f 5/6/4 2/9/4 1/7/4
f 1/10/5 4/3/5 7/11/5
f 5/12/6 8/6/6 3/2/6
f 1/10/1 2/1/1 4/3/1
f 5/12/2 6/4/2 8/6/2
f 4/3/3 3/2/3 7/8/3
f 6/2/4 5/6/4 1/7/4
f 6/13/5 1/10/5 7/11/5
f 2/1/6 5/12/6 3/2/6
o d
v -0.353553 -0.037500 -0.441942
v -0.441942 -0.037500 -0.353553
v -0.441942 0.712500 -0.353553
v -0.353553 0.712500 -0.441942
v 0.353553 -0.037500 0.441942
v 0.441942 -0.037500 0.353553
v 0.441942 0.712500 0.353553
v 0.353553 0.712500 0.441942
vt 0.601563 0.562500
vt 0.617188 0.562500
vt 0.617188 0.656250
vt 0.773438 0.562500
vt 0.773438 0.656250
vt 0.757813 0.656250
vt 0.617188 0.796875
vt 0.601563 0.796875
vt 0.632813 0.656250
vt 0.632813 0.796875
vt 0.601563 0.656250
vt 0.460938 0.656250
vt 0.757813 0.562500
vt 0.460938 0.562500
vn -0.707100 0.000000 -0.707100
vn 0.707100 -0.000000 0.707100
vn 0.000000 1.000000 0.000000
vn 0.000000 -1.000000 -0.000000
vn 0.707100 0.000000 -0.707100
vn -0.707100 -0.000000 0.707100
usemtl Material
s off
f 9/14/7 10/15/7 11/16/7
f 14/17/8 15/18/8 16/19/8
f 11/16/9 16/20/9 15/21/9
f 13/22/10 10/23/10 9/20/10
f 9/14/11 12/24/11 15/25/11
f 13/26/12 16/19/12 11/16/12
f 12/24/7 9/14/7 11/16/7
f 13/26/8 14/17/8 16/19/8
f 12/24/9 11/16/9 15/21/9
f 14/16/10 13/22/10 9/20/10
f 14/27/11 9/14/11 15/25/11
f 10/15/12 13/26/12 11/16/12
o k
v 0.450444 0.700476 -0.362056
v 0.362056 0.700476 -0.450444
v -0.044194 1.275000 -0.044194
v 0.044194 1.275000 0.044194
v -0.044194 0.125952 -0.044194
v 0.044194 0.125952 0.044194
v -0.362056 0.700476 0.450444
v -0.450444 0.700476 0.362056
vt 0.312500 0.593750
vt 0.312500 0.695313
vt 0.296875 0.695313
vt 0.429688 0.593750
vt 0.429688 0.695313
vt 0.414063 0.695313
vt 0.312500 0.796875
vt 0.296875 0.796875
vt 0.328125 0.695313
vt 0.328125 0.796875
vt 0.195313 0.593750
vt 0.296875 0.593750
vt 0.414063 0.593750
vt 0.195313 0.695313
vn 0.500000 0.707100 -0.500000
vn -0.500000 -0.707100 0.500000
vn -0.500000 0.707100 0.500000
vn 0.500000 -0.707100 -0.500000
vn 0.707100 -0.000000 0.707100
vn -0.707100 0.000000 -0.707100
usemtl Material
s off
f 18/28/13 19/29/13 20/30/13
f 22/31/14 23/32/14 24/33/14
f 19/29/15 24/34/15 23/35/15
f 21/36/16 18/37/16 17/34/16
f 22/38/17 17/39/17 20/30/17
f 21/40/18 24/33/18 19/29/18
f 17/39/13 18/28/13 20/30/13
f 21/40/14 22/31/14 24/33/14
f 20/30/15 19/29/15 23/35/15
f 22/29/16 21/36/16 17/34/16
f 23/41/17 22/38/17 20/30/17
f 18/28/18 21/40/18 19/29/18
o o
v 0.062500 3.462500 -0.062499
v -0.062500 3.462500 -0.062499
v -0.062500 3.837500 -0.062499
v 0.062500 3.837500 -0.062499
v -0.062500 3.462500 0.062501
v 0.062500 3.462500 0.062501
v 0.062500 3.837500 0.062501
v -0.062500 3.837500 0.062501
vt 0.250000 0.265625
vt 0.250000 0.312500
vt 0.234375 0.312500
vt 0.281250 0.265625
vt 0.281250 0.312500
vt 0.265625 0.312500
vt 0.250000 0.328125
vt 0.234375 0.328125
vt 0.265625 0.328125
vt 0.218750 0.265625
vt 0.234375 0.265625
vt 0.265625 0.265625
vt 0.218750 0.312500
vn 0.000000 0.000000 -1.000000
vn 0.000000 -0.000000 1.000000
vn 0.000000 1.000000 0.000000
vn 0.000000 -1.000000 0.000000
vn 1.000000 -0.000000 0.000000
vn -1.000000 0.000000 0.000000
usemtl Material
s off
f 26/42/19 27/43/19 28/44/19
f 30/45/20 31/46/20 32/47/20
f 27/43/21 32/48/21 31/49/21
f 29/47/22 26/50/22 25/48/22
f 30/51/23 25/52/23 28/44/23
f 29/53/24 32/47/24 27/43/24
f 25/52/19 26/42/19 28/44/19
f 29/53/20 30/45/20 32/47/20
f 28/44/21 27/43/21 31/49/21
f 30/43/22 29/47/22 25/48/22
f 31/54/23 30/51/23 28/44/23
f 26/42/24 29/53/24 27/43/24
o b
v 0.441942 -0.037500 -0.000000
v 0.000000 -0.037500 -0.441942
v 0.000000 0.962500 -0.441942
v 0.441942 0.962500 0.000000
v -0.441942 -0.037500 -0.000000
v 0.000000 -0.037500 0.441942
v 0.000000 0.962500 0.441942
v -0.441942 0.962500 0.000000
vt 0.156250 0.351563
vt 0.156250 0.476563
vt 0.078125 0.476563
vt 0.312500 0.351563
vt 0.312500 0.476563
vt 0.234375 0.476563
vt 0.156250 0.554688
vt 0.078125 0.554688
vt 0.234375 0.554688
vt 0.078125 0.351563
vt 0.000000 0.476563
vt 0.234375 0.351563
vt 0.000000 0.351563
vn 0.707100 0.000000 -0.707100
vn -0.707100 -0.000000 0.707100
vn 0.000000 1.000000 0.000000
vn 0.000000 -1.000000 -0.000000
vn 0.707100 -0.000000 0.707100
vn -0.707100 0.000000 -0.707100
usemtl Material
s off
f 34/55/25 35/56/25 36/57/25
f 38/58/26 39/59/26 40/60/26
f 35/56/27 40/61/27 39/62/27
f 37/60/28 34/63/28 33/61/28
f 33/64/29 36/57/29 39/65/29
f 37/66/30 40/60/30 35/56/30
f 33/64/25 34/55/25 36/57/25
f 37/66/26 38/58/26 40/60/26
f 36/57/27 35/56/27 39/62/27
f 38/56/28 37/60/28 33/61/28
f 38/67/29 33/64/29 39/65/29
f 34/55/30 37/66/30 35/56/30
o c
v 0.441942 -0.037500 -0.353553
v 0.353553 -0.037500 -0.441942
v 0.353553 0.712500 -0.441942
v 0.441942 0.712500 -0.353553
v -0.441942 -0.037500 0.353553
v -0.353553 -0.037500 0.441942
v -0.353553 0.712500 0.441942
v -0.441942 0.712500 0.353553
vt 0.617188 0.562500
vt 0.617188 0.656250
vt 0.601563 0.656250
vt 0.757813 0.562500
vt 0.773438 0.562500
vt 0.773438 0.656250
vt 0.617188 0.796875
vt 0.601563 0.796875
vt 0.632813 0.656250
vt 0.632813 0.796875
vt 0.601563 0.562500
vt 0.460938 0.656250
vt 0.757813 0.656250
vt 0.460938 0.562500
vn 0.707100 0.000000 -0.707100
vn -0.707100 -0.000000 0.707100
vn -0.000000 1.000000 -0.000000
vn -0.000000 -1.000000 -0.000000
vn 0.707100 -0.000000 0.707100
vn -0.707100 0.000000 -0.707100
usemtl Material
s off
f 42/68/31 43/69/31 44/70/31
f 45/71/32 46/72/32 47/73/32
f 43/69/33 48/74/33 47/75/33
f 45/76/34 42/77/34 41/74/34
f 41/78/35 44/70/35 47/79/35
f 45/71/36 48/80/36 43/69/36
f 41/78/31 42/68/31 44/70/31
f 48/80/32 45/71/32 47/73/32
f 44/70/33 43/69/33 47/75/33
f 46/69/34 45/76/34 41/74/34
f 46/81/35 41/78/35 47/79/35
f 42/68/36 45/71/36 43/69/36
o i
v -0.265165 1.900000 -0.353553
v -0.353553 1.900000 -0.265165
v -0.353553 2.525000 -0.265165
v -0.265165 2.525000 -0.353553
v 0.265165 1.900000 0.353553
v 0.353554 1.900000 0.265165
v 0.353554 2.525000 0.265165
v 0.265165 2.525000 0.353553
vt 0.304688 0.812500
vt 0.320313 0.812500
vt 0.320313 0.890625
vt 0.445313 0.812500
vt 0.445313 0.890625
vt 0.429688 0.890625
vt 0.304688 0.890625
vt 0.320313 1.000000
vt 0.335938 0.890625
vt 0.335938 1.000000
vt 0.195313 0.890625
vt 0.429688 0.812500
vt 0.304688 1.000000
vt 0.195313 0.812500
vn -0.707100 0.000000 -0.707100
vn 0.707100 -0.000000 0.707100
vn 0.000000 1.000000 -0.000000
vn 0.000000 -1.000000 0.000000
vn 0.707100 0.000000 -0.707100
vn -0.707100 -0.000000 0.707100
usemtl Material
s off
f 49/82/37 50/83/37 51/84/37
f 54/85/38 55/86/38 56/87/38
f 52/88/39 51/84/39 56/89/39
f 53/90/40 50/91/40 49/89/40
f 49/82/41 52/88/41 55/92/41
f 53/93/42 56/87/42 51/84/42
f 52/88/37 49/82/37 51/84/37
f 53/93/38 54/85/38 56/87/38
f 55/94/39 52/88/39 56/89/39
f 54/84/40 53/90/40 49/89/40
f 54/95/41 49/82/41 55/92/41
f 50/83/42 53/93/42 51/84/42
o j
v -0.362056 0.700476 -0.450444
v -0.450444 0.700476 -0.362056
v -0.044194 1.275000 0.044194
v 0.044194 1.275000 -0.044194
v -0.044194 0.125952 0.044194
v 0.044194 0.125952 -0.044194
v 0.450444 0.700476 0.362056
v 0.362056 0.700476 0.450444
vt 0.312500 0.593750
vt 0.312500 0.695313
vt 0.296875 0.695313
vt 0.429688 0.593750
vt 0.429688 0.695313
vt 0.414063 0.695313
vt 0.312500 0.796875
vt 0.296875 0.796875
vt 0.328125 0.695313
vt 0.328125 0.796875
vt 0.195313 0.593750
vt 0.296875 0.593750
vt 0.414063 0.593750
vt 0.195313 0.695313
vn -0.500000 0.707100 -0.500000
vn 0.500000 -0.707100 0.500000
vn 0.500000 0.707100 0.500000
vn -0.500000 -0.707100 -0.500000
vn 0.707100 0.000000 -0.707100
vn -0.707100 -0.000000 0.707100
usemtl Material
s off
f 58/96/43 59/97/43 60/98/43
f 62/99/44 63/100/44 64/101/44
f 59/97/45 64/102/45 63/103/45
f 61/104/46 58/105/46 57/102/46
f 62/106/47 57/107/47 60/98/47
f 61/108/48 64/101/48 59/97/48
f 57/107/43 58/96/43 60/98/43
f 61/108/44 62/99/44 64/101/44
f 60/98/45 59/97/45 63/103/45
f 62/97/46 61/104/46 57/102/46
f 63/109/47 62/106/47 60/98/47
f 58/96/48 61/108/48 59/97/48
o n
v 0.125000 3.087500 -0.124999
v -0.125000 3.087500 -0.124999
v -0.125000 3.462500 -0.124999
v 0.125000 3.462500 -0.124999
v -0.125000 3.087500 0.125001
v 0.125000 3.087500 0.125001
v 0.125000 3.462500 0.125001
v -0.125000 3.462500 0.125001
vt 0.140625 0.250000
vt 0.140625 0.296875
vt 0.109375 0.296875
vt 0.203125 0.250000
vt 0.203125 0.296875
vt 0.171875 0.296875
vt 0.140625 0.328125
vt 0.109375 0.328125
vt 0.171875 0.328125
vt 0.078125 0.250000
vt 0.109375 0.250000
vt 0.171875 0.250000
vt 0.078125 0.296875
vn 0.000000 0.000000 -1.000000
vn 0.000000 -0.000000 1.000000
vn 0.000000 1.000000 0.000000
vn 0.000000 -1.000000 0.000000
vn 1.000000 0.000000 0.000000
vn -1.000000 0.000000 0.000000
usemtl Material
s off
f 66/110/49 67/111/49 68/112/49
f 70/113/50 71/114/50 72/115/50
f 67/111/51 72/116/51 71/117/51
f 69/115/52 66/118/52 65/116/52
f 70/119/53 65/120/53 68/112/53
f 69/121/54 72/115/54 67/111/54
f 65/120/49 66/110/49 68/112/49
f 69/121/50 70/113/50 72/115/50
f 68/112/51 67/111/51 71/117/51
f 70/111/52 69/115/52 65/116/52
f 71/122/53 70/119/53 68/112/53
f 66/110/54 69/121/54 67/111/54
o m
v 0.062500 3.212500 -0.312499
v -0.062500 3.212500 -0.312499
v -0.062500 3.337500 -0.312499
v 0.062500 3.337500 -0.312499
v -0.062500 3.212500 0.312501
v 0.062500 3.212500 0.312501
v 0.062500 3.337500 0.312501
v -0.062500 3.337500 0.312501
vt 0.093750 0.140625
vt 0.093750 0.156250
vt 0.078125 0.156250
vt 0.187500 0.140625
vt 0.187500 0.156250
vt 0.171875 0.156250
vt 0.093750 0.234375
vt 0.078125 0.234375
vt 0.109375 0.156250
vt 0.109375 0.234375
vt 0.078125 0.140625
vt 0.000000 0.156250
vt 0.171875 0.140625
vt 0.000000 0.140625
vn 0.000000 0.000000 -1.000000
vn 0.000000 0.000000 1.000000
vn 0.000000 1.000000 0.000000
vn 0.000000 -1.000000 0.000000
vn 1.000000 0.000000 0.000000
vn -1.000000 0.000000 0.000000
usemtl Material
s off
f 74/123/55 75/124/55 76/125/55
f 78/126/56 79/127/56 80/128/56
f 75/124/57 80/129/57 79/130/57
f 77/131/58 74/132/58 73/129/58
f 73/133/59 76/125/59 79/134/59
f 77/135/60 80/128/60 75/124/60
f 73/133/55 74/123/55 76/125/55
f 77/135/56 78/126/56 80/128/56
f 76/125/57 75/124/57 79/130/57
f 78/124/58 77/131/58 73/129/58
f 78/136/59 73/133/59 79/134/59
f 74/123/60 77/135/60 75/124/60
o l
v 0.312500 3.212500 -0.062499
v -0.312500 3.212500 -0.062499
v -0.312500 3.337500 -0.062499
v 0.312500 3.337500 -0.062499
v -0.312500 3.212500 0.062501
v 0.312500 3.212500 0.062501
v 0.312500 3.337500 0.062501
v -0.312500 3.337500 0.062501
vt 0.289063 0.203125
vt 0.289063 0.218750
vt 0.210938 0.218750
vt 0.382813 0.203125
vt 0.382813 0.218750
vt 0.304688 0.218750
vt 0.289063 0.234375
vt 0.210938 0.234375
vt 0.367188 0.218750
vt 0.367188 0.234375
vt 0.195313 0.203125
vt 0.210938 0.203125
vt 0.304688 0.203125
vt 0.195313 0.218750
vn 0.000000 0.000000 -1.000000
vn 0.000000 -0.000000 1.000000
vn 0.000000 1.000000 0.000000
vn 0.000000 -1.000000 0.000000
vn 1.000000 0.000000 0.000000
vn -1.000000 0.000000 0.000000
usemtl Material
s off
f 82/137/61 83/138/61 84/139/61
f 86/140/62 87/141/62 88/142/62
f 83/138/63 88/143/63 87/144/63
f 85/145/64 82/146/64 81/143/64
f 86/147/65 81/148/65 84/139/65
f 85/149/66 88/142/66 83/138/66
f 81/148/61 82/137/61 84/139/61
f 85/149/62 86/140/62 88/142/62
f 84/139/63 83/138/63 87/144/63
f 86/138/64 85/145/64 81/143/64
f 87/150/65 86/147/65 84/139/65
f 82/137/66 85/149/66 83/138/66
o f
v 0.356694 2.520558 -0.268306
v 0.268306 2.520558 -0.356694
v -0.044194 2.962500 -0.044194
v 0.044194 2.962500 0.044194
v -0.044194 2.078617 -0.044194
v 0.044194 2.078617 0.044194
v -0.268306 2.520558 0.356694
v -0.356694 2.520558 0.268306
vt 0.539063 0.843750
vt 0.554688 0.843750
vt 0.554688 0.921875
vt 0.648438 0.843750
vt 0.648438 0.921875
vt 0.632813 0.921875
vt 0.554688 1.000000
vt 0.539063 1.000000
vt 0.570313 0.921875
vt 0.570313 1.000000
vt 0.460938 0.843750
vt 0.539063 0.921875
vt 0.632813 0.843750
vt 0.460938 0.921875
vn 0.500000 0.707100 -0.500000
vn -0.500000 -0.707100 0.500000
vn -0.500000 0.707100 0.500000
vn 0.500000 -0.707100 -0.500000
vn 0.707100 -0.000000 0.707100
vn -0.707100 0.000000 -0.707100
usemtl Material
s off
f 89/151/67 90/152/67 91/153/67
f 94/154/68 95/155/68 96/156/68
f 91/153/69 96/157/69 95/158/69
f 94/153/70 93/159/70 90/160/70
f 94/161/71 89/151/71 92/162/71
f 93/163/72 96/156/72 91/153/72
f 92/162/67 89/151/67 91/153/67
f 93/163/68 94/154/68 96/156/68
f 92/162/69 91/153/69 95/158/69
f 89/157/70 94/153/70 90/160/70
f 95/164/71 94/161/71 92/162/71
f 90/152/72 93/163/72 91/153/72
o h
v 0.353554 1.900000 -0.265165
v 0.265165 1.900000 -0.353553
v 0.265165 2.525000 -0.353553
v 0.353554 2.525000 -0.265165
v -0.353553 1.900000 0.265165
v -0.265165 1.900000 0.353553
v -0.265165 2.525000 0.353553
v -0.353553 2.525000 0.265165
vt 0.320313 0.812500
vt 0.320313 0.890625
vt 0.304688 0.890625
vt 0.429688 0.812500
vt 0.445313 0.812500
vt 0.445313 0.890625
vt 0.320313 1.000000
vt 0.304688 1.000000
vt 0.335938 0.890625
vt 0.335938 1.000000
vt 0.195313 0.812500
vt 0.304688 0.812500
vt 0.429688 0.890625
vt 0.195313 0.890625
vn 0.707100 0.000000 -0.707100
vn -0.707100 -0.000000 0.707100
vn 0.000000 1.000000 0.000000
vn 0.000000 -1.000000 -0.000000
vn 0.707100 -0.000000 0.707100
vn -0.707100 0.000000 -0.707100
usemtl Material
s off
f 98/165/73 99/166/73 100/167/73
f 101/168/74 102/169/74 103/170/74
f 99/166/75 104/171/75 103/172/75
f 102/166/76 101/173/76 98/174/76
f 102/175/77 97/176/77 100/167/77
f 101/168/78 104/177/78 99/166/78
f 97/176/73 98/165/73 100/167/73
f 104/177/74 101/168/74 103/170/74
f 100/167/75 99/166/75 103/172/75
f 97/171/76 102/166/76 98/174/76
f 103/178/77 102/175/77 100/167/77
f 98/165/78 101/168/78 99/166/78
o g
v -0.268306 2.520558 -0.356694
v -0.356694 2.520558 -0.268306
v -0.044194 2.962500 0.044194
v 0.044194 2.962500 -0.044194
v -0.044194 2.078617 0.044194
v 0.044194 2.078617 -0.044194
v 0.356694 2.520558 0.268306
v 0.268306 2.520558 0.356694
vt 0.539063 0.843750
vt 0.554688 0.843750
vt 0.554688 0.921875
vt 0.632813 0.843750
vt 0.648438 0.843750
vt 0.648438 0.921875
vt 0.554688 1.000000
vt 0.539063 1.000000
vt 0.570313 0.921875
vt 0.570313 1.000000
vt 0.460938 0.843750
vt 0.539063 0.921875
vt 0.632813 0.921875
vt 0.460938 0.921875
vn -0.500000 0.707100 -0.500000
vn 0.500000 -0.707100 0.500000
vn 0.500000 0.707100 0.500000
vn -0.500000 -0.707100 -0.500000
vn 0.707100 0.000000 -0.707100
vn -0.707100 -0.000000 0.707100
usemtl Material
s off
f 105/179/79 106/180/79 107/181/79
f 109/182/80 110/183/80 111/184/80
f 107/181/81 112/185/81 111/186/81
f 109/187/82 106/188/82 105/185/82
f 110/189/83 105/179/83 108/190/83
f 109/182/84 112/191/84 107/181/84
f 108/190/79 105/179/79 107/181/79
f 112/191/80 109/182/80 111/184/80
f 108/190/81 107/181/81 111/186/81
f 110/181/82 109/187/82 105/185/82
f 111/192/83 110/189/83 108/190/83
f 106/180/84 109/182/84 107/181/84
