# 3ds Max Wavefront OBJ Exporter v0.97b - (c)2007 guruware
# File Created: 22.01.2017 18:05:27

mtllib head_dibilitation.mtl

#
# object Component_20
#

v  31.4961 359.0551 -6.2992
v  31.4961 371.6535 6.2992
v  31.4961 359.0551 6.2992
v  31.4961 371.6535 -6.2992
v  -31.4960 359.0551 6.2992
v  -31.4960 359.0551 -6.2992
v  -31.4960 371.6535 -6.2992
v  -31.4960 371.6535 6.2992
# 8 vertices

vn 1.0000 0.0000 -0.0000
vn 0.0000 -1.0000 -0.0000
vn 0.0000 0.0000 -1.0000
vn 0.0000 1.0000 -0.0000
vn 0.0000 0.0000 1.0000
vn -1.0000 0.0000 -0.0000
# 6 vertex normals

vt 0.5391 0.3984 0.0000
vt 0.5234 0.4141 0.0000
vt 0.5234 0.3984 0.0000
vt 0.5391 0.4141 0.0000
vt 0.4453 0.4297 0.0000
vt 0.5234 0.4297 0.0000
vt 0.4453 0.4141 0.0000
vt 0.3672 0.4141 0.0000
vt 0.3672 0.4297 0.0000
vt 0.3516 0.4141 0.0000
vt 0.4297 0.3984 0.0000
vt 0.4297 0.4141 0.0000
vt 0.3516 0.3984 0.0000
vt 0.4453 0.3984 0.0000
# 14 texture coords

g Component_20
usemtl Material__12
s off
f 1/1/1 2/2/1 3/3/1 
f 2/2/1 1/1/1 4/4/1 
f 1/5/2 5/2/2 6/6/2 
f 5/2/2 1/5/2 3/7/2 
f 7/8/3 1/5/3 6/9/3 
f 1/5/3 7/8/3 4/7/3 
f 2/10/4 7/11/4 8/12/4 
f 7/11/4 2/10/4 4/13/4 
f 2/14/5 5/2/5 3/7/5 
f 5/2/5 2/14/5 8/3/5 
f 7/12/6 5/14/6 8/7/6 
f 5/14/6 7/12/6 6/11/6 
# 12 faces

#
# object Component_20
#

v  -6.2992 359.0551 -31.4961
v  6.2993 371.6535 -31.4961
v  6.2993 359.0551 -31.4961
v  -6.2992 371.6535 -31.4961
v  6.2993 359.0551 31.4961
v  -6.2992 359.0551 31.4961
v  -6.2992 371.6535 31.4961
v  6.2993 371.6535 31.4961
# 8 vertices

vn 1.0000 0.0000 -0.0000
vn 0.0000 -1.0000 -0.0000
vn 0.0000 0.0000 -1.0000
vn 0.0000 1.0000 -0.0000
vn 0.0000 0.0000 1.0000
vn -1.0000 0.0000 -0.0000
# 6 vertex normals

vt 0.5391 0.3984 0.0000
vt 0.5234 0.4141 0.0000
vt 0.5234 0.3984 0.0000
vt 0.5391 0.4141 0.0000
vt 0.4453 0.4297 0.0000
vt 0.5234 0.4297 0.0000
vt 0.4453 0.4141 0.0000
vt 0.3672 0.4141 0.0000
vt 0.3672 0.4297 0.0000
vt 0.3516 0.4141 0.0000
vt 0.4297 0.3984 0.0000
vt 0.4297 0.4141 0.0000
vt 0.3516 0.3984 0.0000
vt 0.4453 0.3984 0.0000
# 14 texture coords

g Component_20
usemtl Material__12
s off
f 9/15/7 10/16/7 11/17/7 
f 10/16/7 9/15/7 12/18/7 
f 9/19/8 13/16/8 14/20/8 
f 13/16/8 9/19/8 11/21/8 
f 15/22/9 9/19/9 14/23/9 
f 9/19/9 15/22/9 12/21/9 
f 10/24/10 15/25/10 16/26/10 
f 15/25/10 10/24/10 12/27/10 
f 10/28/11 13/16/11 11/21/11 
f 13/16/11 10/28/11 16/17/11 
f 15/26/12 13/28/12 16/21/12 
f 13/28/12 15/26/12 14/25/12 
# 12 faces

#
# object group_29
#

v  -22.0472 359.0552 -22.0473
v  22.0473 314.9607 -22.0473
v  -22.0472 314.9607 -22.0473
v  22.0473 359.0552 -22.0473
v  -22.0472 314.9607 22.0472
v  22.0473 314.9607 22.0472
v  -22.0472 359.0552 22.0472
v  22.0473 359.0552 22.0472
# 8 vertices

vn 0.0000 0.0000 -1.0000
vn 0.0000 -1.0000 -0.0000
vn -1.0000 0.0000 -0.0000
vn 0.0000 1.0000 -0.0000
vn 1.0000 0.0000 -0.0000
vn 0.0000 0.0000 1.0000
# 6 vertex normals

vt 0.1641 0.2813 0.0000
vt 0.1094 0.2266 0.0000
vt 0.1641 0.2266 0.0000
vt 0.1094 0.2813 0.0000
vt 0.1094 0.3359 0.0000
vt 0.1641 0.3359 0.0000
vt 0.2188 0.2266 0.0000
vt 0.2188 0.2813 0.0000
vt 0.0547 0.3359 0.0000
vt 0.0547 0.2813 0.0000
vt 0.0547 0.2266 0.0000
vt -0.0000 0.2266 0.0000
vt -0.0000 0.2813 0.0000
# 13 texture coords

g group_29
usemtl Material__12
s off
f 17/29/13 18/30/13 19/31/13 
f 18/30/13 17/29/13 20/32/13 
f 18/29/14 21/33/14 19/32/14 
f 21/33/14 18/29/14 22/34/14 
f 17/29/15 21/35/15 23/36/15 
f 21/35/15 17/29/15 19/31/15 
f 24/32/16 17/37/16 23/38/16 
f 17/37/16 24/32/16 20/33/16 
f 18/30/17 24/38/17 22/39/17 
f 24/38/17 18/30/17 20/32/17 
f 24/38/18 21/40/18 22/39/18 
f 21/40/18 24/38/18 23/41/18 
# 12 faces

#
# object group_30
#

v  3.1497 415.7480 -3.1496
v  -3.1496 415.7480 3.1496
v  -3.1496 415.7480 -3.1496
v  3.1497 415.7480 3.1496
v  -3.1496 434.6456 -3.1496
v  -3.1496 434.6456 3.1496
v  3.1497 434.6456 -3.1496
v  3.1497 434.6456 3.1496
# 8 vertices

vn 0.0000 -1.0000 -0.0000
vn -1.0000 0.0000 -0.0000
vn 0.0000 0.0000 -1.0000
vn 1.0000 0.0000 -0.0000
vn 0.0000 0.0000 1.0000
vn 0.0000 1.0000 -0.0000
# 6 vertex normals

vt 0.7188 0.3359 0.0000
vt 0.7109 0.3281 0.0000
vt 0.7188 0.3281 0.0000
vt 0.7109 0.3359 0.0000
vt 0.7266 0.3047 0.0000
vt 0.7266 0.3281 0.0000
vt 0.7188 0.3047 0.0000
vt 0.7109 0.3047 0.0000
vt 0.7031 0.3281 0.0000
vt 0.7031 0.3047 0.0000
vt 0.6953 0.3047 0.0000
vt 0.6953 0.3281 0.0000
vt 0.7031 0.3359 0.0000
# 13 texture coords

g group_30
usemtl Material__12
s off
f 25/42/19 26/43/19 27/44/19 
f 26/43/19 25/42/19 28/45/19 
f 29/44/20 26/46/20 30/47/20 
f 26/46/20 29/44/20 27/48/20 
f 29/44/21 25/49/21 27/48/21 
f 25/49/21 29/44/21 31/43/21 
f 25/49/22 32/50/22 28/51/22 
f 32/50/22 25/49/22 31/43/22 
f 32/50/23 26/52/23 28/51/23 
f 26/52/23 32/50/23 30/53/23 
f 32/45/24 29/50/24 30/43/24 
f 29/50/24 32/45/24 31/54/24 
# 12 faces

#
# object group_31
#

v  -6.2992 415.7481 -6.2992
v  -6.2992 396.8504 6.2992
v  -6.2992 415.7481 6.2992
v  -6.2992 396.8504 -6.2992
v  6.2993 396.8504 -6.2992
v  6.2993 396.8504 6.2992
v  6.2993 415.7481 6.2992
v  6.2993 415.7481 -6.2992
# 8 vertices

vn -1.0000 0.0000 -0.0000
vn 0.0000 -1.0000 -0.0000
vn 0.0000 0.0000 1.0000
vn 0.0000 1.0000 -0.0000
vn 0.0000 0.0000 -1.0000
vn 1.0000 0.0000 -0.0000
# 6 vertex normals

vt 0.6406 0.3203 0.0000
vt 0.6563 0.2969 0.0000
vt 0.6563 0.3203 0.0000
vt 0.6406 0.2969 0.0000
vt 0.6563 0.3359 0.0000
vt 0.6406 0.3359 0.0000
vt 0.6250 0.2969 0.0000
vt 0.6250 0.3203 0.0000
vt 0.6250 0.3359 0.0000
vt 0.6719 0.3203 0.0000
vt 0.6719 0.2969 0.0000
vt 0.6094 0.3203 0.0000
vt 0.6094 0.2969 0.0000
# 13 texture coords

g group_31
usemtl Material__12
s off
f 33/55/25 34/56/25 35/57/25 
f 34/56/25 33/55/25 36/58/25 
f 37/59/26 34/55/26 36/57/26 
f 34/55/26 37/59/26 38/60/26 
f 39/55/27 34/61/27 38/58/27 
f 34/61/27 39/55/27 35/62/27 
f 39/60/28 33/62/28 35/55/28 
f 33/62/28 39/60/28 40/63/28 
f 33/64/29 37/56/29 36/65/29 
f 37/56/29 33/64/29 40/57/29 
f 37/61/30 39/66/30 38/67/30 
f 39/66/30 37/61/30 40/62/30 
# 12 faces

#
# object group_32
#

v  -15.7480 377.9527 -15.7480
v  15.7481 359.0551 -15.7480
v  -15.7480 359.0551 -15.7480
v  15.7481 377.9527 -15.7480
v  -15.7480 359.0551 15.7480
v  15.7481 359.0551 15.7480
v  -15.7480 377.9527 15.7480
v  15.7481 377.9527 15.7480
# 8 vertices

vn 0.0000 0.0000 -1.0000
vn 0.0000 -1.0000 -0.0000
vn -1.0000 0.0000 -0.0000
vn 0.0000 1.0000 -0.0000
vn 1.0000 0.0000 -0.0000
vn 0.0000 0.0000 1.0000
# 6 vertex normals

vt 0.3359 0.2734 0.0000
vt 0.3750 0.2969 0.0000
vt 0.3359 0.2969 0.0000
vt 0.3750 0.2734 0.0000
vt 0.3359 0.3359 0.0000
vt 0.3750 0.3359 0.0000
vt 0.4141 0.2734 0.0000
vt 0.4141 0.2969 0.0000
vt 0.2969 0.3359 0.0000
vt 0.2969 0.2969 0.0000
vt 0.2969 0.2734 0.0000
vt 0.2578 0.2734 0.0000
vt 0.2578 0.2969 0.0000
# 13 texture coords

g group_32
usemtl Material__12
s off
f 41/68/31 42/69/31 43/70/31 
f 42/69/31 41/68/31 44/71/31 
f 42/69/32 45/72/32 43/70/32 
f 45/72/32 42/69/32 46/73/32 
f 41/74/33 45/69/33 47/71/33 
f 45/69/33 41/74/33 43/75/33 
f 48/70/34 41/76/34 47/77/34 
f 41/76/34 48/70/34 44/72/34 
f 42/77/35 48/68/35 46/70/35 
f 48/68/35 42/77/35 44/78/35 
f 48/79/36 45/77/36 46/80/36 
f 45/77/36 48/79/36 47/78/36 
# 12 faces

#
# object group_33
#

v  9.4489 396.8504 9.4488
v  -9.4488 377.9528 9.4488
v  9.4489 377.9528 9.4488
v  -9.4488 396.8504 9.4488
v  9.4489 377.9528 -9.4488
v  -9.4488 377.9528 -9.4488
v  9.4489 396.8504 -9.4488
v  -9.4488 396.8504 -9.4488
# 8 vertices

vn 0.0000 0.0000 1.0000
vn 0.0000 -1.0000 -0.0000
vn 1.0000 0.0000 -0.0000
vn 0.0000 1.0000 -0.0000
vn -1.0000 0.0000 -0.0000
vn 0.0000 0.0000 -1.0000
# 6 vertex normals

vt 0.4844 0.3125 0.0000
vt 0.4609 0.2891 0.0000
vt 0.4844 0.2891 0.0000
vt 0.4609 0.3125 0.0000
vt 0.5313 0.3125 0.0000
vt 0.5078 0.3359 0.0000
vt 0.5078 0.3125 0.0000
vt 0.5313 0.3359 0.0000
vt 0.5078 0.2891 0.0000
vt 0.4844 0.3359 0.0000
vt 0.5547 0.2891 0.0000
vt 0.5547 0.3125 0.0000
vt 0.5313 0.2891 0.0000
# 13 texture coords

g group_33
usemtl Material__12
s off
f 49/81/37 50/82/37 51/83/37 
f 50/82/37 49/81/37 52/84/37 
f 53/85/38 50/86/38 54/87/38 
f 50/86/38 53/85/38 51/88/38 
f 53/89/39 49/81/39 51/83/39 
f 49/81/39 53/89/39 55/87/39 
f 49/87/40 56/90/40 52/81/40 
f 56/90/40 49/87/40 55/86/40 
f 56/85/41 50/91/41 52/92/41 
f 50/91/41 56/85/41 54/93/41 
f 56/85/42 53/89/42 54/93/42 
f 53/89/42 56/85/42 55/87/42 
# 12 faces

#
# object group_34
#

v  44.0945 264.6284 6.2992
v  -44.0944 189.0379 6.2992
v  44.0945 189.0379 6.2992
v  -44.0944 264.6284 6.2992
v  44.0945 189.0379 -6.2992
v  -44.0944 189.0379 -6.2992
v  44.0945 264.6284 -6.2992
v  -44.0944 264.6284 -6.2992
# 8 vertices

vn 0.0000 0.0000 1.0000
vn 0.0000 -1.0000 -0.0000
vn 1.0000 0.0000 -0.0000
vn 0.0000 1.0000 -0.0000
vn -1.0000 0.0000 -0.0000
vn 0.0000 0.0000 -1.0000
# 6 vertex normals

vt 0.5469 0.4453 0.0000
vt 0.6563 0.5391 0.0000
vt 0.5469 0.5391 0.0000
vt 0.6563 0.4453 0.0000
vt 0.6719 0.5547 0.0000
vt 0.7813 0.5391 0.0000
vt 0.7813 0.5547 0.0000
vt 0.6719 0.5391 0.0000
vt 0.7969 0.4453 0.0000
vt 0.7813 0.4453 0.0000
vt 0.7969 0.5391 0.0000
vt 0.5625 0.5547 0.0000
vt 0.5625 0.5391 0.0000
vt 0.6719 0.4453 0.0000
# 14 texture coords

g group_34
usemtl Material__12
s off
f 57/94/43 58/95/43 59/96/43 
f 58/95/43 57/94/43 60/97/43 
f 61/98/44 58/99/44 62/100/44 
f 58/99/44 61/98/44 59/101/44 
f 61/102/45 57/99/45 59/103/45 
f 57/99/45 61/102/45 63/104/45 
f 57/105/46 64/101/46 60/98/46 
f 64/101/46 57/105/46 63/106/46 
f 64/95/47 58/107/47 60/101/47 
f 58/107/47 64/95/47 62/97/47 
f 64/107/48 61/99/48 62/101/48 
f 61/99/48 64/107/48 63/103/48 
# 12 faces

#
# object group_35
#

v  12.5985 182.7387 25.1968
v  -12.5984 182.7387 -25.1969
v  -12.5984 182.7387 25.1968
v  12.5985 182.7387 -25.1969
v  -12.5984 119.7466 25.1968
v  12.5985 119.7466 25.1968
v  12.5985 119.7466 -25.1969
v  -12.5984 119.7466 -25.1969
# 8 vertices

vn 0.0000 1.0000 -0.0000
vn 0.0000 0.0000 1.0000
vn 1.0000 0.0000 -0.0000
vn 0.0000 0.0000 -1.0000
vn -1.0000 0.0000 -0.0000
vn 0.0000 -1.0000 -0.0000
# 6 vertex normals

vt 0.8516 0.9375 0.0000
vt 0.8203 1.0000 0.0000
vt 0.8203 0.9375 0.0000
vt 0.8516 1.0000 0.0000
vt 0.9453 0.9375 0.0000
vt 0.9141 0.8594 0.0000
vt 0.9453 0.8594 0.0000
vt 0.9141 0.9375 0.0000
vt 0.8516 0.8594 0.0000
vt 0.8203 0.8594 0.0000
vt 0.7578 0.9375 0.0000
vt 0.7578 0.8594 0.0000
vt 0.8828 0.9375 0.0000
vt 0.8828 1.0000 0.0000
# 14 texture coords

g group_35
usemtl Material__12
s off
f 65/108/49 66/109/49 67/110/49 
f 66/109/49 65/108/49 68/111/49 
f 65/112/50 69/113/50 70/114/50 
f 69/113/50 65/112/50 67/115/50 
f 71/113/51 65/108/51 70/116/51 
f 65/108/51 71/113/51 68/115/51 
f 66/108/52 71/117/52 72/116/52 
f 71/117/52 66/108/52 68/110/52 
f 66/118/53 69/117/53 67/110/53 
f 69/117/53 66/118/53 72/119/53 
f 71/120/54 69/111/54 72/108/54 
f 69/111/54 71/120/54 70/121/54 
# 12 faces

