# 3ds Max Wavefront OBJ Exporter v0.97b - (c)2007 guruware
# File Created: 22.01.2017 18:05:39

mtllib head_homing.mtl

#
# object group_19
#

v  6.2993 409.4489 -6.2992
v  6.2993 428.3465 6.2992
v  6.2993 409.4489 6.2992
v  6.2993 428.3465 -6.2992
v  -6.2991 409.4489 6.2992
v  -6.2991 409.4489 -6.2992
v  -6.2991 428.3465 -6.2992
v  -6.2991 428.3465 6.2992
# 8 vertices

vn 1.0000 0.0000 -0.0000
vn 0.0000 -1.0000 -0.0000
vn 0.0000 0.0000 -1.0000
vn 0.0000 1.0000 -0.0000
vn 0.0000 0.0000 1.0000
vn -1.0000 0.0000 -0.0000
# 6 vertex normals

vt 0.2500 0.1406 0.0000
vt 0.2344 0.1641 0.0000
vt 0.2344 0.1406 0.0000
vt 0.2500 0.1641 0.0000
vt 0.2344 0.1797 0.0000
vt 0.2500 0.1797 0.0000
vt 0.2188 0.1406 0.0000
vt 0.2188 0.1641 0.0000
vt 0.2188 0.1797 0.0000
vt 0.2656 0.1641 0.0000
vt 0.2656 0.1406 0.0000
vt 0.2031 0.1641 0.0000
vt 0.2031 0.1406 0.0000
# 13 texture coords

g group_19
usemtl Material__7
s off
f 1/1/1 2/2/1 3/3/1 
f 2/2/1 1/1/1 4/4/1 
f 1/4/2 5/5/2 6/2/2 
f 5/5/2 1/4/2 3/6/2 
f 7/2/3 1/7/3 6/3/3 
f 1/7/3 7/2/3 4/8/3 
f 2/2/4 7/9/4 8/8/4 
f 7/9/4 2/2/4 4/5/4 
f 2/10/5 5/1/5 3/11/5 
f 5/1/5 2/10/5 8/4/5 
f 7/12/6 5/7/6 8/8/6 
f 5/7/6 7/12/6 6/13/6 
# 12 faces

#
# object group_20
#

v  12.5985 409.4489 12.5984
v  -12.5984 390.5512 12.5984
v  12.5985 390.5512 12.5984
v  -12.5984 409.4489 12.5984
v  12.5985 390.5512 -12.5984
v  -12.5984 390.5512 -12.5984
v  12.5985 409.4489 -12.5984
v  -12.5984 409.4489 -12.5984
# 8 vertices

vn 0.0000 0.0000 1.0000
vn 0.0000 -1.0000 -0.0000
vn 1.0000 0.0000 -0.0000
vn 0.0000 1.0000 -0.0000
vn -1.0000 0.0000 -0.0000
vn 0.0000 0.0000 -1.0000
# 6 vertex normals

vt 0.2656 0.1875 0.0000
vt 0.2344 0.2109 0.0000
vt 0.2344 0.1875 0.0000
vt 0.2656 0.2109 0.0000
vt 0.2969 0.2109 0.0000
vt 0.2656 0.2422 0.0000
vt 0.2969 0.2422 0.0000
vt 0.2969 0.1875 0.0000
vt 0.2344 0.2422 0.0000
vt 0.2031 0.1875 0.0000
vt 0.2031 0.2109 0.0000
vt 0.3281 0.1875 0.0000
vt 0.3281 0.2109 0.0000
# 13 texture coords

g group_20
usemtl Material__7
s off
f 9/14/7 10/15/7 11/16/7 
f 10/15/7 9/14/7 12/17/7 
f 13/18/8 10/19/8 14/17/8 
f 10/19/8 13/18/8 11/20/8 
f 13/14/9 9/18/9 11/17/9 
f 9/18/9 13/14/9 15/21/9 
f 9/17/10 16/22/10 12/15/10 
f 16/22/10 9/17/10 15/19/10 
f 16/15/11 10/23/11 12/16/11 
f 10/23/11 16/15/11 14/24/11 
f 16/25/12 13/18/12 14/21/12 
f 13/18/12 16/25/12 15/26/12 
# 12 faces

#
# object group_21
#

v  18.8977 390.5512 18.8976
v  -18.8976 352.7559 18.8976
v  18.8977 352.7559 18.8976
v  -18.8976 390.5512 18.8976
v  18.8977 352.7559 -18.8977
v  -18.8976 352.7559 -18.8977
v  18.8977 390.5512 -18.8977
v  -18.8976 390.5512 -18.8977
# 8 vertices

vn 0.0000 0.0000 1.0000
vn 0.0000 -1.0000 -0.0000
vn 1.0000 0.0000 -0.0000
vn 0.0000 1.0000 -0.0000
vn -1.0000 0.0000 -0.0000
vn 0.0000 0.0000 -1.0000
# 6 vertex normals

vt 0.0938 0.1953 0.0000
vt 0.0469 0.1484 0.0000
vt 0.0938 0.1484 0.0000
vt 0.0469 0.1953 0.0000
vt 0.1406 0.1953 0.0000
vt 0.0938 0.2422 0.0000
vt 0.1406 0.2422 0.0000
vt 0.1406 0.1484 0.0000
vt 0.0469 0.2422 0.0000
vt 0.0000 0.1953 0.0000
vt 0.0000 0.1484 0.0000
vt 0.1875 0.1953 0.0000
vt 0.1875 0.1484 0.0000
# 13 texture coords

g group_21
usemtl Material__7
s off
f 17/27/13 18/28/13 19/29/13 
f 18/28/13 17/27/13 20/30/13 
f 21/31/14 18/32/14 22/27/14 
f 18/32/14 21/31/14 19/33/14 
f 21/34/15 17/27/15 19/29/15 
f 17/27/15 21/34/15 23/31/15 
f 17/27/16 24/35/16 20/30/16 
f 24/35/16 17/27/16 23/32/16 
f 24/36/17 18/28/17 20/30/17 
f 18/28/17 24/36/17 22/37/17 
f 24/38/18 21/34/18 22/39/18 
f 21/34/18 24/38/18 23/31/18 
# 12 faces

#
# object group_22
#

v  12.5985 352.7559 12.5984
v  -12.5984 314.9606 12.5984
v  12.5985 314.9606 12.5984
v  -12.5984 352.7559 12.5984
v  12.5985 314.9606 -12.5984
v  -12.5984 314.9606 -12.5984
v  12.5985 352.7559 -12.5984
v  -12.5984 352.7559 -12.5984
# 8 vertices

vn 0.0000 0.0000 1.0000
vn 0.0000 -1.0000 -0.0000
vn 1.0000 0.0000 -0.0000
vn 0.0000 1.0000 -0.0000
vn -1.0000 0.0000 -0.0000
vn 0.0000 0.0000 -1.0000
# 6 vertex normals

vt 0.0313 0.3047 0.0000
vt 0.0000 0.2578 0.0000
vt 0.0313 0.2578 0.0000
vt -0.0000 0.3047 0.0000
vt 0.0938 0.3047 0.0000
vt 0.0625 0.3359 0.0000
vt 0.0625 0.3047 0.0000
vt 0.0938 0.3359 0.0000
vt 0.0938 0.2578 0.0000
vt 0.0625 0.2578 0.0000
vt 0.0313 0.3359 0.0000
vt 0.1250 0.3047 0.0000
vt 0.1250 0.2578 0.0000
# 13 texture coords

g group_22
usemtl Material__7
s off
f 25/40/19 26/41/19 27/42/19 
f 26/41/19 25/40/19 28/43/19 
f 29/44/20 26/45/20 30/46/20 
f 26/45/20 29/44/20 27/47/20 
f 29/48/21 25/46/21 27/49/21 
f 25/46/21 29/48/21 31/44/21 
f 25/46/22 32/50/22 28/40/22 
f 32/50/22 25/46/22 31/45/22 
f 32/40/23 26/49/23 28/46/23 
f 26/49/23 32/40/23 30/42/23 
f 32/51/24 29/48/24 30/52/24 
f 29/48/24 32/51/24 31/44/24 
# 12 faces

