# Blender v2.76 (sub 0) OBJ File: 'missile_condensed.blend'
# www.blender.org
mtllib missile_condensed.mtl
o WING_T_B_1
v -0.268306 2.520558 -0.356694
v -0.356694 2.520558 -0.268306
v -0.044194 2.962500 0.044194
v 0.044194 2.962500 -0.044194
v -0.044194 2.078617 0.044194
v 0.044194 2.078617 -0.044194
v 0.356694 2.520558 0.268306
v 0.268306 2.520558 0.356694
vt 0.539063 0.843750
vt 0.554688 0.843750
vt 0.554688 0.921875
vt 0.539063 0.921875
vt 0.632813 0.843750
vt 0.648438 0.843750
vt 0.648438 0.921875
vt 0.632813 0.921875
vt 0.554688 1.000000
vt 0.539063 1.000000
vt 0.570313 0.921875
vt 0.570313 1.000000
vt 0.460938 0.843750
vt 0.460938 0.921875
vn -0.500000 0.707100 -0.500000
vn 0.500000 -0.707100 0.500000
vn 0.500000 0.707100 0.500000
vn -0.500000 -0.707100 -0.500000
vn 0.707100 0.000000 -0.707100
vn -0.707100 -0.000000 0.707100
usemtl Material
s off
f 1/1/1 2/2/1 3/3/1 4/4/1
f 5/5/2 6/6/2 7/7/2 8/8/2
f 4/4/3 3/3/3 8/9/3 7/10/3
f 6/3/4 5/11/4 2/12/4 1/9/4
f 6/13/5 1/1/5 4/4/5 7/14/5
f 2/2/6 5/5/6 8/8/6 3/3/6
o WING_B_B_1
v -0.353553 -0.037500 -0.441942
v -0.441942 -0.037500 -0.353553
v -0.441942 0.712500 -0.353553
v -0.353553 0.712500 -0.441942
v 0.353553 -0.037500 0.441942
v 0.441942 -0.037500 0.353553
v 0.441942 0.712500 0.353553
v 0.353553 0.712500 0.441942
vt 0.601563 0.562500
vt 0.617188 0.562500
vt 0.617188 0.656250
vt 0.601563 0.656250
vt 0.757813 0.562500
vt 0.773438 0.562500
vt 0.773438 0.656250
vt 0.757813 0.656250
vt 0.617188 0.796875
vt 0.601563 0.796875
vt 0.632813 0.656250
vt 0.632813 0.796875
vt 0.460938 0.562500
vt 0.460938 0.656250
vn -0.707100 0.000000 -0.707100
vn 0.707100 -0.000000 0.707100
vn 0.000000 1.000000 0.000000
vn 0.000000 -1.000000 -0.000000
vn 0.707100 0.000000 -0.707100
vn -0.707100 -0.000000 0.707100
usemtl Material
s off
f 9/15/7 10/16/7 11/17/7 12/18/7
f 13/19/8 14/20/8 15/21/8 16/22/8
f 12/18/9 11/17/9 16/23/9 15/24/9
f 14/17/10 13/25/10 10/26/10 9/23/10
f 14/27/11 9/15/11 12/18/11 15/28/11
f 10/16/12 13/19/12 16/22/12 11/17/12
o WING_T_A_1
v 0.356694 2.520558 -0.268306
v 0.268306 2.520558 -0.356694
v -0.044194 2.962500 -0.044194
v 0.044194 2.962500 0.044194
v -0.044194 2.078617 -0.044194
v 0.044194 2.078617 0.044194
v -0.268306 2.520558 0.356694
v -0.356694 2.520558 0.268306
vt 0.539063 0.843750
vt 0.554688 0.843750
vt 0.554688 0.921875
vt 0.539063 0.921875
vt 0.632813 0.843750
vt 0.648438 0.843750
vt 0.648438 0.921875
vt 0.632813 0.921875
vt 0.554688 1.000000
vt 0.539063 1.000000
vt 0.570313 0.921875
vt 0.570313 1.000000
vt 0.460938 0.843750
vt 0.460938 0.921875
vn 0.500000 0.707100 -0.500000
vn -0.500000 -0.707100 0.500000
vn -0.500000 0.707100 0.500000
vn 0.500000 -0.707100 -0.500000
vn 0.707100 -0.000000 0.707100
vn -0.707100 0.000000 -0.707100
usemtl Material
s off
f 17/29/13 18/30/13 19/31/13 20/32/13
f 21/33/14 22/34/14 23/35/14 24/36/14
f 20/32/15 19/31/15 24/37/15 23/38/15
f 22/31/16 21/39/16 18/40/16 17/37/16
f 22/41/17 17/29/17 20/32/17 23/42/17
f 18/30/18 21/33/18 24/36/18 19/31/18
o WING_T_B_2
v -0.265165 1.900000 -0.353553
v -0.353553 1.900000 -0.265165
v -0.353553 2.525000 -0.265165
v -0.265165 2.525000 -0.353553
v 0.265165 1.900000 0.353553
v 0.353554 1.900000 0.265165
v 0.353554 2.525000 0.265165
v 0.265165 2.525000 0.353553
vt 0.304688 0.812500
vt 0.320313 0.812500
vt 0.320313 0.890625
vt 0.304688 0.890625
vt 0.429688 0.812500
vt 0.445313 0.812500
vt 0.445313 0.890625
vt 0.429688 0.890625
vt 0.320313 1.000000
vt 0.304688 1.000000
vt 0.335938 0.890625
vt 0.335938 1.000000
vt 0.195313 0.812500
vt 0.195313 0.890625
vn -0.707100 0.000000 -0.707100
vn 0.707100 -0.000000 0.707100
vn 0.000000 1.000000 -0.000000
vn 0.000000 -1.000000 0.000000
vn 0.707100 0.000000 -0.707100
vn -0.707100 -0.000000 0.707100
usemtl Material
s off
f 25/43/19 26/44/19 27/45/19 28/46/19
f 29/47/20 30/48/20 31/49/20 32/50/20
f 28/46/21 27/45/21 32/51/21 31/52/21
f 30/45/22 29/53/22 26/54/22 25/51/22
f 30/55/23 25/43/23 28/46/23 31/56/23
f 26/44/24 29/47/24 32/50/24 27/45/24
o WING_B_A_2
v 0.450444 0.700476 -0.362056
v 0.362056 0.700476 -0.450444
v -0.044194 1.275000 -0.044194
v 0.044194 1.275000 0.044194
v -0.044194 0.125952 -0.044194
v 0.044194 0.125952 0.044194
v -0.362056 0.700476 0.450444
v -0.450444 0.700476 0.362056
vt 0.296875 0.593750
vt 0.312500 0.593750
vt 0.312500 0.695313
vt 0.296875 0.695313
vt 0.414063 0.593750
vt 0.429688 0.593750
vt 0.429688 0.695313
vt 0.414063 0.695313
vt 0.312500 0.796875
vt 0.296875 0.796875
vt 0.328125 0.695313
vt 0.328125 0.796875
vt 0.195313 0.593750
vt 0.195313 0.695313
vn 0.500000 0.707100 -0.500000
vn -0.500000 -0.707100 0.500000
vn -0.500000 0.707100 0.500000
vn 0.500000 -0.707100 -0.500000
vn 0.707100 -0.000000 0.707100
vn -0.707100 0.000000 -0.707100
usemtl Material
s off
f 33/57/25 34/58/25 35/59/25 36/60/25
f 37/61/26 38/62/26 39/63/26 40/64/26
f 36/60/27 35/59/27 40/65/27 39/66/27
f 38/59/28 37/67/28 34/68/28 33/65/28
f 38/69/29 33/57/29 36/60/29 39/70/29
f 34/58/30 37/61/30 40/64/30 35/59/30
o WARHEAD_1
v 0.353554 2.900000 0.000000
v 0.000000 2.900000 -0.353553
v 0.000000 3.150000 -0.353552
v 0.353554 3.150000 0.000001
v -0.353553 2.900000 0.000000
v 0.000000 2.900000 0.353553
v 0.000000 3.150000 0.353554
v -0.353553 3.150000 0.000001
vt 0.062500 0.242188
vt 0.125000 0.242188
vt 0.125000 0.273438
vt 0.062500 0.273438
vt 0.187500 0.242188
vt 0.250000 0.242188
vt 0.250000 0.273438
vt 0.187500 0.273438
vt 0.125000 0.335938
vt 0.062500 0.335938
vt 0.187500 0.335938
vt 0.000000 0.242188
vt 0.000000 0.273438
vn 0.707100 0.000000 -0.707100
vn -0.707100 -0.000000 0.707100
vn 0.000000 1.000000 0.000000
vn 0.000000 -1.000000 0.000000
vn 0.707100 -0.000000 0.707100
vn -0.707100 0.000000 -0.707100
usemtl Material
s off
f 41/71/31 42/72/31 43/73/31 44/74/31
f 45/75/32 46/76/32 47/77/32 48/78/32
f 44/74/33 43/73/33 48/79/33 47/80/33
f 46/73/34 45/78/34 42/81/34 41/79/34
f 46/82/35 41/71/35 44/74/35 47/83/35
f 42/72/36 45/75/36 48/78/36 43/73/36
o WARHEAD_3
v 0.176777 3.275000 0.000001
v 0.000000 3.275000 -0.176776
v 0.000000 3.400000 -0.176776
v 0.176777 3.400000 0.000001
v -0.176776 3.275000 0.000001
v 0.000000 3.275000 0.176778
v 0.000000 3.400000 0.176778
v -0.176776 3.400000 0.000001
v 0.088389 3.400000 0.000001
v 0.000000 3.400000 -0.088387
v 0.000000 3.462500 -0.088387
v 0.088389 3.462500 0.000001
v -0.088388 3.400000 0.000001
v 0.000000 3.400000 0.088389
v 0.000000 3.462500 0.088389
v -0.088388 3.462500 0.000001
vt 0.492188 0.289063
vt 0.523438 0.289063
vt 0.523438 0.304688
vt 0.492188 0.304688
vt 0.554688 0.289063
vt 0.585938 0.289063
vt 0.585938 0.304688
vt 0.554688 0.304688
vt 0.523438 0.335938
vt 0.492188 0.335938
vt 0.554688 0.335938
vt 0.460938 0.289063
vt 0.460938 0.304688
vt 0.085938 0.296875
vt 0.101563 0.296875
vt 0.101563 0.304688
vt 0.085938 0.304688
vt 0.117188 0.296875
vt 0.132813 0.296875
vt 0.132813 0.304688
vt 0.117188 0.304688
vt 0.101563 0.320313
vt 0.085938 0.320313
vt 0.117188 0.320313
vt 0.070313 0.296875
vt 0.070313 0.304688
vn 0.707100 0.000000 -0.707100
vn -0.707100 -0.000000 0.707100
vn 0.000000 1.000000 0.000000
vn 0.000000 -1.000000 0.000000
vn 0.707100 -0.000000 0.707100
vn -0.707100 0.000000 -0.707100
usemtl Material
s off
f 49/84/37 50/85/37 51/86/37 52/87/37
f 53/88/38 54/89/38 55/90/38 56/91/38
f 52/87/39 51/86/39 56/92/39 55/93/39
f 54/86/40 53/91/40 50/94/40 49/92/40
f 54/95/41 49/84/41 52/87/41 55/96/41
f 50/85/42 53/88/42 56/91/42 51/86/42
f 57/97/37 58/98/37 59/99/37 60/100/37
f 61/101/38 62/102/38 63/103/38 64/104/38
f 60/100/39 59/99/39 64/105/39 63/106/39
f 62/99/40 61/104/40 58/107/40 57/105/40
f 62/108/41 57/97/41 60/100/41 63/109/41
f 58/98/42 61/101/42 64/104/42 59/99/42
o PROPULSOR_MODULE
v 0.441942 -0.037500 -0.000000
v 0.000000 -0.037500 -0.441942
v 0.000000 0.962500 -0.441942
v 0.441942 0.962500 0.000000
v -0.441942 -0.037500 -0.000000
v 0.000000 -0.037500 0.441942
v 0.000000 0.962500 0.441942
v -0.441942 0.962500 0.000000
vt 0.078125 0.351563
vt 0.156250 0.351563
vt 0.156250 0.476563
vt 0.078125 0.476563
vt 0.234375 0.351563
vt 0.312500 0.351563
vt 0.312500 0.476563
vt 0.234375 0.476563
vt 0.156250 0.554688
vt 0.078125 0.554688
vt 0.234375 0.554688
vt 0.000000 0.351563
vt 0.000000 0.476563
vn 0.707100 0.000000 -0.707100
vn -0.707100 -0.000000 0.707100
vn 0.000000 1.000000 0.000000
vn 0.000000 -1.000000 -0.000000
vn 0.707100 -0.000000 0.707100
vn -0.707100 0.000000 -0.707100
usemtl Material
s off
f 65/110/43 66/111/43 67/112/43 68/113/43
f 69/114/44 70/115/44 71/116/44 72/117/44
f 68/113/45 67/112/45 72/118/45 71/119/45
f 70/112/46 69/117/46 66/120/46 65/118/46
f 70/121/47 65/110/47 68/113/47 71/122/47
f 66/111/48 69/114/48 72/117/48 67/112/48
o WING_B_A_1
v 0.441942 -0.037500 -0.353553
v 0.353553 -0.037500 -0.441942
v 0.353553 0.712500 -0.441942
v 0.441942 0.712500 -0.353553
v -0.441942 -0.037500 0.353553
v -0.353553 -0.037500 0.441942
v -0.353553 0.712500 0.441942
v -0.441942 0.712500 0.353553
vt 0.601563 0.562500
vt 0.617188 0.562500
vt 0.617188 0.656250
vt 0.601563 0.656250
vt 0.757813 0.562500
vt 0.773438 0.562500
vt 0.773438 0.656250
vt 0.757813 0.656250
vt 0.617188 0.796875
vt 0.601563 0.796875
vt 0.632813 0.656250
vt 0.632813 0.796875
vt 0.460938 0.562500
vt 0.460938 0.656250
vn 0.707100 0.000000 -0.707100
vn -0.707100 -0.000000 0.707100
vn -0.000000 1.000000 0.000000
vn -0.000000 -1.000000 -0.000000
vn 0.707100 -0.000000 0.707100
vn -0.707100 0.000000 -0.707100
usemtl Material
s off
f 73/123/49 74/124/49 75/125/49 76/126/49
f 77/127/50 78/128/50 79/129/50 80/130/50
f 76/126/51 75/125/51 80/131/51 79/132/51
f 78/125/52 77/133/52 74/134/52 73/131/52
f 78/135/53 73/123/53 76/126/53 79/136/53
f 74/124/54 77/127/54 80/130/54 75/125/54
o WING_B_B_2
v -0.362056 0.700476 -0.450444
v -0.450444 0.700476 -0.362056
v -0.044194 1.275000 0.044194
v 0.044194 1.275000 -0.044194
v -0.044194 0.125952 0.044194
v 0.044194 0.125952 -0.044194
v 0.450444 0.700476 0.362056
v 0.362056 0.700476 0.450444
vt 0.296875 0.593750
vt 0.312500 0.593750
vt 0.312500 0.695313
vt 0.296875 0.695313
vt 0.414063 0.593750
vt 0.429688 0.593750
vt 0.429688 0.695313
vt 0.414063 0.695313
vt 0.312500 0.796875
vt 0.296875 0.796875
vt 0.328125 0.695313
vt 0.328125 0.796875
vt 0.195313 0.593750
vt 0.195313 0.695313
vn -0.500000 0.707100 -0.500000
vn 0.500000 -0.707100 0.500000
vn 0.500000 0.707100 0.500000
vn -0.500000 -0.707100 -0.500000
vn 0.707100 0.000000 -0.707100
vn -0.707100 -0.000000 0.707100
usemtl Material
s off
f 81/137/55 82/138/55 83/139/55 84/140/55
f 85/141/56 86/142/56 87/143/56 88/144/56
f 84/140/57 83/139/57 88/145/57 87/146/57
f 86/139/58 85/147/58 82/148/58 81/145/58
f 86/149/59 81/137/59 84/140/59 87/150/59
f 82/138/60 85/141/60 88/144/60 83/139/60
o WARHEAD_2
v 0.265165 3.150000 0.000001
v 0.000000 3.150000 -0.265164
v 0.000000 3.275000 -0.265164
v 0.265165 3.275000 0.000001
v -0.265165 3.150000 0.000001
v 0.000000 3.150000 0.265166
v 0.000000 3.275000 0.265166
v -0.265165 3.275000 0.000001
vt 0.304688 0.273438
vt 0.351563 0.273438
vt 0.351563 0.289063
vt 0.304688 0.289063
vt 0.398438 0.273438
vt 0.445313 0.273438
vt 0.445313 0.289063
vt 0.398438 0.289063
vt 0.351563 0.335938
vt 0.304688 0.335938
vt 0.398438 0.335938
vt 0.257813 0.273438
vt 0.257813 0.289063
vn 0.707100 0.000000 -0.707100
vn -0.707100 -0.000000 0.707100
vn 0.000000 1.000000 0.000000
vn 0.000000 -1.000000 0.000000
vn 0.707100 -0.000000 0.707100
vn -0.707100 0.000000 -0.707100
usemtl Material
s off
f 89/151/61 90/152/61 91/153/61 92/154/61
f 93/155/62 94/156/62 95/157/62 96/158/62
f 92/154/63 91/153/63 96/159/63 95/160/63
f 94/153/64 93/158/64 90/161/64 89/159/64
f 94/162/65 89/151/65 92/154/65 95/163/65
f 90/152/66 93/155/66 96/158/66 91/153/66
o WING_T_A_2
v 0.353554 1.900000 -0.265165
v 0.265165 1.900000 -0.353553
v 0.265165 2.525000 -0.353553
v 0.353554 2.525000 -0.265165
v -0.353553 1.900000 0.265165
v -0.265165 1.900000 0.353553
v -0.265165 2.525000 0.353553
v -0.353553 2.525000 0.265165
vt 0.304688 0.812500
vt 0.320313 0.812500
vt 0.320313 0.890625
vt 0.304688 0.890625
vt 0.429688 0.812500
vt 0.445313 0.812500
vt 0.445313 0.890625
vt 0.429688 0.890625
vt 0.320313 1.000000
vt 0.304688 1.000000
vt 0.335938 0.890625
vt 0.335938 1.000000
vt 0.195313 0.812500
vt 0.195313 0.890625
vn 0.707100 0.000000 -0.707100
vn -0.707100 -0.000000 0.707100
vn 0.000000 1.000000 0.000000
vn 0.000000 -1.000000 -0.000000
vn 0.707100 -0.000000 0.707100
vn -0.707100 0.000000 -0.707100
usemtl Material
s off
f 97/164/67 98/165/67 99/166/67 100/167/67
f 101/168/68 102/169/68 103/170/68 104/171/68
f 100/167/69 99/166/69 104/172/69 103/173/69
f 102/166/70 101/174/70 98/175/70 97/172/70
f 102/176/71 97/164/71 100/167/71 103/177/71
f 98/165/72 101/168/72 104/171/72 99/166/72
o MAIN_MISSILE_MODULE
v 0.187500 -0.037500 -0.187500
v -0.187500 -0.037500 -0.187500
v -0.187500 3.087500 -0.187499
v 0.187500 3.087500 -0.187499
v -0.187500 -0.037500 0.187500
v 0.187500 -0.037500 0.187500
v 0.187500 3.087500 0.187501
v -0.187500 3.087500 0.187501
vt 0.046875 0.562500
vt 0.093750 0.562500
vt 0.093750 0.953125
vt 0.046875 0.953125
vt 0.140625 0.562500
vt 0.187500 0.562500
vt 0.187500 0.953125
vt 0.140625 0.953125
vt 0.093750 1.000000
vt 0.046875 1.000000
vt 0.140625 1.000000
vt 0.000000 0.562500
vt 0.000000 0.953125
vn 0.000000 0.000000 -1.000000
vn 0.000000 -0.000000 1.000000
vn 0.000000 1.000000 0.000000
vn 0.000000 -1.000000 -0.000000
vn 1.000000 0.000000 0.000000
vn -1.000000 0.000000 0.000000
usemtl Material
s off
f 105/178/73 106/179/73 107/180/73 108/181/73
f 109/182/74 110/183/74 111/184/74 112/185/74
f 108/181/75 107/180/75 112/186/75 111/187/75
f 110/180/76 109/185/76 106/188/76 105/186/76
f 110/189/77 105/178/77 108/181/77 111/190/77
f 106/179/78 109/182/78 112/185/78 107/180/78
