# Blender v2.76 (sub 0) OBJ File: 'cruise_launcher.blend'
# www.blender.org
mtllib cruise_launcher.mtl
o RAIL_1_ROT
v 0.220971 0.808471 -1.062500
v 0.044194 0.631694 -1.062500
v 0.000000 0.675888 -1.062500
v 0.176777 0.852665 -1.062500
v 0.044194 0.631694 0.062500
v 0.220971 0.808471 0.062500
v 0.176777 0.852665 0.062500
v 0.000000 0.675888 0.062500
vt 0.679688 0.750000
vt 0.679688 0.757813
vt 0.648438 0.757813
vt 0.851563 0.750000
vt 0.851563 0.757813
vt 0.820313 0.757813
vt 0.679688 0.898438
vt 0.648438 0.898438
vt 0.710938 0.757813
vt 0.710938 0.898438
vt 0.648438 0.750000
vt 0.507813 0.757813
vt 0.820313 0.750000
vt 0.507813 0.750000
vn 0.000000 0.000000 -1.000000
vn 0.000000 -0.000000 1.000000
vn -0.707100 0.707100 0.000000
vn 0.707100 -0.707100 -0.000000
vn 0.707100 0.707100 0.000000
vn -0.707100 -0.707100 -0.000000
usemtl Material
s off
f 2/1/1 3/2/1 4/3/1
f 6/4/2 7/5/2 8/6/2
f 3/2/3 8/7/3 7/8/3
f 6/2/4 5/9/4 2/10/4
f 1/11/5 4/3/5 7/12/5
f 5/13/6 8/6/6 3/2/6
f 1/11/1 2/1/1 4/3/1
f 5/13/2 6/4/2 8/6/2
f 4/3/3 3/2/3 7/8/3
f 1/7/4 6/2/4 2/10/4
f 6/14/5 1/11/5 7/12/5
f 2/1/6 5/13/6 3/2/6
o SUPPORT_3
v 1.000000 -0.037500 -1.000000
v 0.750000 -0.037500 -1.000000
v 0.750000 0.150000 -1.000000
v 1.000000 0.150000 -1.000000
v 0.750000 -0.037500 -0.750000
v 1.000000 -0.037500 -0.750000
v 1.000000 0.150000 -0.750000
v 0.750000 0.150000 -0.750000
vt 0.062500 0.726563
vt 0.062500 0.750000
vt 0.031250 0.750000
vt 0.125000 0.726563
vt 0.125000 0.750000
vt 0.093750 0.750000
vt 0.062500 0.781250
vt 0.031250 0.781250
vt 0.093750 0.781250
vt 0.031250 0.726563
vt 0.000000 0.750000
vt 0.093750 0.726563
vt 0.000000 0.726563
vn 0.000000 0.000000 -1.000000
vn 0.000000 0.000000 1.000000
vn 0.000000 1.000000 0.000000
vn 0.000000 -1.000000 -0.000000
vn 1.000000 0.000000 0.000000
vn -1.000000 0.000000 0.000000
usemtl Material
s off
f 10/15/7 11/16/7 12/17/7
f 14/18/8 15/19/8 16/20/8
f 11/16/9 16/21/9 15/22/9
f 13/20/10 10/23/10 9/21/10
f 9/24/11 12/17/11 15/25/11
f 13/26/12 16/20/12 11/16/12
f 9/24/7 10/15/7 12/17/7
f 13/26/8 14/18/8 16/20/8
f 12/17/9 11/16/9 15/22/9
f 14/16/10 13/20/10 9/21/10
f 14/27/11 9/24/11 15/25/11
f 10/15/12 13/26/12 11/16/12
o RAIL_2_ROT
v -0.176777 0.852665 -1.062500
v 0.000000 0.675888 -1.062500
v -0.044194 0.631694 -1.062500
v -0.220971 0.808471 -1.062500
v 0.000000 0.675888 0.062500
v -0.176777 0.852665 0.062500
v -0.220971 0.808471 0.062500
v -0.044194 0.631694 0.062500
vt 0.679688 0.750000
vt 0.679688 0.757813
vt 0.648438 0.757813
vt 0.851563 0.750000
vt 0.851563 0.757813
vt 0.820313 0.757813
vt 0.679688 0.898438
vt 0.648438 0.898438
vt 0.710938 0.757813
vt 0.710938 0.898438
vt 0.648438 0.750000
vt 0.507813 0.757813
vt 0.820313 0.750000
vt 0.507813 0.750000
vn 0.000000 0.000000 -1.000000
vn 0.000000 -0.000000 1.000000
vn -0.707100 -0.707100 -0.000000
vn 0.707100 0.707100 0.000000
vn -0.707100 0.707100 0.000000
vn 0.707100 -0.707100 -0.000000
usemtl Material
s off
f 18/28/13 19/29/13 20/30/13
f 22/31/14 23/32/14 24/33/14
f 19/29/15 24/34/15 23/35/15
f 22/29/16 21/36/16 18/37/16
f 17/38/17 20/30/17 23/39/17
f 18/28/18 21/40/18 24/33/18
f 17/38/13 18/28/13 20/30/13
f 21/40/14 22/31/14 24/33/14
f 20/30/15 19/29/15 23/35/15
f 17/34/16 22/29/16 18/37/16
f 22/41/17 17/38/17 23/39/17
f 19/29/18 18/28/18 24/33/18
o SUPPORT_5
v -0.750000 -0.037500 0.750000
v -1.000000 -0.037500 0.750000
v -1.000000 0.150000 0.750000
v -0.750000 0.150000 0.750000
v -1.000000 -0.037500 1.000000
v -0.750000 -0.037500 1.000000
v -0.750000 0.150000 1.000000
v -1.000000 0.150000 1.000000
vt 0.062500 0.726563
vt 0.062500 0.750000
vt 0.031250 0.750000
vt 0.125000 0.726563
vt 0.125000 0.750000
vt 0.093750 0.750000
vt 0.062500 0.781250
vt 0.031250 0.781250
vt 0.093750 0.781250
vt 0.031250 0.726563
vt 0.000000 0.750000
vt 0.093750 0.726563
vt 0.000000 0.726563
vn 0.000000 0.000000 -1.000000
vn 0.000000 0.000000 1.000000
vn 0.000000 1.000000 0.000000
vn 0.000000 -1.000000 -0.000000
vn 1.000000 0.000000 0.000000
vn -1.000000 0.000000 0.000000
usemtl Material
s off
f 26/42/19 27/43/19 28/44/19
f 30/45/20 31/46/20 32/47/20
f 27/43/21 32/48/21 31/49/21
f 29/47/22 26/50/22 25/48/22
f 25/51/23 28/44/23 31/52/23
f 26/42/24 29/53/24 32/47/24
f 25/51/19 26/42/19 28/44/19
f 29/53/20 30/45/20 32/47/20
f 28/44/21 27/43/21 31/49/21
f 30/43/22 29/47/22 25/48/22
f 30/54/23 25/51/23 31/52/23
f 27/43/24 26/42/24 32/47/24
o MAIN_BODY
v 0.187500 -0.037500 -0.187500
v -0.187500 -0.037500 -0.187500
v -0.187500 0.212500 -0.187500
v 0.187500 0.212500 -0.187500
v -0.187500 -0.037500 0.187500
v 0.187500 -0.037500 0.187500
v 0.187500 0.212500 0.187500
v -0.187500 0.212500 0.187500
vt 0.093750 0.562500
vt 0.093750 0.593750
vt 0.046875 0.593750
vt 0.187500 0.562500
vt 0.187500 0.593750
vt 0.140625 0.593750
vt 0.093750 0.640625
vt 0.046875 0.640625
vt 0.140625 0.640625
vt 0.046875 0.562500
vt 0.000000 0.593750
vt 0.140625 0.562500
vt 0.000000 0.562500
vn 0.000000 0.000000 -1.000000
vn 0.000000 -0.000000 1.000000
vn 0.000000 1.000000 0.000000
vn 0.000000 -1.000000 -0.000000
vn 1.000000 0.000000 0.000000
vn -1.000000 -0.000000 0.000000
usemtl Material
s off
f 34/55/25 35/56/25 36/57/25
f 38/58/26 39/59/26 40/60/26
f 35/56/27 40/61/27 39/62/27
f 37/60/28 34/63/28 33/61/28
f 33/64/29 36/57/29 39/65/29
f 34/55/30 37/66/30 40/60/30
f 33/64/25 34/55/25 36/57/25
f 37/66/26 38/58/26 40/60/26
f 36/57/27 35/56/27 39/62/27
f 38/56/28 37/60/28 33/61/28
f 38/67/29 33/64/29 39/65/29
f 35/56/30 34/55/30 40/60/30
o TORQUE_SUPPORT_ROT
v 0.125000 0.525000 -0.125000
v -0.125000 0.525000 -0.125000
v -0.125000 0.650000 -0.125000
v 0.125000 0.650000 -0.125000
v -0.125000 0.525000 0.125000
v 0.125000 0.525000 0.125000
v 0.125000 0.650000 0.125000
v -0.125000 0.650000 0.125000
vt 0.429688 0.820313
vt 0.429688 0.835938
vt 0.398438 0.835938
vt 0.492188 0.820313
vt 0.492188 0.835938
vt 0.460938 0.835938
vt 0.429688 0.867188
vt 0.398438 0.867188
vt 0.460938 0.867188
vt 0.367188 0.820313
vt 0.398438 0.820313
vt 0.460938 0.820313
vt 0.367188 0.835938
vn 0.000000 0.000000 -1.000000
vn 0.000000 -0.000000 1.000000
vn 0.000000 1.000000 0.000000
vn 0.000000 -1.000000 0.000000
vn 1.000000 -0.000000 0.000000
vn -1.000000 0.000000 0.000000
usemtl Material
s off
f 42/68/31 43/69/31 44/70/31
f 46/71/32 47/72/32 48/73/32
f 43/69/33 48/74/33 47/75/33
f 45/73/34 42/76/34 41/74/34
f 46/77/35 41/78/35 44/70/35
f 45/79/36 48/73/36 43/69/36
f 41/78/31 42/68/31 44/70/31
f 45/79/32 46/71/32 48/73/32
f 44/70/33 43/69/33 47/75/33
f 46/69/34 45/73/34 41/74/34
f 47/80/35 46/77/35 44/70/35
f 42/68/36 45/79/36 43/69/36
o COUNTERBALANCE_1_ROT
v -0.062500 0.587500 0.062500
v -0.312500 0.587500 0.062500
v -0.312500 0.837500 0.062500
v -0.062500 0.837500 0.062500
v -0.312500 0.587500 0.562500
v -0.062500 0.587500 0.562500
v -0.062500 0.837500 0.562500
v -0.312500 0.837500 0.562500
vt 0.750000 0.906250
vt 0.750000 0.937500
vt 0.718750 0.937500
vt 0.843750 0.906250
vt 0.843750 0.937500
vt 0.812500 0.937500
vt 0.750000 1.000000
vt 0.718750 1.000000
vt 0.781250 0.937500
vt 0.781250 1.000000
vt 0.718750 0.906250
vt 0.656250 0.937500
vt 0.812500 0.906250
vt 0.656250 0.906250
vn 0.000000 0.000000 -1.000000
vn 0.000000 0.000000 1.000000
vn 0.000000 1.000000 0.000000
vn 0.000000 -1.000000 -0.000000
vn 1.000000 0.000000 0.000000
vn -1.000000 0.000000 0.000000
usemtl Material
s off
f 50/81/37 51/82/37 52/83/37
f 54/84/38 55/85/38 56/86/38
f 51/82/39 56/87/39 55/88/39
f 53/89/40 50/90/40 49/87/40
f 49/91/41 52/83/41 55/92/41
f 50/81/42 53/93/42 56/86/42
f 49/91/37 50/81/37 52/83/37
f 53/93/38 54/84/38 56/86/38
f 52/83/39 51/82/39 55/88/39
f 54/82/40 53/89/40 49/87/40
f 54/94/41 49/91/41 55/92/41
f 51/82/42 50/81/42 56/86/42
o CLAMP_1_ROT
v -0.265165 0.826777 -1.062500
v 0.000000 1.091942 -1.062500
v 0.265165 0.826777 -1.062500
v 0.000000 0.561612 -1.062500
v 0.000000 1.091942 -1.000000
v -0.265165 0.826777 -1.000000
v 0.000000 0.561612 -1.000000
v 0.265165 0.826777 -1.000000
vt 0.210938 0.945313
vt 0.210938 0.992188
vt 0.164063 0.992188
vt 0.218750 0.945313
vt 0.265625 0.945313
vt 0.265625 0.992188
vt 0.210938 1.000000
vt 0.164063 1.000000
vt 0.257813 0.992188
vt 0.257813 1.000000
vt 0.164063 0.945313
vt 0.156250 0.992188
vt 0.218750 0.992188
vt 0.156250 0.945313
vn 0.000000 0.000000 -1.000000
vn 0.000000 -0.000000 1.000000
vn 0.707100 -0.707100 0.000000
vn -0.707100 0.707100 0.000000
vn -0.707100 -0.707100 0.000000
vn 0.707100 0.707100 0.000000
usemtl Material
s off
f 58/95/43 59/96/43 60/97/43
f 61/98/44 62/99/44 63/100/44
f 59/96/45 64/101/45 63/102/45
f 61/103/46 58/104/46 57/101/46
f 57/105/47 60/97/47 63/106/47
f 61/98/48 64/107/48 59/96/48
f 57/105/43 58/95/43 60/97/43
f 64/107/44 61/98/44 63/100/44
f 60/97/45 59/96/45 63/102/45
f 62/96/46 61/103/46 57/101/46
f 62/108/47 57/105/47 63/106/47
f 58/95/48 61/98/48 59/96/48
o CLAMP_2_ROT
v -0.265165 0.826777 0.000000
v 0.000000 1.091942 0.000000
v 0.265165 0.826777 0.000000
v 0.000000 0.561612 0.000000
v 0.000000 1.091942 0.062500
v -0.265165 0.826777 0.062500
v 0.000000 0.561612 0.062500
v 0.265165 0.826777 0.062500
vt 0.210938 0.945313
vt 0.210938 0.992188
vt 0.164063 0.992188
vt 0.218750 0.945313
vt 0.265625 0.945313
vt 0.265625 0.992188
vt 0.210938 1.000000
vt 0.164063 1.000000
vt 0.257813 0.992188
vt 0.257813 1.000000
vt 0.164063 0.945313
vt 0.156250 0.992188
vt 0.218750 0.992188
vt 0.156250 0.945313
vn 0.000000 0.000000 -1.000000
vn 0.000000 -0.000000 1.000000
vn 0.707100 -0.707100 0.000000
vn -0.707100 0.707100 0.000000
vn -0.707100 -0.707100 0.000000
vn 0.707100 0.707100 0.000000
usemtl Material
s off
f 66/109/49 67/110/49 68/111/49
f 69/112/50 70/113/50 71/114/50
f 67/110/51 72/115/51 71/116/51
f 69/117/52 66/118/52 65/115/52
f 65/119/53 68/111/53 71/120/53
f 69/112/54 72/121/54 67/110/54
f 65/119/49 66/109/49 68/111/49
f 72/121/50 69/112/50 71/114/50
f 68/111/51 67/110/51 71/116/51
f 70/110/52 69/117/52 65/115/52
f 70/122/53 65/119/53 71/120/53
f 66/109/54 69/112/54 67/110/54
o CrossBeamB_SUPPORT_1
v 0.972272 0.097500 -0.883883
v 0.883883 0.097500 -0.972272
v 0.883883 0.160000 -0.972272
v 0.972272 0.160000 -0.883883
v -0.972272 0.097500 0.883883
v -0.883883 0.097500 0.972272
v -0.883883 0.160000 0.972272
v -0.972272 0.160000 0.883883
vt 0.343750 0.664063
vt 0.343750 0.671875
vt 0.328125 0.671875
vt 0.671875 0.664063
vt 0.687500 0.664063
vt 0.687500 0.671875
vt 0.343750 1.000000
vt 0.359375 0.671875
vt 0.359375 1.000000
vt 0.328125 0.664063
vt 0.000000 0.671875
vt 0.671875 0.671875
vt 0.328125 1.000000
vt 0.000000 0.664063
vn 0.707100 0.000000 -0.707100
vn -0.707100 0.000000 0.707100
vn -0.000000 1.000000 0.000000
vn -0.000000 -1.000000 -0.000000
vn 0.707100 0.000000 0.707100
vn -0.707100 0.000000 -0.707100
usemtl Material
s off
f 74/123/55 75/124/55 76/125/55
f 77/126/56 78/127/56 79/128/56
f 76/125/57 75/124/57 80/129/57
f 78/124/58 77/130/58 74/131/58
f 73/132/59 76/125/59 79/133/59
f 77/126/60 80/134/60 75/124/60
f 73/132/55 74/123/55 76/125/55
f 80/134/56 77/126/56 79/128/56
f 79/135/57 76/125/57 80/129/57
f 73/129/58 78/124/58 74/131/58
f 78/136/59 73/132/59 79/133/59
f 74/123/60 77/126/60 75/124/60
o TORQUE_ROT
v 0.088388 0.337500 0.000000
v 0.000000 0.337500 -0.088388
v 0.000000 0.587500 -0.088388
v 0.088388 0.587500 0.000000
v -0.088388 0.337500 0.000000
v 0.000000 0.337500 0.088388
v 0.000000 0.587500 0.088388
v -0.088388 0.587500 0.000000
vt 0.015625 0.421875
vt 0.031250 0.421875
vt 0.031250 0.453125
vt 0.062500 0.421875
vt 0.062500 0.453125
vt 0.046875 0.453125
vt 0.031250 0.468750
vt 0.015625 0.468750
vt 0.046875 0.468750
vt 0.000000 0.421875
vt 0.015625 0.453125
vt 0.046875 0.421875
vt 0.000000 0.453125
vn 0.707100 0.000000 -0.707100
vn -0.707100 -0.000000 0.707100
vn 0.000000 1.000000 0.000000
vn 0.000000 -1.000000 0.000000
vn 0.707100 -0.000000 0.707100
vn -0.707100 0.000000 -0.707100
usemtl Material
s off
f 81/137/61 82/138/61 83/139/61
f 86/140/62 87/141/62 88/142/62
f 83/139/63 88/143/63 87/144/63
f 85/142/64 82/145/64 81/143/64
f 86/146/65 81/137/65 84/147/65
f 85/148/66 88/142/66 83/139/66
f 84/147/61 81/137/61 83/139/61
f 85/148/62 86/140/62 88/142/62
f 84/147/63 83/139/63 87/144/63
f 86/139/64 85/142/64 81/143/64
f 87/149/65 86/146/65 84/147/65
f 82/138/66 85/148/66 83/139/66
o MAIN_SUPPORT
v 0.125000 0.212500 -0.125000
v -0.125000 0.212500 -0.125000
v -0.125000 0.337500 -0.125000
v 0.125000 0.337500 -0.125000
v -0.125000 0.212500 0.125000
v 0.125000 0.212500 0.125000
v 0.125000 0.337500 0.125000
v -0.125000 0.337500 0.125000
vt 0.062500 0.492188
vt 0.062500 0.507813
vt 0.031250 0.507813
vt 0.125000 0.492188
vt 0.125000 0.507813
vt 0.093750 0.507813
vt 0.062500 0.539063
vt 0.031250 0.539063
vt 0.093750 0.539063
vt 0.031250 0.492188
vt 0.000000 0.507813
vt 0.093750 0.492188
vt 0.000000 0.492188
vn 0.000000 0.000000 -1.000000
vn 0.000000 -0.000000 1.000000
vn 0.000000 1.000000 0.000000
vn 0.000000 -1.000000 -0.000000
vn 1.000000 0.000000 0.000000
vn -1.000000 0.000000 0.000000
usemtl Material
s off
f 90/150/67 91/151/67 92/152/67
f 94/153/68 95/154/68 96/155/68
f 91/151/69 96/156/69 95/157/69
f 93/155/70 90/158/70 89/156/70
f 89/159/71 92/152/71 95/160/71
f 93/161/72 96/155/72 91/151/72
f 89/159/67 90/150/67 92/152/67
f 93/161/68 94/153/68 96/155/68
f 92/152/69 91/151/69 95/157/69
f 94/151/70 93/155/70 89/156/70
f 94/162/71 89/159/71 95/160/71
f 90/150/72 93/161/72 91/151/72
o SUPPORT_6
v 1.000000 -0.037500 0.750000
v 0.750000 -0.037500 0.750000
v 0.750000 0.150000 0.750000
v 1.000000 0.150000 0.750000
v 0.750000 -0.037500 1.000000
v 1.000000 -0.037500 1.000000
v 1.000000 0.150000 1.000000
v 0.750000 0.150000 1.000000
vt 0.062500 0.726563
vt 0.062500 0.750000
vt 0.031250 0.750000
vt 0.125000 0.726563
vt 0.125000 0.750000
vt 0.093750 0.750000
vt 0.062500 0.781250
vt 0.031250 0.781250
vt 0.093750 0.781250
vt 0.031250 0.726563
vt 0.000000 0.750000
vt 0.093750 0.726563
vt 0.000000 0.726563
vn 0.000000 0.000000 -1.000000
vn 0.000000 0.000000 1.000000
vn 0.000000 1.000000 0.000000
vn 0.000000 -1.000000 -0.000000
vn 1.000000 0.000000 0.000000
vn -1.000000 0.000000 0.000000
usemtl Material
s off
f 98/163/73 99/164/73 100/165/73
f 102/166/74 103/167/74 104/168/74
f 99/164/75 104/169/75 103/170/75
f 101/168/76 98/171/76 97/169/76
f 97/172/77 100/165/77 103/173/77
f 98/163/78 101/174/78 104/168/78
f 97/172/73 98/163/73 100/165/73
f 101/174/74 102/166/74 104/168/74
f 100/165/75 99/164/75 103/170/75
f 102/164/76 101/168/76 97/169/76
f 102/175/77 97/172/77 103/173/77
f 99/164/78 98/163/78 104/168/78
o CrossBeamA_SUPPORT_2
v 0.883883 0.097500 0.972272
v 0.972272 0.097500 0.883883
v 0.972272 0.160000 0.883883
v 0.883883 0.160000 0.972272
v -0.883883 0.097500 -0.972272
v -0.972272 0.097500 -0.883883
v -0.972272 0.160000 -0.883883
v -0.883883 0.160000 -0.972272
vt 0.343750 0.664063
vt 0.343750 0.671875
vt 0.328125 0.671875
vt 0.687500 0.664063
vt 0.687500 0.671875
vt 0.671875 0.671875
vt 0.343750 1.000000
vt 0.359375 0.671875
vt 0.359375 1.000000
vt 0.328125 0.664063
vt 0.000000 0.671875
vt 0.671875 0.664063
vt 0.328125 1.000000
vt 0.000000 0.664063
vn 0.707100 0.000000 0.707100
vn -0.707100 0.000000 -0.707100
vn 0.000000 1.000000 0.000000
vn 0.000000 -1.000000 -0.000000
vn -0.707100 0.000000 0.707100
vn 0.707100 0.000000 -0.707100
usemtl Material
s off
f 106/176/79 107/177/79 108/178/79
f 110/179/80 111/180/80 112/181/80
f 108/178/81 107/177/81 112/182/81
f 110/177/82 109/183/82 106/184/82
f 105/185/83 108/178/83 111/186/83
f 109/187/84 112/181/84 107/177/84
f 105/185/79 106/176/79 108/178/79
f 109/187/80 110/179/80 112/181/80
f 111/188/81 108/178/81 112/182/81
f 105/182/82 110/177/82 106/184/82
f 110/189/83 105/185/83 111/186/83
f 106/176/84 109/187/84 107/177/84
o SUPPORT_4
v -0.750000 -0.037500 -1.000000
v -1.000000 -0.037500 -1.000000
v -1.000000 0.150000 -1.000000
v -0.750000 0.150000 -1.000000
v -1.000000 -0.037500 -0.750000
v -0.750000 -0.037500 -0.750000
v -0.750000 0.150000 -0.750000
v -1.000000 0.150000 -0.750000
vt 0.062500 0.726563
vt 0.062500 0.750000
vt 0.031250 0.750000
vt 0.125000 0.726563
vt 0.125000 0.750000
vt 0.093750 0.750000
vt 0.062500 0.781250
vt 0.031250 0.781250
vt 0.093750 0.781250
vt 0.031250 0.726563
vt 0.000000 0.750000
vt 0.093750 0.726563
vt 0.000000 0.726563
vn 0.000000 0.000000 -1.000000
vn 0.000000 0.000000 1.000000
vn 0.000000 1.000000 0.000000
vn 0.000000 -1.000000 -0.000000
vn 1.000000 0.000000 0.000000
vn -1.000000 0.000000 0.000000
usemtl Material
s off
f 114/190/85 115/191/85 116/192/85
f 118/193/86 119/194/86 120/195/86
f 115/191/87 120/196/87 119/197/87
f 117/195/88 114/198/88 113/196/88
f 113/199/89 116/192/89 119/200/89
f 117/201/90 120/195/90 115/191/90
f 113/199/85 114/190/85 116/192/85
f 117/201/86 118/193/86 120/195/86
f 116/192/87 115/191/87 119/197/87
f 118/191/88 117/195/88 113/196/88
f 118/202/89 113/199/89 119/200/89
f 114/190/90 117/201/90 115/191/90
o COUNTERBALANCE_2_ROT
v 0.312500 0.587500 0.062500
v 0.062500 0.587500 0.062500
v 0.062500 0.837500 0.062500
v 0.312500 0.837500 0.062500
v 0.062500 0.587500 0.562500
v 0.312500 0.587500 0.562500
v 0.312500 0.837500 0.562500
v 0.062500 0.837500 0.562500
vt 0.750000 0.906250
vt 0.750000 0.937500
vt 0.718750 0.937500
vt 0.843750 0.906250
vt 0.843750 0.937500
vt 0.812500 0.937500
vt 0.750000 1.000000
vt 0.718750 1.000000
vt 0.781250 0.937500
vt 0.781250 1.000000
vt 0.718750 0.906250
vt 0.656250 0.937500
vt 0.812500 0.906250
vt 0.656250 0.906250
vn 0.000000 0.000000 -1.000000
vn 0.000000 0.000000 1.000000
vn 0.000000 1.000000 0.000000
vn 0.000000 -1.000000 -0.000000
vn 1.000000 -0.000000 0.000000
vn -1.000000 0.000000 0.000000
usemtl Material
s off
f 122/203/91 123/204/91 124/205/91
f 126/206/92 127/207/92 128/208/92
f 123/204/93 128/209/93 127/210/93
f 125/211/94 122/212/94 121/209/94
f 121/213/95 124/205/95 127/214/95
f 122/203/96 125/215/96 128/208/96
f 121/213/91 122/203/91 124/205/91
f 125/215/92 126/206/92 128/208/92
f 124/205/93 123/204/93 127/210/93
f 126/204/94 125/211/94 121/209/94
f 126/216/95 121/213/95 127/214/95
f 123/204/96 122/203/96 128/208/96
