# Blender v2.76 (sub 0) OBJ File: 'emp_tower.blend'
# www.blender.org
mtllib emp_tower.mtl
o Base
v 0.500000 0.000130 -0.500000
v -0.500000 0.000130 -0.500000
v -0.500000 0.375130 -0.500000
v 0.500000 0.375130 -0.500000
v -0.500000 0.000130 0.500000
v 0.500000 0.000130 0.500000
v 0.500000 0.375130 0.500000
v -0.500000 0.375130 0.500000
vt 0.250000 0.828125
vt 0.250000 0.875000
vt 0.125000 0.875000
vt 0.500000 0.828125
vt 0.500000 0.875000
vt 0.375000 0.875000
vt 0.250000 1.000000
vt 0.125000 1.000000
vt 0.375000 1.000000
vt 0.125000 0.828125
vt 0.000000 0.875000
vt 0.375000 0.828125
vt 0.000000 0.828125
vn 0.000000 0.000000 -1.000000
vn 0.000000 -0.000000 1.000000
vn 0.000000 1.000000 0.000000
vn 0.000000 -1.000000 -0.000000
vn 1.000000 -0.000000 0.000000
vn -1.000000 0.000000 0.000000
usemtl Material
s off
f 2/1/1 3/2/1 4/3/1
f 6/4/2 7/5/2 8/6/2
f 3/2/3 8/7/3 7/8/3
f 5/6/4 2/9/4 1/7/4
f 1/10/5 4/3/5 7/11/5
f 5/12/6 8/6/6 3/2/6
f 1/10/1 2/1/1 4/3/1
f 5/12/2 6/4/2 8/6/2
f 4/3/3 3/2/3 7/8/3
f 6/2/4 5/6/4 1/7/4
f 6/13/5 1/10/5 7/11/5
f 2/1/6 5/12/6 3/2/6
o Support
v 0.312500 0.375130 -0.312500
v -0.312500 0.375130 -0.312500
v -0.312500 0.875130 -0.312500
v 0.312500 0.875130 -0.312500
v -0.312500 0.375130 0.312500
v 0.312500 0.375130 0.312500
v 0.312500 0.875130 0.312500
v -0.312500 0.875130 0.312500
vt 0.156250 0.671875
vt 0.156250 0.734375
vt 0.078125 0.734375
vt 0.312500 0.671875
vt 0.312500 0.734375
vt 0.234375 0.734375
vt 0.156250 0.812500
vt 0.078125 0.812500
vt 0.234375 0.812500
vt 0.078125 0.671875
vt 0.000000 0.734375
vt 0.234375 0.671875
vt 0.000000 0.671875
vn 0.000000 0.000000 -1.000000
vn 0.000000 -0.000000 1.000000
vn 0.000000 1.000000 0.000000
vn 0.000000 -1.000000 -0.000000
vn 1.000000 0.000000 0.000000
vn -1.000000 0.000000 0.000000
usemtl Material
s off
f 10/14/7 11/15/7 12/16/7
f 14/17/8 15/18/8 16/19/8
f 11/15/9 16/20/9 15/21/9
f 13/19/10 10/22/10 9/20/10
f 9/23/11 12/16/11 15/24/11
f 13/25/12 16/19/12 11/15/12
f 9/23/7 10/14/7 12/16/7
f 13/25/8 14/17/8 16/19/8
f 12/16/9 11/15/9 15/21/9
f 14/15/10 13/19/10 9/20/10
f 14/26/11 9/23/11 15/24/11
f 10/14/12 13/25/12 11/15/12
o Main_Coil
v 0.125000 1.125130 -0.125000
v -0.125000 1.125130 -0.125000
v -0.125000 1.812630 -0.125000
v 0.125000 1.812630 -0.125000
v -0.125000 1.125130 0.125000
v 0.125000 1.125130 0.125000
v 0.125000 1.812630 0.125000
v -0.125000 1.812630 0.125000
vt 0.578125 0.882813
vt 0.578125 0.968750
vt 0.546875 0.968750
vt 0.640625 0.882813
vt 0.640625 0.968750
vt 0.609375 0.968750
vt 0.578125 1.000000
vt 0.546875 1.000000
vt 0.609375 1.000000
vt 0.546875 0.882813
vt 0.515625 0.968750
vt 0.609375 0.882813
vt 0.515625 0.882813
vn 0.000000 0.000000 -1.000000
vn 0.000000 -0.000000 1.000000
vn 0.000000 1.000000 0.000000
vn 0.000000 -1.000000 0.000000
vn 1.000000 0.000000 0.000000
vn -1.000000 -0.000000 0.000000
usemtl Material
s off
f 18/27/13 19/28/13 20/29/13
f 22/30/14 23/31/14 24/32/14
f 19/28/15 24/33/15 23/34/15
f 21/32/16 18/35/16 17/33/16
f 17/36/17 20/29/17 23/37/17
f 21/38/18 24/32/18 19/28/18
f 17/36/13 18/27/13 20/29/13
f 21/38/14 22/30/14 24/32/14
f 20/29/15 19/28/15 23/34/15
f 22/28/16 21/32/16 17/33/16
f 22/39/17 17/36/17 23/37/17
f 18/27/18 21/38/18 19/28/18
o Turret_Support
v 0.618719 0.875130 0.000000
v 0.000000 0.875130 -0.618718
v 0.000000 0.937630 -0.618718
v 0.618719 0.937630 0.000000
v -0.618718 0.875130 0.000000
v 0.000000 0.875130 0.618718
v 0.000000 0.937630 0.618718
v -0.618718 0.937630 0.000000
vt 0.218750 0.539063
vt 0.218750 0.546875
vt 0.109375 0.546875
vt 0.437500 0.539063
vt 0.437500 0.546875
vt 0.328125 0.546875
vt 0.218750 0.656250
vt 0.109375 0.656250
vt 0.328125 0.656250
vt 0.109375 0.539063
vt 0.000000 0.546875
vt 0.328125 0.539063
vt 0.000000 0.539063
vn 0.707100 0.000000 -0.707100
vn -0.707100 0.000000 0.707100
vn 0.000000 1.000000 0.000000
vn 0.000000 -1.000000 -0.000000
vn 0.707100 0.000000 0.707100
vn -0.707100 0.000000 -0.707100
usemtl Material
s off
f 26/40/19 27/41/19 28/42/19
f 30/43/20 31/44/20 32/45/20
f 27/41/21 32/46/21 31/47/21
f 30/41/22 29/45/22 26/48/22
f 25/49/23 28/42/23 31/50/23
f 29/51/24 32/45/24 27/41/24
f 25/49/19 26/40/19 28/42/19
f 29/51/20 30/43/20 32/45/20
f 28/42/21 27/41/21 31/47/21
f 25/46/22 30/41/22 26/48/22
f 30/52/23 25/49/23 31/50/23
f 26/40/24 29/51/24 27/41/24
o Support_Beam_DB2
v 0.062500 1.625130 -0.500000
v -0.062500 1.625130 -0.500000
v -0.062500 1.687630 -0.500000
v 0.062500 1.687630 -0.500000
v -0.062500 1.625130 0.500000
v 0.062500 1.625130 0.500000
v 0.062500 1.687630 0.500000
v -0.062500 1.687630 0.500000
vt 0.804688 0.867188
vt 0.804688 0.875000
vt 0.789063 0.875000
vt 0.945313 0.867188
vt 0.945313 0.875000
vt 0.929688 0.875000
vt 0.804688 1.000000
vt 0.789063 1.000000
vt 0.820313 0.875000
vt 0.820313 1.000000
vt 0.664063 0.867188
vt 0.789063 0.867188
vt 0.929688 0.867188
vt 0.664063 0.875000
vn 0.000000 0.000000 -1.000000
vn 0.000000 -0.000000 1.000000
vn 0.000000 1.000000 0.000000
vn 0.000000 -1.000000 -0.000000
vn 1.000000 0.000000 0.000000
vn -1.000000 0.000000 0.000000
usemtl Material
s off
f 34/53/25 35/54/25 36/55/25
f 38/56/26 39/57/26 40/58/26
f 35/54/27 40/59/27 39/60/27
f 37/61/28 34/62/28 33/59/28
f 38/63/29 33/64/29 36/55/29
f 37/65/30 40/58/30 35/54/30
f 33/64/25 34/53/25 36/55/25
f 37/65/26 38/56/26 40/58/26
f 36/55/27 35/54/27 39/60/27
f 38/54/28 37/61/28 33/59/28
f 39/66/29 38/63/29 36/55/29
f 34/53/30 37/65/30 35/54/30
o Support_Beam_CA2
v 0.500000 1.625130 -0.062500
v -0.500000 1.625130 -0.062500
v -0.500000 1.687630 -0.062500
v 0.500000 1.687630 -0.062500
v -0.500000 1.625130 0.062500
v 0.500000 1.625130 0.062500
v 0.500000 1.687630 0.062500
v -0.500000 1.687630 0.062500
vt 0.804688 0.828125
vt 0.804688 0.835938
vt 0.679688 0.835938
vt 0.945313 0.828125
vt 0.945313 0.835938
vt 0.820313 0.835938
vt 0.804688 0.851563
vt 0.679688 0.851563
vt 0.929688 0.835938
vt 0.929688 0.851563
vt 0.664063 0.828125
vt 0.679688 0.828125
vt 0.820313 0.828125
vt 0.664063 0.835938
vn 0.000000 0.000000 -1.000000
vn 0.000000 -0.000000 1.000000
vn 0.000000 1.000000 0.000000
vn 0.000000 -1.000000 0.000000
vn 1.000000 -0.000000 0.000000
vn -1.000000 0.000000 0.000000
usemtl Material
s off
f 42/67/31 43/68/31 44/69/31
f 46/70/32 47/71/32 48/72/32
f 43/68/33 48/73/33 47/74/33
f 45/75/34 42/76/34 41/73/34
f 46/77/35 41/78/35 44/69/35
f 45/79/36 48/72/36 43/68/36
f 41/78/31 42/67/31 44/69/31
f 45/79/32 46/70/32 48/72/32
f 44/69/33 43/68/33 47/74/33
f 46/68/34 45/75/34 41/73/34
f 47/80/35 46/77/35 44/69/35
f 42/67/36 45/79/36 43/68/36
o Support_Beam_C1
v 0.562500 0.875130 -0.062500
v 0.500000 0.875130 -0.062500
v 0.500000 2.000130 -0.062500
v 0.562500 2.000130 -0.062500
v 0.500000 0.875130 0.062500
v 0.562500 0.875130 0.062500
v 0.562500 2.000130 0.062500
v 0.500000 2.000130 0.062500
vt 0.539063 0.718750
vt 0.539063 0.859375
vt 0.531250 0.859375
vt 0.562500 0.718750
vt 0.562500 0.859375
vt 0.554688 0.859375
vt 0.539063 0.875000
vt 0.531250 0.875000
vt 0.546875 0.859375
vt 0.546875 0.875000
vt 0.531250 0.718750
vt 0.515625 0.859375
vt 0.554688 0.718750
vt 0.515625 0.718750
vn 0.000000 0.000000 -1.000000
vn 0.000000 -0.000000 1.000000
vn 0.000000 1.000000 0.000000
vn 0.000000 -1.000000 0.000000
vn 1.000000 0.000000 0.000000
vn -1.000000 0.000000 0.000000
usemtl Material
s off
f 50/81/37 51/82/37 52/83/37
f 54/84/38 55/85/38 56/86/38
f 51/82/39 56/87/39 55/88/39
f 53/89/40 50/90/40 49/87/40
f 49/91/41 52/83/41 55/92/41
f 53/93/42 56/86/42 51/82/42
f 49/91/37 50/81/37 52/83/37
f 53/93/38 54/84/38 56/86/38
f 52/83/39 51/82/39 55/88/39
f 54/82/40 53/89/40 49/87/40
f 54/94/41 49/91/41 55/92/41
f 50/81/42 53/93/42 51/82/42
o Support_Beam_B1
v 0.062500 0.875130 -0.562500
v -0.062500 0.875130 -0.562500
v -0.062500 2.000130 -0.562500
v 0.062500 2.000130 -0.562500
v -0.062500 0.875130 -0.500000
v 0.062500 0.875130 -0.500000
v 0.062500 2.000130 -0.500000
v -0.062500 2.000130 -0.500000
vt 0.593750 0.726563
vt 0.593750 0.867188
vt 0.578125 0.867188
vt 0.617188 0.726563
vt 0.617188 0.867188
vt 0.601563 0.867188
vt 0.593750 0.875000
vt 0.578125 0.875000
vt 0.609375 0.867188
vt 0.609375 0.875000
vt 0.570313 0.726563
vt 0.578125 0.726563
vt 0.601563 0.726563
vt 0.570313 0.867188
vn 0.000000 0.000000 -1.000000
vn 0.000000 -0.000000 1.000000
vn 0.000000 1.000000 0.000000
vn 0.000000 -1.000000 -0.000000
vn 1.000000 0.000000 0.000000
vn -1.000000 0.000000 0.000000
usemtl Material
s off
f 58/95/43 59/96/43 60/97/43
f 62/98/44 63/99/44 64/100/44
f 59/96/45 64/101/45 63/102/45
f 61/103/46 58/104/46 57/101/46
f 62/105/47 57/106/47 60/97/47
f 61/107/48 64/100/48 59/96/48
f 57/106/43 58/95/43 60/97/43
f 61/107/44 62/98/44 64/100/44
f 60/97/45 59/96/45 63/102/45
f 62/96/46 61/103/46 57/101/46
f 63/108/47 62/105/47 60/97/47
f 58/95/48 61/107/48 59/96/48
o Support_Beam_A1
v -0.500000 0.875130 -0.062500
v -0.562500 0.875130 -0.062500
v -0.562500 2.000130 -0.062500
v -0.500000 2.000130 -0.062500
v -0.562500 0.875130 0.062500
v -0.500000 0.875130 0.062500
v -0.500000 2.000130 0.062500
v -0.562500 2.000130 0.062500
vt 0.539063 0.718750
vt 0.539063 0.859375
vt 0.531250 0.859375
vt 0.562500 0.718750
vt 0.562500 0.859375
vt 0.554688 0.859375
vt 0.539063 0.875000
vt 0.531250 0.875000
vt 0.546875 0.859375
vt 0.546875 0.875000
vt 0.531250 0.718750
vt 0.515625 0.859375
vt 0.554688 0.718750
vt 0.515625 0.718750
vn 0.000000 0.000000 -1.000000
vn 0.000000 -0.000000 1.000000
vn 0.000000 1.000000 0.000000
vn 0.000000 -1.000000 0.000000
vn 1.000000 0.000000 0.000000
vn -1.000000 0.000000 0.000000
usemtl Material
s off
f 66/109/49 67/110/49 68/111/49
f 70/112/50 71/113/50 72/114/50
f 67/110/51 72/115/51 71/116/51
f 69/117/52 66/118/52 65/115/52
f 65/119/53 68/111/53 71/120/53
f 69/121/54 72/114/54 67/110/54
f 65/119/49 66/109/49 68/111/49
f 69/121/50 70/112/50 72/114/50
f 68/111/51 67/110/51 71/116/51
f 70/110/52 69/117/52 65/115/52
f 70/122/53 65/119/53 71/120/53
f 66/109/54 69/121/54 67/110/54
o Support_Beam_CA1
v 0.500000 1.250130 -0.062500
v -0.500000 1.250130 -0.062500
v -0.500000 1.312630 -0.062500
v 0.500000 1.312630 -0.062500
v -0.500000 1.250130 0.062500
v 0.500000 1.250130 0.062500
v 0.500000 1.312630 0.062500
v -0.500000 1.312630 0.062500
vt 0.804688 0.828125
vt 0.804688 0.835938
vt 0.679688 0.835938
vt 0.945313 0.828125
vt 0.945313 0.835938
vt 0.820313 0.835938
vt 0.804688 0.851563
vt 0.679688 0.851563
vt 0.929688 0.835938
vt 0.929688 0.851563
vt 0.664063 0.828125
vt 0.679688 0.828125
vt 0.820313 0.828125
vt 0.664063 0.835938
vn 0.000000 0.000000 -1.000000
vn 0.000000 -0.000000 1.000000
vn 0.000000 1.000000 0.000000
vn 0.000000 -1.000000 0.000000
vn 1.000000 -0.000000 0.000000
vn -1.000000 0.000000 0.000000
usemtl Material
s off
f 74/123/55 75/124/55 76/125/55
f 78/126/56 79/127/56 80/128/56
f 75/124/57 80/129/57 79/130/57
f 77/131/58 74/132/58 73/129/58
f 78/133/59 73/134/59 76/125/59
f 77/135/60 80/128/60 75/124/60
f 73/134/55 74/123/55 76/125/55
f 77/135/56 78/126/56 80/128/56
f 76/125/57 75/124/57 79/130/57
f 78/124/58 77/131/58 73/129/58
f 79/136/59 78/133/59 76/125/59
f 74/123/60 77/135/60 75/124/60
o Support_Beam_D1
v 0.062500 0.875130 0.500000
v -0.062500 0.875130 0.500000
v -0.062500 2.000130 0.500000
v 0.062500 2.000130 0.500000
v -0.062500 0.875130 0.562500
v 0.062500 0.875130 0.562500
v 0.062500 2.000130 0.562500
v -0.062500 2.000130 0.562500
vt 0.593750 0.726563
vt 0.593750 0.867188
vt 0.578125 0.867188
vt 0.617188 0.726563
vt 0.617188 0.867188
vt 0.601563 0.867188
vt 0.593750 0.875000
vt 0.578125 0.875000
vt 0.609375 0.867188
vt 0.609375 0.875000
vt 0.578125 0.726563
vt 0.570313 0.867188
vt 0.601563 0.726563
vt 0.570313 0.726563
vn 0.000000 0.000000 -1.000000
vn 0.000000 -0.000000 1.000000
vn 0.000000 1.000000 0.000000
vn 0.000000 -1.000000 0.000000
vn 1.000000 0.000000 0.000000
vn -1.000000 0.000000 0.000000
usemtl Material
s off
f 82/137/61 83/138/61 84/139/61
f 86/140/62 87/141/62 88/142/62
f 83/138/63 88/143/63 87/144/63
f 85/145/64 82/146/64 81/143/64
f 81/147/65 84/139/65 87/148/65
f 85/149/66 88/142/66 83/138/66
f 81/147/61 82/137/61 84/139/61
f 85/149/62 86/140/62 88/142/62
f 84/139/63 83/138/63 87/144/63
f 86/138/64 85/145/64 81/143/64
f 86/150/65 81/147/65 87/148/65
f 82/137/66 85/149/66 83/138/66
o Support_Beam_DB1
v 0.062500 1.250130 -0.500000
v -0.062500 1.250130 -0.500000
v -0.062500 1.312630 -0.500000
v 0.062500 1.312630 -0.500000
v -0.062500 1.250130 0.500000
v 0.062500 1.250130 0.500000
v 0.062500 1.312630 0.500000
v -0.062500 1.312630 0.500000
vt 0.804688 0.867188
vt 0.804688 0.875000
vt 0.789063 0.875000
vt 0.945313 0.867188
vt 0.945313 0.875000
vt 0.929688 0.875000
vt 0.804688 1.000000
vt 0.789063 1.000000
vt 0.820313 0.875000
vt 0.820313 1.000000
vt 0.789063 0.867188
vt 0.664063 0.875000
vt 0.929688 0.867188
vt 0.664063 0.867188
vn 0.000000 0.000000 -1.000000
vn 0.000000 0.000000 1.000000
vn 0.000000 1.000000 0.000000
vn 0.000000 -1.000000 -0.000000
vn 1.000000 0.000000 0.000000
vn -1.000000 0.000000 0.000000
usemtl Material
s off
f 90/151/67 91/152/67 92/153/67
f 94/154/68 95/155/68 96/156/68
f 91/152/69 96/157/69 95/158/69
f 93/159/70 90/160/70 89/157/70
f 89/161/71 92/153/71 95/162/71
f 93/163/72 96/156/72 91/152/72
f 89/161/67 90/151/67 92/153/67
f 93/163/68 94/154/68 96/156/68
f 92/153/69 91/152/69 95/158/69
f 94/152/70 93/159/70 89/157/70
f 94/164/71 89/161/71 95/162/71
f 90/151/72 93/163/72 91/152/72
