# Blender v2.76 (sub 0) OBJ File: 'launcher_tier_3.blend'
# www.blender.org
mtllib launcher_tier_3.mtl
o base_Shape13
v 0.312500 -0.005360 0.037500
v -0.375000 -0.005360 0.037500
v -0.375000 0.369640 0.037500
v 0.312500 0.369640 0.037500
v -0.375000 -0.005360 0.412500
v 0.312500 -0.005360 0.412500
v 0.312500 0.369640 0.412500
v -0.375000 0.369640 0.412500
vt 0.066406 0.640625
vt 0.066406 0.664063
vt 0.023438 0.664063
vt 0.132813 0.640625
vt 0.132813 0.664063
vt 0.089844 0.664063
vt 0.066406 0.687500
vt 0.023438 0.687500
vt 0.109375 0.664063
vt 0.109375 0.687500
vt 0.023438 0.640625
vt 0.000000 0.664063
vt 0.089844 0.640625
vt 0.000000 0.640625
vn 0.000000 0.000000 -1.000000
vn 0.000000 -0.000000 1.000000
vn 0.000000 1.000000 0.000000
vn 0.000000 -1.000000 -0.000000
vn 1.000000 0.000000 0.000000
vn -1.000000 0.000000 0.000000
usemtl Material
s off
f 2/1/1 3/2/1 4/3/1
f 6/4/2 7/5/2 8/6/2
f 3/2/3 8/7/3 7/8/3
f 5/9/4 2/10/4 1/7/4
f 1/11/5 4/3/5 7/12/5
f 5/13/6 8/6/6 3/2/6
f 1/11/1 2/1/1 4/3/1
f 5/13/2 6/4/2 8/6/2
f 4/3/3 3/2/3 7/8/3
f 6/2/4 5/9/4 1/7/4
f 6/14/5 1/11/5 7/12/5
f 2/1/6 5/13/6 3/2/6
o Shape12
v 0.312500 -0.005360 -0.400000
v -0.375000 -0.005360 -0.400000
v -0.375000 0.369640 -0.400000
v 0.312500 0.369640 -0.400000
v -0.375000 -0.005360 -0.025000
v 0.312500 -0.005360 -0.025000
v 0.312500 0.369640 -0.025000
v -0.375000 0.369640 -0.025000
vt 0.066406 0.640625
vt 0.066406 0.664063
vt 0.023438 0.664063
vt 0.132813 0.640625
vt 0.132813 0.664063
vt 0.089844 0.664063
vt 0.066406 0.687500
vt 0.023438 0.687500
vt 0.109375 0.664063
vt 0.109375 0.687500
vt 0.000000 0.640625
vt 0.023438 0.640625
vt 0.089844 0.640625
vt 0.000000 0.664063
vn 0.000000 0.000000 -1.000000
vn 0.000000 -0.000000 1.000000
vn 0.000000 1.000000 0.000000
vn 0.000000 -1.000000 -0.000000
vn 1.000000 -0.000000 0.000000
vn -1.000000 0.000000 0.000000
usemtl Material
s off
f 10/15/7 11/16/7 12/17/7
f 14/18/8 15/19/8 16/20/8
f 11/16/9 16/21/9 15/22/9
f 13/23/10 10/24/10 9/21/10
f 14/25/11 9/26/11 12/17/11
f 13/27/12 16/20/12 11/16/12
f 9/26/7 10/15/7 12/17/7
f 13/27/8 14/18/8 16/20/8
f 12/17/9 11/16/9 15/22/9
f 14/16/10 13/23/10 9/21/10
f 15/28/11 14/25/11 12/17/11
f 10/15/12 13/27/12 11/16/12
o rail_Shape21
v 0.437500 -0.005360 -0.500000
v 0.437500 -0.005360 -1.500000
v 0.437500 0.369640 -1.500000
v 0.437500 0.369640 -0.500000
v -0.437500 -0.005360 -1.500000
v -0.437500 -0.005360 -0.500000
v -0.437500 0.369640 -0.500000
v -0.437500 0.369640 -1.500000
vt 0.507813 0.921875
vt 0.507813 0.945313
vt 0.445313 0.945313
vt 0.625000 0.921875
vt 0.625000 0.945313
vt 0.562500 0.945313
vt 0.507813 1.000000
vt 0.445313 1.000000
vt 0.570313 0.945313
vt 0.570313 1.000000
vt 0.390625 0.921875
vt 0.445313 0.921875
vt 0.562500 0.921875
vt 0.390625 0.945313
vn 1.000000 0.000000 0.000000
vn -1.000000 0.000000 -0.000000
vn -0.000000 1.000000 0.000000
vn 0.000000 -1.000000 0.000000
vn -0.000000 0.000000 1.000000
vn -0.000000 0.000000 -1.000000
usemtl Material
s off
f 18/29/13 19/30/13 20/31/13
f 22/32/14 23/33/14 24/34/14
f 19/30/15 24/35/15 23/36/15
f 21/37/16 18/38/16 17/35/16
f 22/39/17 17/40/17 20/31/17
f 21/41/18 24/34/18 19/30/18
f 17/40/13 18/29/13 20/31/13
f 21/41/14 22/32/14 24/34/14
f 20/31/15 19/30/15 23/36/15
f 22/30/16 21/37/16 17/35/16
f 23/42/17 22/39/17 20/31/17
f 18/29/18 21/41/18 19/30/18
o Shape16
v 0.375000 0.369640 -1.062500
v 0.375000 0.369640 -1.125000
v 0.375000 2.869640 -1.125000
v 0.375000 2.869640 -1.062500
v 0.250000 0.369640 -1.125000
v 0.250000 0.369640 -1.062500
v 0.250000 2.869640 -1.062500
v 0.250000 2.869640 -1.125000
vt 0.675781 0.640625
vt 0.675781 0.796875
vt 0.671875 0.796875
vt 0.687500 0.640625
vt 0.687500 0.796875
vt 0.683594 0.796875
vt 0.675781 0.804688
vt 0.671875 0.804688
vt 0.679688 0.796875
vt 0.679688 0.804688
vt 0.664063 0.640625
vt 0.671875 0.640625
vt 0.683594 0.640625
vt 0.664063 0.796875
vn 1.000000 0.000000 0.000000
vn -1.000000 -0.000000 0.000000
vn 0.000000 1.000000 0.000000
vn 0.000000 -1.000000 0.000000
vn -0.000000 0.000000 1.000000
vn 0.000000 0.000000 -1.000000
usemtl Material
s off
f 26/43/19 27/44/19 28/45/19
f 30/46/20 31/47/20 32/48/20
f 27/44/21 32/49/21 31/50/21
f 29/51/22 26/52/22 25/49/22
f 30/53/23 25/54/23 28/45/23
f 29/55/24 32/48/24 27/44/24
f 25/54/19 26/43/19 28/45/19
f 29/55/20 30/46/20 32/48/20
f 28/45/21 27/44/21 31/50/21
f 30/44/22 29/51/22 25/49/22
f 31/56/23 30/53/23 28/45/23
f 26/43/24 29/55/24 27/44/24
o Shape20
v 0.375000 0.369640 -0.875000
v 0.375000 0.369640 -0.937500
v 0.375000 2.869640 -0.937500
v 0.375000 2.869640 -0.875000
v 0.250000 0.369640 -0.937500
v 0.250000 0.369640 -0.875000
v 0.250000 2.869640 -0.875000
v 0.250000 2.869640 -0.937500
vt 0.675781 0.640625
vt 0.675781 0.796875
vt 0.671875 0.796875
vt 0.687500 0.640625
vt 0.687500 0.796875
vt 0.683594 0.796875
vt 0.675781 0.804688
vt 0.671875 0.804688
vt 0.679688 0.796875
vt 0.679688 0.804688
vt 0.671875 0.640625
vt 0.664063 0.796875
vt 0.683594 0.640625
vt 0.664063 0.640625
vn 1.000000 0.000000 0.000000
vn -1.000000 -0.000000 0.000000
vn 0.000000 1.000000 0.000000
vn 0.000000 -1.000000 0.000000
vn 0.000000 0.000000 1.000000
vn 0.000000 0.000000 -1.000000
usemtl Material
s off
f 34/57/25 35/58/25 36/59/25
f 38/60/26 39/61/26 40/62/26
f 35/58/27 40/63/27 39/64/27
f 37/65/28 34/66/28 33/63/28
f 33/67/29 36/59/29 39/68/29
f 37/69/30 40/62/30 35/58/30
f 33/67/25 34/57/25 36/59/25
f 37/69/26 38/60/26 40/62/26
f 36/59/27 35/58/27 39/64/27
f 38/58/28 37/65/28 33/63/28
f 38/70/29 33/67/29 39/68/29
f 34/57/30 37/69/30 35/58/30
o Shape9
v 0.312500 0.369640 -0.687500
v 0.312500 0.369640 -1.312500
v 0.312500 2.682140 -1.312500
v 0.312500 2.682140 -0.687500
v -0.312500 0.369640 -1.312500
v -0.312500 0.369640 -0.687500
v -0.312500 2.682140 -0.687500
v -0.312500 2.682140 -1.312500
vt 0.742188 0.816406
vt 0.742188 0.960938
vt 0.703125 0.960938
vt 0.820313 0.816406
vt 0.820313 0.960938
vt 0.781250 0.960938
vt 0.742188 1.000000
vt 0.703125 1.000000
vt 0.781250 1.000000
vt 0.703125 0.816406
vt 0.664063 0.960938
vt 0.781250 0.816406
vt 0.664063 0.816406
vn 1.000000 0.000000 0.000000
vn -1.000000 -0.000000 -0.000000
vn 0.000000 1.000000 0.000000
vn 0.000000 -1.000000 0.000000
vn 0.000000 0.000000 1.000000
vn 0.000000 0.000000 -1.000000
usemtl Material
s off
f 42/71/31 43/72/31 44/73/31
f 46/74/32 47/75/32 48/76/32
f 43/72/33 48/77/33 47/78/33
f 45/76/34 42/79/34 41/77/34
f 41/80/35 44/73/35 47/81/35
f 45/82/36 48/76/36 43/72/36
f 41/80/31 42/71/31 44/73/31
f 45/82/32 46/74/32 48/76/32
f 44/73/33 43/72/33 47/78/33
f 46/72/34 45/76/34 41/77/34
f 46/83/35 41/80/35 47/81/35
f 42/71/36 45/82/36 43/72/36
o rail.001_Shape21.001
v -0.437500 -0.005360 0.500000
v -0.437500 -0.005360 1.500000
v -0.437500 0.369640 1.500000
v -0.437500 0.369640 0.500000
v 0.437500 -0.005360 1.500000
v 0.437500 -0.005360 0.500000
v 0.437500 0.369640 0.500000
v 0.437500 0.369640 1.500000
vt 0.507813 0.921875
vt 0.507813 0.945313
vt 0.445313 0.945313
vt 0.625000 0.921875
vt 0.625000 0.945313
vt 0.562500 0.945313
vt 0.507813 1.000000
vt 0.445313 1.000000
vt 0.570313 0.945313
vt 0.570313 1.000000
vt 0.445313 0.921875
vt 0.390625 0.945313
vt 0.562500 0.921875
vt 0.390625 0.921875
vn -1.000000 0.000000 0.000000
vn 1.000000 -0.000000 -0.000000
vn 0.000000 1.000000 -0.000000
vn -0.000000 -1.000000 0.000000
vn 0.000000 0.000000 -1.000000
vn 0.000000 0.000000 1.000000
usemtl Material
s off
f 50/84/37 51/85/37 52/86/37
f 54/87/38 55/88/38 56/89/38
f 51/85/39 56/90/39 55/91/39
f 53/92/40 50/93/40 49/90/40
f 49/94/41 52/86/41 55/95/41
f 53/96/42 56/89/42 51/85/42
f 49/94/37 50/84/37 52/86/37
f 53/96/38 54/87/38 56/89/38
f 52/86/39 51/85/39 55/91/39
f 54/85/40 53/92/40 49/90/40
f 54/97/41 49/94/41 55/95/41
f 50/84/42 53/96/42 51/85/42
o Shape16.001
v -0.375000 0.369640 1.062500
v -0.375000 0.369640 1.125000
v -0.375000 2.869640 1.125000
v -0.375000 2.869640 1.062500
v -0.250000 0.369640 1.125000
v -0.250000 0.369640 1.062500
v -0.250000 2.869640 1.062500
v -0.250000 2.869640 1.125000
vt 0.675781 0.640625
vt 0.675781 0.796875
vt 0.671875 0.796875
vt 0.687500 0.640625
vt 0.687500 0.796875
vt 0.683594 0.796875
vt 0.675781 0.804688
vt 0.671875 0.804688
vt 0.679688 0.796875
vt 0.679688 0.804688
vt 0.671875 0.640625
vt 0.664063 0.796875
vt 0.683594 0.640625
vt 0.664063 0.640625
vn -1.000000 0.000000 0.000000
vn 1.000000 -0.000000 0.000000
vn 0.000000 1.000000 0.000000
vn -0.000000 -1.000000 0.000000
vn 0.000000 0.000000 -1.000000
vn 0.000000 0.000000 1.000000
usemtl Material
s off
f 58/98/43 59/99/43 60/100/43
f 62/101/44 63/102/44 64/103/44
f 59/99/45 64/104/45 63/105/45
f 61/106/46 58/107/46 57/104/46
f 57/108/47 60/100/47 63/109/47
f 61/110/48 64/103/48 59/99/48
f 57/108/43 58/98/43 60/100/43
f 61/110/44 62/101/44 64/103/44
f 60/100/45 59/99/45 63/105/45
f 62/99/46 61/106/46 57/104/46
f 62/111/47 57/108/47 63/109/47
f 58/98/48 61/110/48 59/99/48
o Shape20.001
v -0.375000 0.369640 0.875000
v -0.375000 0.369640 0.937500
v -0.375000 2.869640 0.937500
v -0.375000 2.869640 0.875000
v -0.250000 0.369640 0.937500
v -0.250000 0.369640 0.875000
v -0.250000 2.869640 0.875000
v -0.250000 2.869640 0.937500
vt 0.675781 0.640625
vt 0.675781 0.796875
vt 0.671875 0.796875
vt 0.687500 0.640625
vt 0.687500 0.796875
vt 0.683594 0.796875
vt 0.675781 0.804688
vt 0.671875 0.804688
vt 0.679688 0.796875
vt 0.679688 0.804688
vt 0.671875 0.640625
vt 0.664063 0.796875
vt 0.683594 0.640625
vt 0.664063 0.640625
vn -1.000000 0.000000 0.000000
vn 1.000000 -0.000000 0.000000
vn 0.000000 1.000000 0.000000
vn -0.000000 -1.000000 0.000000
vn 0.000000 0.000000 -1.000000
vn 0.000000 0.000000 1.000000
usemtl Material
s off
f 66/112/49 67/113/49 68/114/49
f 70/115/50 71/116/50 72/117/50
f 67/113/51 72/118/51 71/119/51
f 69/120/52 66/121/52 65/118/52
f 65/122/53 68/114/53 71/123/53
f 69/124/54 72/117/54 67/113/54
f 65/122/49 66/112/49 68/114/49
f 69/124/50 70/115/50 72/117/50
f 68/114/51 67/113/51 71/119/51
f 70/113/52 69/120/52 65/118/52
f 70/125/53 65/122/53 71/123/53
f 66/112/54 69/124/54 67/113/54
o Shape9.001
v -0.312500 0.369640 0.687500
v -0.312500 0.369640 1.312500
v -0.312500 2.682140 1.312500
v -0.312500 2.682140 0.687500
v 0.312500 0.369640 1.312500
v 0.312500 0.369640 0.687500
v 0.312500 2.682140 0.687500
v 0.312500 2.682140 1.312500
vt 0.742188 0.816406
vt 0.742188 0.960938
vt 0.703125 0.960938
vt 0.820313 0.816406
vt 0.820313 0.960938
vt 0.781250 0.960938
vt 0.742188 1.000000
vt 0.703125 1.000000
vt 0.781250 1.000000
vt 0.703125 0.816406
vt 0.664063 0.960938
vt 0.781250 0.816406
vt 0.664063 0.816406
vn -1.000000 0.000000 0.000000
vn 1.000000 -0.000000 -0.000000
vn 0.000000 1.000000 0.000000
vn -0.000000 -1.000000 0.000000
vn 0.000000 0.000000 -1.000000
vn 0.000000 0.000000 1.000000
usemtl Material
s off
f 74/126/55 75/127/55 76/128/55
f 78/129/56 79/130/56 80/131/56
f 75/127/57 80/132/57 79/133/57
f 77/131/58 74/134/58 73/132/58
f 73/135/59 76/128/59 79/136/59
f 77/137/60 80/131/60 75/127/60
f 73/135/55 74/126/55 76/128/55
f 77/137/56 78/129/56 80/131/56
f 76/128/57 75/127/57 79/133/57
f 78/127/58 77/131/58 73/132/58
f 78/138/59 73/135/59 79/136/59
f 74/126/60 77/137/60 75/127/60
