# Blender v2.76 (sub 0) OBJ File: 'launcher.blend'
# www.blender.org
mtllib launcher.mtl
o Shape13.001
v 0.437500 0.025000 -0.062500
v 0.312500 0.025000 -0.062500
v 0.312500 0.775000 -0.062500
v 0.437500 0.775000 -0.062500
v 0.312500 0.025000 0.062500
v 0.437500 0.025000 0.062500
v 0.437500 0.775000 0.062500
v 0.312500 0.775000 0.062500
vt 0.031250 0.734375
vt 0.031250 0.828125
vt 0.015625 0.828125
vt 0.062500 0.734375
vt 0.062500 0.828125
vt 0.046875 0.828125
vt 0.031250 0.843750
vt 0.015625 0.843750
vt 0.046875 0.843750
vt 0.000000 0.734375
vt 0.015625 0.734375
vt 0.046875 0.734375
vt 0.000000 0.828125
vn 0.000000 0.000000 -1.000000
vn 0.000000 -0.000000 1.000000
vn 0.000000 1.000000 0.000000
vn 0.000000 -1.000000 -0.000000
vn 1.000000 -0.000000 0.000000
vn -1.000000 0.000000 0.000000
usemtl Material
s off
f 2/1/1 3/2/1 4/3/1
f 6/4/2 7/5/2 8/6/2
f 3/2/3 8/7/3 7/8/3
f 5/6/4 2/9/4 1/7/4
f 6/10/5 1/11/5 4/3/5
f 5/12/6 8/6/6 3/2/6
f 1/11/1 2/1/1 4/3/1
f 5/12/2 6/4/2 8/6/2
f 4/3/3 3/2/3 7/8/3
f 6/2/4 5/6/4 1/7/4
f 7/13/5 6/10/5 4/3/5
f 2/1/6 5/12/6 3/2/6
o Shape8.001
v -0.375000 0.025000 -0.062500
v -0.500000 0.025000 -0.062500
v -0.500000 0.775000 -0.062500
v -0.375000 0.775000 -0.062500
v -0.500000 0.025000 0.062500
v -0.375000 0.025000 0.062500
v -0.375000 0.775000 0.062500
v -0.500000 0.775000 0.062500
vt 0.031250 0.734375
vt 0.031250 0.828125
vt 0.015625 0.828125
vt 0.062500 0.734375
vt 0.062500 0.828125
vt 0.046875 0.828125
vt 0.031250 0.843750
vt 0.015625 0.843750
vt 0.046875 0.843750
vt 0.000000 0.734375
vt 0.015625 0.734375
vt 0.046875 0.734375
vt 0.000000 0.828125
vn 0.000000 0.000000 -1.000000
vn 0.000000 -0.000000 1.000000
vn 0.000000 1.000000 0.000000
vn 0.000000 -1.000000 -0.000000
vn 1.000000 0.000000 0.000000
vn -1.000000 0.000000 0.000000
usemtl Material
s off
f 10/14/7 11/15/7 12/16/7
f 14/17/8 15/18/8 16/19/8
f 11/15/9 16/20/9 15/21/9
f 13/19/10 10/22/10 9/20/10
f 14/23/11 9/24/11 12/16/11
f 13/25/12 16/19/12 11/15/12
f 9/24/7 10/14/7 12/16/7
f 13/25/8 14/17/8 16/19/8
f 12/16/9 11/15/9 15/21/9
f 14/15/10 13/19/10 9/20/10
f 15/26/11 14/23/11 12/16/11
f 10/14/12 13/25/12 11/15/12
o Shape1
v 0.500000 -0.037500 -0.500000
v -0.500000 -0.037500 -0.500000
v -0.500000 0.025000 -0.500000
v 0.500000 0.025000 -0.500000
v -0.500000 -0.037500 0.500000
v 0.500000 -0.037500 0.500000
v 0.500000 0.025000 0.500000
v -0.500000 0.025000 0.500000
vt 0.250000 0.000000
vt 0.250000 0.007813
vt 0.125000 0.007813
vt 0.500000 0.000000
vt 0.500000 0.007813
vt 0.375000 0.007813
vt 0.250000 0.132813
vt 0.125000 0.132813
vt 0.375000 0.132813
vt 0.125000 0.000000
vt 0.000000 0.007813
vt 0.375000 0.000000
vt 0.000000 0.000000
vn 0.000000 0.000000 -1.000000
vn 0.000000 0.000000 1.000000
vn 0.000000 1.000000 0.000000
vn 0.000000 -1.000000 -0.000000
vn 1.000000 0.000000 0.000000
vn -1.000000 0.000000 0.000000
usemtl Material
s off
f 18/27/13 19/28/13 20/29/13
f 22/30/14 23/31/14 24/32/14
f 19/28/15 24/33/15 23/34/15
f 21/32/16 18/35/16 17/33/16
f 17/36/17 20/29/17 23/37/17
f 21/38/18 24/32/18 19/28/18
f 17/36/13 18/27/13 20/29/13
f 21/38/14 22/30/14 24/32/14
f 20/29/15 19/28/15 23/34/15
f 22/28/16 21/32/16 17/33/16
f 22/39/17 17/36/17 23/37/17
f 18/27/18 21/38/18 19/28/18
o Shape6
v 0.500000 0.212500 -0.500000
v -0.500000 0.212500 -0.500000
v -0.500000 0.275000 -0.500000
v 0.500000 0.275000 -0.500000
v -0.500000 0.212500 0.500000
v 0.500000 0.212500 0.500000
v 0.500000 0.275000 0.500000
v -0.500000 0.275000 0.500000
vt 0.250000 0.000000
vt 0.250000 0.007813
vt 0.125000 0.007813
vt 0.500000 0.000000
vt 0.500000 0.007813
vt 0.375000 0.007813
vt 0.250000 0.132813
vt 0.125000 0.132813
vt 0.375000 0.132813
vt 0.125000 0.000000
vt 0.000000 0.007813
vt 0.375000 0.000000
vt 0.000000 0.000000
vn 0.000000 0.000000 -1.000000
vn 0.000000 0.000000 1.000000
vn 0.000000 1.000000 0.000000
vn 0.000000 -1.000000 -0.000000
vn 1.000000 0.000000 0.000000
vn -1.000000 0.000000 0.000000
usemtl Material
s off
f 26/40/19 27/41/19 28/42/19
f 30/43/20 31/44/20 32/45/20
f 27/41/21 32/46/21 31/47/21
f 29/45/22 26/48/22 25/46/22
f 25/49/23 28/42/23 31/50/23
f 29/51/24 32/45/24 27/41/24
f 25/49/19 26/40/19 28/42/19
f 29/51/20 30/43/20 32/45/20
f 28/42/21 27/41/21 31/47/21
f 30/41/22 29/45/22 25/46/22
f 30/52/23 25/49/23 31/50/23
f 26/40/24 29/51/24 27/41/24
o Shape15
v 1.500000 -0.037500 -0.250000
v -1.500000 -0.037500 -0.250000
v -1.500000 0.025000 -0.250000
v 1.500000 0.025000 -0.250000
v -1.500000 -0.037500 0.250000
v 1.500000 -0.037500 0.250000
v 1.500000 0.025000 0.250000
v -1.500000 0.025000 0.250000
vt 0.437500 0.929688
vt 0.437500 0.937500
vt 0.062500 0.937500
vt 0.875000 0.929688
vt 0.875000 0.937500
vt 0.500000 0.937500
vt 0.437500 1.000000
vt 0.062500 1.000000
vt 0.812500 0.937500
vt 0.812500 1.000000
vt 0.062500 0.929688
vt 0.000000 0.937500
vt 0.500000 0.929688
vt 0.000000 0.929688
vn 0.000000 0.000000 -1.000000
vn 0.000000 0.000000 1.000000
vn 0.000000 1.000000 0.000000
vn 0.000000 -1.000000 -0.000000
vn 1.000000 0.000000 0.000000
vn -1.000000 0.000000 0.000000
usemtl Material
s off
f 34/53/25 35/54/25 36/55/25
f 38/56/26 39/57/26 40/58/26
f 35/54/27 40/59/27 39/60/27
f 37/61/28 34/62/28 33/59/28
f 33/63/29 36/55/29 39/64/29
f 37/65/30 40/58/30 35/54/30
f 33/63/25 34/53/25 36/55/25
f 37/65/26 38/56/26 40/58/26
f 36/55/27 35/54/27 39/60/27
f 38/54/28 37/61/28 33/59/28
f 38/66/29 33/63/29 39/64/29
f 34/53/30 37/65/30 35/54/30
o Shape11
v 0.500000 0.400000 -0.125000
v 0.437500 0.400000 -0.125000
v 0.437500 2.962500 -0.125000
v 0.500000 2.962500 -0.125000
v 0.437500 0.400000 0.125000
v 0.500000 0.400000 0.125000
v 0.500000 2.962500 0.125000
v 0.437500 2.962500 0.125000
vt 0.312500 0.242188
vt 0.312500 0.562500
vt 0.304688 0.562500
vt 0.351563 0.242188
vt 0.351563 0.562500
vt 0.343750 0.562500
vt 0.312500 0.593750
vt 0.304688 0.593750
vt 0.320313 0.562500
vt 0.320313 0.593750
vt 0.304688 0.242188
vt 0.273438 0.562500
vt 0.343750 0.242188
vt 0.273438 0.242188
vn 0.000000 0.000000 -1.000000
vn 0.000000 -0.000000 1.000000
vn 0.000000 1.000000 0.000000
vn 0.000000 -1.000000 -0.000000
vn 1.000000 0.000000 0.000000
vn -1.000000 0.000000 0.000000
usemtl Material
s off
f 42/67/31 43/68/31 44/69/31
f 46/70/32 47/71/32 48/72/32
f 43/68/33 48/73/33 47/74/33
f 45/75/34 42/76/34 41/73/34
f 41/77/35 44/69/35 47/78/35
f 45/79/36 48/72/36 43/68/36
f 41/77/31 42/67/31 44/69/31
f 45/79/32 46/70/32 48/72/32
f 44/69/33 43/68/33 47/74/33
f 46/68/34 45/75/34 41/73/34
f 46/80/35 41/77/35 47/78/35
f 42/67/36 45/79/36 43/68/36
o Shape16
v 1.000000 0.025000 -0.187500
v 0.437500 0.025000 -0.187500
v 0.437500 0.400000 -0.187500
v 1.000000 0.400000 -0.187500
v 0.437500 0.025000 0.187500
v 1.000000 0.025000 0.187500
v 1.000000 0.400000 0.187500
v 0.437500 0.400000 0.187500
vt 0.562500 0.500000
vt 0.562500 0.546875
vt 0.492188 0.546875
vt 0.679688 0.500000
vt 0.679688 0.546875
vt 0.609375 0.546875
vt 0.562500 0.593750
vt 0.492188 0.593750
vt 0.632813 0.546875
vt 0.632813 0.593750
vt 0.492188 0.500000
vt 0.445313 0.546875
vt 0.609375 0.500000
vt 0.445313 0.500000
vn 0.000000 0.000000 -1.000000
vn 0.000000 -0.000000 1.000000
vn 0.000000 1.000000 0.000000
vn 0.000000 -1.000000 -0.000000
vn 1.000000 0.000000 0.000000
vn -1.000000 0.000000 0.000000
usemtl Material
s off
f 50/81/37 51/82/37 52/83/37
f 54/84/38 55/85/38 56/86/38
f 51/82/39 56/87/39 55/88/39
f 53/89/40 50/90/40 49/87/40
f 49/91/41 52/83/41 55/92/41
f 53/93/42 56/86/42 51/82/42
f 49/91/37 50/81/37 52/83/37
f 53/93/38 54/84/38 56/86/38
f 52/83/39 51/82/39 55/88/39
f 54/82/40 53/89/40 49/87/40
f 54/94/41 49/91/41 55/92/41
f 50/81/42 53/93/42 51/82/42
o Shape17
v -0.500000 0.025000 -0.187500
v -1.062500 0.025000 -0.187500
v -1.062500 0.400000 -0.187500
v -0.500000 0.400000 -0.187500
v -1.062500 0.025000 0.187500
v -0.500000 0.025000 0.187500
v -0.500000 0.400000 0.187500
v -1.062500 0.400000 0.187500
vt 0.562500 0.500000
vt 0.562500 0.546875
vt 0.492188 0.546875
vt 0.679688 0.500000
vt 0.679688 0.546875
vt 0.609375 0.546875
vt 0.562500 0.593750
vt 0.492188 0.593750
vt 0.632813 0.546875
vt 0.632813 0.593750
vt 0.492188 0.500000
vt 0.445313 0.546875
vt 0.609375 0.500000
vt 0.445313 0.500000
vn 0.000000 0.000000 -1.000000
vn 0.000000 -0.000000 1.000000
vn 0.000000 1.000000 0.000000
vn 0.000000 -1.000000 -0.000000
vn 1.000000 0.000000 0.000000
vn -1.000000 0.000000 0.000000
usemtl Material
s off
f 58/95/43 59/96/43 60/97/43
f 62/98/44 63/99/44 64/100/44
f 59/96/45 64/101/45 63/102/45
f 61/103/46 58/104/46 57/101/46
f 57/105/47 60/97/47 63/106/47
f 61/107/48 64/100/48 59/96/48
f 57/105/43 58/95/43 60/97/43
f 61/107/44 62/98/44 64/100/44
f 60/97/45 59/96/45 63/102/45
f 62/96/46 61/103/46 57/101/46
f 62/108/47 57/105/47 63/106/47
f 58/95/48 61/107/48 59/96/48
o Shape10
v -0.437500 2.962500 -0.062500
v -0.562500 2.962500 -0.062500
v -0.562500 3.212500 -0.062499
v -0.437500 3.212500 -0.062499
v -0.562500 2.962500 0.062500
v -0.437500 2.962500 0.062500
v -0.437500 3.212500 0.062501
v -0.562500 3.212500 0.062501
vt 0.031250 0.875000
vt 0.031250 0.906250
vt 0.015625 0.906250
vt 0.062500 0.875000
vt 0.062500 0.906250
vt 0.046875 0.906250
vt 0.031250 0.921875
vt 0.015625 0.921875
vt 0.046875 0.921875
vt 0.000000 0.875000
vt 0.015625 0.875000
vt 0.046875 0.875000
vt 0.000000 0.906250
vn 0.000000 0.000000 -1.000000
vn 0.000000 -0.000000 1.000000
vn 0.000000 1.000000 0.000000
vn 0.000000 -1.000000 0.000000
vn 1.000000 0.000000 0.000000
vn -1.000000 0.000000 0.000000
usemtl Material
s off
f 66/109/49 67/110/49 68/111/49
f 70/112/50 71/113/50 72/114/50
f 67/110/51 72/115/51 71/116/51
f 69/114/52 66/117/52 65/115/52
f 70/118/53 65/119/53 68/111/53
f 69/120/54 72/114/54 67/110/54
f 65/119/49 66/109/49 68/111/49
f 69/120/50 70/112/50 72/114/50
f 68/111/51 67/110/51 71/116/51
f 70/110/52 69/114/52 65/115/52
f 71/121/53 70/118/53 68/111/53
f 66/109/54 69/120/54 67/110/54
o Shape12
v 0.687500 0.400000 -0.062500
v 0.500000 0.400000 -0.062500
v 0.500000 1.587500 -0.062500
v 0.687500 1.587500 -0.062500
v 0.500000 0.400000 0.062500
v 0.687500 0.400000 0.062500
v 0.687500 1.587500 0.062500
v 0.500000 1.587500 0.062500
vt 0.398438 0.429688
vt 0.398438 0.578125
vt 0.375000 0.578125
vt 0.437500 0.429688
vt 0.437500 0.578125
vt 0.414063 0.578125
vt 0.398438 0.593750
vt 0.375000 0.593750
vt 0.421875 0.578125
vt 0.421875 0.593750
vt 0.375000 0.429688
vt 0.359375 0.578125
vt 0.414063 0.429688
vt 0.359375 0.429688
vn 0.000000 0.000000 -1.000000
vn 0.000000 -0.000000 1.000000
vn 0.000000 1.000000 0.000000
vn 0.000000 -1.000000 0.000000
vn 1.000000 0.000000 0.000000
vn -1.000000 0.000000 0.000000
usemtl Material
s off
f 74/122/55 75/123/55 76/124/55
f 78/125/56 79/126/56 80/127/56
f 75/123/57 80/128/57 79/129/57
f 77/130/58 74/131/58 73/128/58
f 73/132/59 76/124/59 79/133/59
f 77/134/60 80/127/60 75/123/60
f 73/132/55 74/122/55 76/124/55
f 77/134/56 78/125/56 80/127/56
f 76/124/57 75/123/57 79/129/57
f 78/123/58 77/130/58 73/128/58
f 78/135/59 73/132/59 79/133/59
f 74/122/60 77/134/60 75/123/60
o Shape14
v 0.500000 2.962500 -0.062500
v 0.375000 2.962500 -0.062500
v 0.375000 3.212500 -0.062499
v 0.500000 3.212500 -0.062499
v 0.375000 2.962500 0.062500
v 0.500000 2.962500 0.062500
v 0.500000 3.212500 0.062501
v 0.375000 3.212500 0.062501
vt 0.031250 0.875000
vt 0.031250 0.906250
vt 0.015625 0.906250
vt 0.062500 0.875000
vt 0.062500 0.906250
vt 0.046875 0.906250
vt 0.031250 0.921875
vt 0.015625 0.921875
vt 0.046875 0.921875
vt 0.000000 0.875000
vt 0.015625 0.875000
vt 0.046875 0.875000
vt 0.000000 0.906250
vn 0.000000 0.000000 -1.000000
vn 0.000000 -0.000000 1.000000
vn 0.000000 1.000000 0.000000
vn 0.000000 -1.000000 0.000000
vn 1.000000 0.000000 0.000000
vn -1.000000 0.000000 0.000000
usemtl Material
s off
f 82/136/61 83/137/61 84/138/61
f 86/139/62 87/140/62 88/141/62
f 83/137/63 88/142/63 87/143/63
f 85/141/64 82/144/64 81/142/64
f 86/145/65 81/146/65 84/138/65
f 85/147/66 88/141/66 83/137/66
f 81/146/61 82/136/61 84/138/61
f 85/147/62 86/139/62 88/141/62
f 84/138/63 83/137/63 87/143/63
f 86/137/64 85/141/64 81/142/64
f 87/148/65 86/145/65 84/138/65
f 82/136/66 85/147/66 83/137/66
o Shape8
v -0.375000 0.025000 -0.062500
v -0.500000 0.025000 -0.062500
v -0.500000 0.775000 -0.062500
v -0.375000 0.775000 -0.062500
v -0.500000 0.025000 0.062500
v -0.375000 0.025000 0.062500
v -0.375000 0.775000 0.062500
v -0.500000 0.775000 0.062500
vt 0.031250 0.734375
vt 0.031250 0.828125
vt 0.015625 0.828125
vt 0.062500 0.734375
vt 0.062500 0.828125
vt 0.046875 0.828125
vt 0.031250 0.843750
vt 0.015625 0.843750
vt 0.046875 0.843750
vt 0.000000 0.734375
vt 0.015625 0.734375
vt 0.046875 0.734375
vt 0.000000 0.828125
vn 0.000000 0.000000 -1.000000
vn 0.000000 -0.000000 1.000000
vn 0.000000 1.000000 0.000000
vn 0.000000 -1.000000 -0.000000
vn 1.000000 0.000000 0.000000
vn -1.000000 0.000000 0.000000
usemtl Material
s off
f 90/149/67 91/150/67 92/151/67
f 94/152/68 95/153/68 96/154/68
f 91/150/69 96/155/69 95/156/69
f 93/154/70 90/157/70 89/155/70
f 94/158/71 89/159/71 92/151/71
f 93/160/72 96/154/72 91/150/72
f 89/159/67 90/149/67 92/151/67
f 93/160/68 94/152/68 96/154/68
f 92/151/69 91/150/69 95/156/69
f 94/150/70 93/154/70 89/155/70
f 95/161/71 94/158/71 92/151/71
f 90/149/72 93/160/72 91/150/72
o Shape9
v -0.562500 0.400000 -0.062500
v -0.750000 0.400000 -0.062500
v -0.750000 1.587500 -0.062500
v -0.562500 1.587500 -0.062500
v -0.750000 0.400000 0.062500
v -0.562500 0.400000 0.062500
v -0.562500 1.587500 0.062500
v -0.750000 1.587500 0.062500
vt 0.398438 0.429688
vt 0.398438 0.578125
vt 0.375000 0.578125
vt 0.437500 0.429688
vt 0.437500 0.578125
vt 0.414063 0.578125
vt 0.398438 0.593750
vt 0.375000 0.593750
vt 0.421875 0.578125
vt 0.421875 0.593750
vt 0.375000 0.429688
vt 0.359375 0.578125
vt 0.414063 0.429688
vt 0.359375 0.429688
vn 0.000000 0.000000 -1.000000
vn 0.000000 -0.000000 1.000000
vn 0.000000 1.000000 0.000000
vn 0.000000 -1.000000 0.000000
vn 1.000000 0.000000 0.000000
vn -1.000000 0.000000 0.000000
usemtl Material
s off
f 98/162/73 99/163/73 100/164/73
f 102/165/74 103/166/74 104/167/74
f 99/163/75 104/168/75 103/169/75
f 101/170/76 98/171/76 97/168/76
f 97/172/77 100/164/77 103/173/77
f 101/174/78 104/167/78 99/163/78
f 97/172/73 98/162/73 100/164/73
f 101/174/74 102/165/74 104/167/74
f 100/164/75 99/163/75 103/169/75
f 102/163/76 101/170/76 97/168/76
f 102/175/77 97/172/77 103/173/77
f 98/162/78 101/174/78 99/163/78
o Shape13
v 0.437500 0.025000 -0.062500
v 0.312500 0.025000 -0.062500
v 0.312500 0.775000 -0.062500
v 0.437500 0.775000 -0.062500
v 0.312500 0.025000 0.062500
v 0.437500 0.025000 0.062500
v 0.437500 0.775000 0.062500
v 0.312500 0.775000 0.062500
vt 0.031250 0.734375
vt 0.031250 0.828125
vt 0.015625 0.828125
vt 0.062500 0.734375
vt 0.062500 0.828125
vt 0.046875 0.828125
vt 0.031250 0.843750
vt 0.015625 0.843750
vt 0.046875 0.843750
vt 0.000000 0.734375
vt 0.015625 0.734375
vt 0.046875 0.734375
vt 0.000000 0.828125
vn 0.000000 0.000000 -1.000000
vn 0.000000 -0.000000 1.000000
vn 0.000000 1.000000 0.000000
vn 0.000000 -1.000000 -0.000000
vn 1.000000 -0.000000 0.000000
vn -1.000000 0.000000 0.000000
usemtl Material
s off
f 106/176/79 107/177/79 108/178/79
f 110/179/80 111/180/80 112/181/80
f 107/177/81 112/182/81 111/183/81
f 109/181/82 106/184/82 105/182/82
f 110/185/83 105/186/83 108/178/83
f 109/187/84 112/181/84 107/177/84
f 105/186/79 106/176/79 108/178/79
f 109/187/80 110/179/80 112/181/80
f 108/178/81 107/177/81 111/183/81
f 110/177/82 109/181/82 105/182/82
f 111/188/83 110/185/83 108/178/83
f 106/176/84 109/187/84 107/177/84
o Shape7
v -0.500000 0.400000 -0.125000
v -0.562500 0.400000 -0.125000
v -0.562500 2.962500 -0.125000
v -0.500000 2.962500 -0.125000
v -0.562500 0.400000 0.125000
v -0.500000 0.400000 0.125000
v -0.500000 2.962500 0.125000
v -0.562500 2.962500 0.125000
vt 0.312500 0.242188
vt 0.312500 0.562500
vt 0.304688 0.562500
vt 0.351563 0.242188
vt 0.351563 0.562500
vt 0.343750 0.562500
vt 0.312500 0.593750
vt 0.304688 0.593750
vt 0.320313 0.562500
vt 0.320313 0.593750
vt 0.304688 0.242188
vt 0.273438 0.562500
vt 0.343750 0.242188
vt 0.273438 0.242188
vn 0.000000 0.000000 -1.000000
vn 0.000000 -0.000000 1.000000
vn 0.000000 1.000000 0.000000
vn 0.000000 -1.000000 -0.000000
vn 1.000000 0.000000 0.000000
vn -1.000000 0.000000 0.000000
usemtl Material
s off
f 114/189/85 115/190/85 116/191/85
f 118/192/86 119/193/86 120/194/86
f 115/190/87 120/195/87 119/196/87
f 117/197/88 114/198/88 113/195/88
f 113/199/89 116/191/89 119/200/89
f 117/201/90 120/194/90 115/190/90
f 113/199/85 114/189/85 116/191/85
f 117/201/86 118/192/86 120/194/86
f 116/191/87 115/190/87 119/196/87
f 118/190/88 117/197/88 113/195/88
f 118/202/89 113/199/89 119/200/89
f 114/189/90 117/201/90 115/190/90
