# Blender v2.76 (sub 0) OBJ File: 'screen_tier_3.blend'
# www.blender.org
mtllib screen_tier_3.mtl
o Shape29
v 0.312500 0.403059 -0.355686
v -0.312500 0.403059 -0.355686
v -0.312500 0.462500 -0.375000
v 0.312500 0.462500 -0.375000
v -0.312500 0.557567 0.119842
v 0.312500 0.557567 0.119842
v 0.312500 0.617008 0.100528
v -0.312500 0.617008 0.100528
vt 0.070313 0.890625
vt 0.070313 0.894531
vt 0.031250 0.894531
vt 0.140625 0.890625
vt 0.140625 0.894531
vt 0.101563 0.894531
vt 0.070313 0.925781
vt 0.031250 0.925781
vt 0.109375 0.894531
vt 0.109375 0.925781
vt 0.031250 0.890625
vt 0.000000 0.894531
vt 0.101563 0.890625
vt 0.000000 0.890625
vn 0.000000 -0.309000 -0.951100
vn 0.000000 0.309000 0.951100
vn 0.000000 0.951100 -0.309000
vn 0.000000 -0.951100 0.309000
vn 1.000000 0.000000 0.000000
vn -1.000000 0.000000 0.000000
usemtl Material
s off
f 2/1/1 3/2/1 4/3/1
f 6/4/2 7/5/2 8/6/2
f 3/2/3 8/7/3 7/8/3
f 5/9/4 2/10/4 1/7/4
f 1/11/5 4/3/5 7/12/5
f 2/1/6 5/13/6 8/6/6
f 1/11/1 2/1/1 4/3/1
f 5/13/2 6/4/2 8/6/2
f 4/3/3 3/2/3 7/8/3
f 6/2/4 5/9/4 1/7/4
f 6/14/5 1/11/5 7/12/5
f 3/2/6 2/1/6 8/6/6
o Shape31
v 0.062500 0.271058 -0.014136
v -0.062500 0.271058 -0.014136
v -0.062500 0.837500 0.250000
v 0.062500 0.837500 0.250000
v -0.062500 0.244644 0.042508
v 0.062500 0.244644 0.042508
v 0.062500 0.811086 0.306644
v -0.062500 0.811086 0.306644
vt 0.109375 0.957031
vt 0.109375 0.996094
vt 0.101563 0.996094
vt 0.121094 0.957031
vt 0.121094 0.996094
vt 0.113281 0.996094
vt 0.109375 1.000000
vt 0.101563 1.000000
vt 0.117188 0.996094
vt 0.117188 1.000000
vt 0.101563 0.957031
vt 0.097656 0.996094
vt 0.113281 0.957031
vt 0.097656 0.957031
vn 0.000000 0.422600 -0.906300
vn 0.000000 -0.422600 0.906300
vn 0.000000 0.906300 0.422600
vn 0.000000 -0.906300 -0.422600
vn 1.000000 0.000000 0.000000
vn -1.000000 0.000000 0.000000
usemtl Material
s off
f 10/15/7 11/16/7 12/17/7
f 14/18/8 15/19/8 16/20/8
f 11/16/9 16/21/9 15/22/9
f 13/23/10 10/24/10 9/21/10
f 9/25/11 12/17/11 15/26/11
f 10/15/12 13/27/12 16/20/12
f 9/25/7 10/15/7 12/17/7
f 13/27/8 14/18/8 16/20/8
f 12/17/9 11/16/9 15/22/9
f 14/16/10 13/23/10 9/21/10
f 14/28/11 9/25/11 15/26/11
f 11/16/12 10/15/12 16/20/12
o Shape30
v 0.312500 0.634346 0.101191
v -0.312500 0.634346 0.101191
v -0.312500 1.087500 0.312500
v 0.312500 1.087500 0.312500
v -0.312500 0.607932 0.157835
v 0.312500 0.607932 0.157835
v 0.312500 1.061086 0.369144
v -0.312500 1.061086 0.369144
vt 0.042969 0.964844
vt 0.042969 0.996094
vt 0.003906 0.996094
vt 0.085938 0.964844
vt 0.085938 0.996094
vt 0.046875 0.996094
vt 0.042969 1.000000
vt 0.003906 1.000000
vt 0.082031 0.996094
vt 0.082031 1.000000
vt 0.003906 0.964844
vt 0.000000 0.996094
vt 0.046875 0.964844
vt 0.000000 0.964844
vn 0.000000 0.422600 -0.906300
vn 0.000000 -0.422600 0.906300
vn 0.000000 0.906300 0.422600
vn 0.000000 -0.906300 -0.422600
vn 1.000000 -0.000000 0.000000
vn -1.000000 0.000000 0.000000
usemtl Material
s off
f 18/29/13 19/30/13 20/31/13
f 22/32/14 23/33/14 24/34/14
f 19/30/15 24/35/15 23/36/15
f 21/37/16 18/38/16 17/35/16
f 17/39/17 20/31/17 23/40/17
f 18/29/18 21/41/18 24/34/18
f 17/39/13 18/29/13 20/31/13
f 21/41/14 22/32/14 24/34/14
f 20/31/15 19/30/15 23/36/15
f 22/30/16 21/37/16 17/35/16
f 22/42/17 17/39/17 23/40/17
f 19/30/18 18/29/18 24/34/18
o Shape27
v 0.250000 -0.037500 -0.125000
v -0.250000 -0.037500 -0.125000
v -0.250000 0.525000 -0.125000
v 0.250000 0.525000 -0.125000
v -0.250000 -0.037500 0.062500
v 0.250000 -0.037500 0.062500
v 0.250000 0.525000 0.062500
v -0.250000 0.525000 0.062500
vt 0.042969 0.835938
vt 0.042969 0.871094
vt 0.011719 0.871094
vt 0.085938 0.835938
vt 0.085938 0.871094
vt 0.054688 0.871094
vt 0.042969 0.882813
vt 0.011719 0.882813
vt 0.074219 0.871094
vt 0.074219 0.882813
vt 0.011719 0.835938
vt 0.000000 0.871094
vt 0.054688 0.835938
vt 0.000000 0.835938
vn 0.000000 0.000000 -1.000000
vn 0.000000 -0.000000 1.000000
vn 0.000000 1.000000 0.000000
vn 0.000000 -1.000000 -0.000000
vn 1.000000 0.000000 0.000000
vn -1.000000 0.000000 0.000000
usemtl Material
s off
f 26/43/19 27/44/19 28/45/19
f 30/46/20 31/47/20 32/48/20
f 27/44/21 32/49/21 31/50/21
f 29/51/22 26/52/22 25/49/22
f 25/53/23 28/45/23 31/54/23
f 29/55/24 32/48/24 27/44/24
f 25/53/19 26/43/19 28/45/19
f 29/55/20 30/46/20 32/48/20
f 28/45/21 27/44/21 31/50/21
f 30/44/22 29/51/22 25/49/22
f 30/56/23 25/53/23 31/54/23
f 26/43/24 29/55/24 27/44/24
