# Blender v2.76 (sub 0) OBJ File: 'support.blend'
# www.blender.org
mtllib support.mtl
o base_Shape18
v 0.500000 -0.037500 -0.250000
v -0.500000 -0.037500 -0.250000
v -0.500000 0.337500 -0.250000
v 0.500000 0.337500 -0.250000
v -0.500000 -0.037500 0.250000
v 0.500000 -0.037500 0.250000
v 0.500000 0.337500 0.250000
v -0.500000 0.337500 0.250000
vt 0.632813 0.382813
vt 0.632813 0.429688
vt 0.507813 0.429688
vt 0.820313 0.382813
vt 0.820313 0.429688
vt 0.695313 0.429688
vt 0.632813 0.492188
vt 0.507813 0.492188
vt 0.757813 0.429688
vt 0.757813 0.492188
vt 0.507813 0.382813
vt 0.445313 0.429688
vt 0.695313 0.382813
vt 0.445313 0.382813
vn 0.000000 0.000000 -1.000000
vn 0.000000 -0.000000 1.000000
vn 0.000000 1.000000 0.000000
vn 0.000000 -1.000000 -0.000000
vn 1.000000 0.000000 0.000000
vn -1.000000 0.000000 0.000000
usemtl Material
s off
f 2/1/1 3/2/1 4/3/1
f 6/4/2 7/5/2 8/6/2
f 3/2/3 8/7/3 7/8/3
f 5/9/4 2/10/4 1/7/4
f 1/11/5 4/3/5 7/12/5
f 5/13/6 8/6/6 3/2/6
f 1/11/1 2/1/1 4/3/1
f 5/13/2 6/4/2 8/6/2
f 4/3/3 3/2/3 7/8/3
f 6/2/4 5/9/4 1/7/4
f 6/14/5 1/11/5 7/12/5
f 2/1/6 5/13/6 3/2/6
o frame_Shape19
v 0.250000 0.337500 -0.250000
v -0.250000 0.337500 -0.250000
v -0.250000 3.462500 -0.249999
v 0.250000 3.462500 -0.249999
v -0.250000 0.337500 0.250000
v 0.250000 0.337500 0.250000
v 0.250000 3.462500 0.250001
v -0.250000 3.462500 0.250001
vt 0.125000 0.140625
vt 0.125000 0.531250
vt 0.062500 0.531250
vt 0.250000 0.140625
vt 0.250000 0.531250
vt 0.187500 0.531250
vt 0.125000 0.593750
vt 0.062500 0.593750
vt 0.187500 0.593750
vt 0.062500 0.140625
vt 0.000000 0.531250
vt 0.187500 0.140625
vt 0.000000 0.140625
vn 0.000000 0.000000 -1.000000
vn 0.000000 -0.000000 1.000000
vn 0.000000 1.000000 0.000000
vn 0.000000 -1.000000 -0.000000
vn 1.000000 -0.000000 0.000000
vn -1.000000 0.000000 0.000000
usemtl Material
s off
f 10/15/7 11/16/7 12/17/7
f 14/18/8 15/19/8 16/20/8
f 11/16/9 16/21/9 15/22/9
f 13/20/10 10/23/10 9/21/10
f 9/24/11 12/17/11 15/25/11
f 13/26/12 16/20/12 11/16/12
f 9/24/7 10/15/7 12/17/7
f 13/26/8 14/18/8 16/20/8
f 12/17/9 11/16/9 15/22/9
f 14/16/10 13/20/10 9/21/10
f 14/27/11 9/24/11 15/25/11
f 10/15/12 13/26/12 11/16/12
