# 3ds Max Wavefront OBJ Exporter v0.97b - (c)2007 guruware
# File Created: 22.01.2017 18:04:58

mtllib head_concussion.mtl

#
# object Component_12
#

v  -1.4617 377.9529 22.6650
v  1.4618 377.9529 -22.6651
v  -20.3593 377.9529 -10.0666
v  20.3594 377.9529 10.0666
v  -20.3593 314.9607 -10.0666
v  1.4618 314.9607 -22.6651
v  -1.4617 314.9607 22.6650
v  20.3594 314.9607 10.0666
# 8 vertices

vn 0.0000 1.0000 -0.0000
vn -1.0000 0.0000 -0.0000
vn 0.0000 0.0000 1.0000
vn 1.0000 0.0000 -0.0000
vn 0.0000 0.0000 -1.0000
vn 0.0000 -1.0000 -0.0000
# 6 vertex normals

vt 0.0313 0.1953 0.0000
vt 0.0781 0.1641 0.0000
vt 0.0781 0.1953 0.0000
vt 0.0313 0.1641 0.0000
vt 0.1094 0.0859 0.0000
vt 0.1094 0.1641 0.0000
vt 0.0781 0.0859 0.0000
vt 0.0313 0.0859 0.0000
vt 0.0000 0.1641 0.0000
vt 0.0000 0.0859 0.0000
vt 0.1563 0.1641 0.0000
vt 0.1563 0.0859 0.0000
vt 0.1250 0.1641 0.0000
vt 0.1250 0.1953 0.0000
# 14 texture coords

g Component_12
usemtl Material__8
s off
f 1/1/1 2/2/1 3/3/1 
f 2/2/1 1/1/1 4/4/1 
f 2/2/2 5/5/2 3/6/2 
f 5/5/2 2/2/2 6/7/2 
f 1/2/3 5/8/3 7/7/3 
f 5/8/3 1/2/3 3/4/3 
f 8/8/4 1/9/4 7/10/4 
f 1/9/4 8/8/4 4/4/4 
f 2/11/5 8/5/5 6/12/5 
f 8/5/5 2/11/5 4/6/5 
f 8/3/6 5/13/6 6/14/6 
f 5/13/6 8/3/6 7/2/6 
# 12 faces

#
# object Component_12
#

v  18.8977 377.9529 12.5984
v  -18.8976 377.9529 -12.5984
v  -18.8976 377.9529 12.5984
v  18.8977 377.9529 -12.5984
v  -18.8976 314.9607 12.5984
v  -18.8976 314.9607 -12.5984
v  18.8977 314.9607 12.5984
v  18.8977 314.9607 -12.5984
# 8 vertices

vn 0.0000 1.0000 -0.0000
vn -1.0000 0.0000 -0.0000
vn 0.0000 0.0000 1.0000
vn 1.0000 0.0000 -0.0000
vn 0.0000 0.0000 -1.0000
vn 0.0000 -1.0000 -0.0000
# 6 vertex normals

vt 0.0313 0.1953 0.0000
vt 0.0781 0.1641 0.0000
vt 0.0781 0.1953 0.0000
vt 0.0313 0.1641 0.0000
vt 0.1094 0.0859 0.0000
vt 0.1094 0.1641 0.0000
vt 0.0781 0.0859 0.0000
vt 0.0313 0.0859 0.0000
vt 0.0000 0.1641 0.0000
vt 0.0000 0.0859 0.0000
vt 0.1563 0.1641 0.0000
vt 0.1563 0.0859 0.0000
vt 0.1250 0.1641 0.0000
vt 0.1250 0.1953 0.0000
# 14 texture coords

g Component_12
usemtl Material__8
s off
f 9/15/7 10/16/7 11/17/7 
f 10/16/7 9/15/7 12/18/7 
f 10/16/8 13/19/8 11/20/8 
f 13/19/8 10/16/8 14/21/8 
f 9/16/9 13/22/9 15/21/9 
f 13/22/9 9/16/9 11/18/9 
f 16/22/10 9/23/10 15/24/10 
f 9/23/10 16/22/10 12/18/10 
f 10/25/11 16/19/11 14/26/11 
f 16/19/11 10/25/11 12/20/11 
f 16/17/12 13/27/12 14/28/12 
f 13/27/12 16/17/12 15/16/12 
# 12 faces

#
# object Component_12
#

v  20.3594 377.9529 -10.0666
v  -20.3593 377.9529 10.0666
v  1.4618 377.9529 22.6650
v  -1.4617 377.9529 -22.6651
v  1.4618 314.9607 22.6650
v  -20.3593 314.9607 10.0666
v  20.3594 314.9607 -10.0666
v  -1.4617 314.9607 -22.6651
# 8 vertices

vn 0.0000 1.0000 -0.0000
vn -1.0000 0.0000 -0.0000
vn 0.0000 0.0000 1.0000
vn 1.0000 0.0000 -0.0000
vn 0.0000 0.0000 -1.0000
vn 0.0000 -1.0000 -0.0000
# 6 vertex normals

vt 0.0313 0.1953 0.0000
vt 0.0781 0.1641 0.0000
vt 0.0781 0.1953 0.0000
vt 0.0313 0.1641 0.0000
vt 0.1094 0.0859 0.0000
vt 0.1094 0.1641 0.0000
vt 0.0781 0.0859 0.0000
vt 0.0313 0.0859 0.0000
vt 0.0000 0.1641 0.0000
vt 0.0000 0.0859 0.0000
vt 0.1563 0.1641 0.0000
vt 0.1563 0.0859 0.0000
vt 0.1250 0.1641 0.0000
vt 0.1250 0.1953 0.0000
# 14 texture coords

g Component_12
usemtl Material__8
s off
f 17/29/13 18/30/13 19/31/13 
f 18/30/13 17/29/13 20/32/13 
f 18/30/14 21/33/14 19/34/14 
f 21/33/14 18/30/14 22/35/14 
f 17/30/15 21/36/15 23/35/15 
f 21/36/15 17/30/15 19/32/15 
f 24/36/16 17/37/16 23/38/16 
f 17/37/16 24/36/16 20/32/16 
f 18/39/17 24/33/17 22/40/17 
f 24/33/17 18/39/17 20/34/17 
f 24/31/18 21/41/18 22/42/18 
f 21/41/18 24/31/18 23/30/18 
# 12 faces

#
# object Component_11
#

v  2.3057 410.9773 -8.6049
v  -8.6048 373.1820 -2.3057
v  -8.6048 410.9773 -2.3057
v  2.3057 373.1820 -8.6049
v  8.6049 373.1820 2.3057
v  -2.3056 373.1820 8.6049
v  -2.3056 410.9773 8.6049
v  8.6049 410.9773 2.3057
# 8 vertices

vn -1.0000 0.0000 -0.0000
vn 0.0000 -1.0000 -0.0000
vn 0.0000 0.0000 1.0000
vn 0.0000 1.0000 -0.0000
vn 0.0000 0.0000 -1.0000
vn 1.0000 0.0000 -0.0000
# 6 vertex normals

vt 0.2109 0.2500 0.0000
vt 0.2266 0.2031 0.0000
vt 0.2266 0.2500 0.0000
vt 0.2109 0.2031 0.0000
vt 0.2422 0.2500 0.0000
vt 0.2266 0.2656 0.0000
vt 0.2422 0.2656 0.0000
vt 0.2578 0.2500 0.0000
vt 0.2422 0.2031 0.0000
vt 0.2578 0.2031 0.0000
vt 0.2109 0.2656 0.0000
vt 0.1953 0.2500 0.0000
vt 0.1953 0.2031 0.0000
# 13 texture coords

g Component_11
usemtl Material__8
s off
f 25/43/19 26/44/19 27/45/19 
f 26/44/19 25/43/19 28/46/19 
f 29/47/20 26/48/20 28/45/20 
f 26/48/20 29/47/20 30/49/20 
f 31/50/21 26/51/21 30/52/21 
f 26/51/21 31/50/21 27/47/21 
f 31/45/22 25/53/22 27/43/22 
f 25/53/22 31/45/22 32/48/22 
f 25/47/23 29/44/23 28/51/23 
f 29/44/23 25/47/23 32/45/23 
f 29/46/24 31/54/24 30/55/24 
f 31/54/24 29/46/24 32/43/24 
# 12 faces

#
# object Component_11
#

v  -8.6048 410.9773 2.3057
v  2.3057 373.1820 8.6049
v  2.3057 410.9773 8.6049
v  -8.6048 373.1820 2.3057
v  -2.3056 373.1820 -8.6049
v  8.6049 373.1820 -2.3057
v  8.6049 410.9773 -2.3057
v  -2.3056 410.9773 -8.6049
# 8 vertices

vn -1.0000 0.0000 -0.0000
vn 0.0000 -1.0000 -0.0000
vn 0.0000 0.0000 1.0000
vn 0.0000 1.0000 -0.0000
vn 0.0000 0.0000 -1.0000
vn 1.0000 0.0000 -0.0000
# 6 vertex normals

vt 0.2109 0.2500 0.0000
vt 0.2266 0.2031 0.0000
vt 0.2266 0.2500 0.0000
vt 0.2109 0.2031 0.0000
vt 0.2422 0.2500 0.0000
vt 0.2266 0.2656 0.0000
vt 0.2422 0.2656 0.0000
vt 0.2578 0.2500 0.0000
vt 0.2422 0.2031 0.0000
vt 0.2578 0.2031 0.0000
vt 0.2109 0.2656 0.0000
vt 0.1953 0.2500 0.0000
vt 0.1953 0.2031 0.0000
# 13 texture coords

g Component_11
usemtl Material__8
s off
f 33/56/25 34/57/25 35/58/25 
f 34/57/25 33/56/25 36/59/25 
f 37/60/26 34/61/26 36/58/26 
f 34/61/26 37/60/26 38/62/26 
f 39/63/27 34/64/27 38/65/27 
f 34/64/27 39/63/27 35/60/27 
f 39/58/28 33/66/28 35/56/28 
f 33/66/28 39/58/28 40/61/28 
f 33/60/29 37/57/29 36/64/29 
f 37/57/29 33/60/29 40/58/29 
f 37/59/30 39/67/30 38/68/30 
f 39/67/30 37/59/30 40/56/30 
# 12 faces

#
# object Component_11
#

v  -6.2992 410.9773 -6.2992
v  -6.2992 373.1820 6.2992
v  -6.2992 410.9773 6.2992
v  -6.2992 373.1820 -6.2992
v  6.2993 373.1820 -6.2992
v  6.2993 373.1820 6.2992
v  6.2993 410.9773 6.2992
v  6.2993 410.9773 -6.2992
# 8 vertices

vn -1.0000 0.0000 -0.0000
vn 0.0000 -1.0000 -0.0000
vn 0.0000 0.0000 1.0000
vn 0.0000 1.0000 -0.0000
vn 0.0000 0.0000 -1.0000
vn 1.0000 0.0000 -0.0000
# 6 vertex normals

vt 0.2109 0.2500 0.0000
vt 0.2266 0.2031 0.0000
vt 0.2266 0.2500 0.0000
vt 0.2109 0.2031 0.0000
vt 0.2422 0.2500 0.0000
vt 0.2266 0.2656 0.0000
vt 0.2422 0.2656 0.0000
vt 0.2578 0.2500 0.0000
vt 0.2422 0.2031 0.0000
vt 0.2578 0.2031 0.0000
vt 0.2109 0.2656 0.0000
vt 0.1953 0.2500 0.0000
vt 0.1953 0.2031 0.0000
# 13 texture coords

g Component_11
usemtl Material__8
s off
f 41/69/31 42/70/31 43/71/31 
f 42/70/31 41/69/31 44/72/31 
f 45/73/32 42/74/32 44/71/32 
f 42/74/32 45/73/32 46/75/32 
f 47/76/33 42/77/33 46/78/33 
f 42/77/33 47/76/33 43/73/33 
f 47/71/34 41/79/34 43/69/34 
f 41/79/34 47/71/34 48/74/34 
f 41/73/35 45/70/35 44/77/35 
f 45/70/35 41/73/35 48/71/35 
f 45/72/36 47/80/36 46/81/36 
f 47/80/36 45/72/36 48/69/36 
# 12 faces

#
# object Component_10
#

v  -7.9073 377.9529 -26.2943
v  -5.4552 351.2275 3.1496
v  -18.8178 377.9529 -19.9951
v  5.4554 351.2275 -3.1496
v  18.8180 377.9528 19.9952
v  7.9075 377.9528 26.2944
v  -5.4552 404.6781 3.1497
v  5.4554 404.6781 -3.1496
# 8 vertices

vn -1.0000 0.0000 -0.0000
vn 0.0000 -1.0000 -0.0000
vn 0.0000 -0.0000 1.0000
vn 0.0000 1.0000 0.0000
vn 0.0000 0.0000 -1.0000
vn 1.0000 0.0000 -0.0000
# 6 vertex normals

vt 0.2578 0.3203 0.0000
vt 0.2734 0.2734 0.0000
vt 0.2734 0.3203 0.0000
vt 0.2578 0.2734 0.0000
vt 0.1953 0.2734 0.0000
vt 0.2109 0.3203 0.0000
vt 0.1953 0.3203 0.0000
vt 0.2109 0.2734 0.0000
vt 0.2109 0.3359 0.0000
vt 0.2578 0.3359 0.0000
vt 0.3203 0.3203 0.0000
vt 0.3203 0.2734 0.0000
vt 0.3047 0.3359 0.0000
vt 0.3047 0.3203 0.0000
# 14 texture coords

g Component_10
usemtl Material__8
s off
f 49/82/37 50/83/37 51/84/37 
f 50/83/37 49/82/37 52/85/37 
f 53/86/38 50/87/38 52/88/38 
f 50/87/38 53/86/38 54/89/38 
f 55/82/39 50/89/39 54/85/39 
f 50/89/39 55/82/39 51/87/39 
f 55/90/40 49/82/40 51/91/40 
f 49/82/40 55/90/40 56/87/40 
f 49/92/41 53/83/41 52/93/41 
f 53/83/41 49/92/41 56/84/41 
f 53/82/42 55/94/42 54/91/42 
f 55/94/42 53/82/42 56/95/42 
# 12 faces

#
# object Component_10
#

v  -26.7253 377.9529 -6.2992
v  0.0000 351.2276 6.2992
v  -26.7253 377.9529 6.2992
v  0.0000 351.2276 -6.2992
v  26.7253 377.9529 -6.2992
v  26.7253 377.9529 6.2992
v  0.0001 404.6782 6.2992
v  0.0001 404.6782 -6.2992
# 8 vertices

vn -1.0000 0.0000 -0.0000
vn 0.0000 -1.0000 -0.0000
vn 0.0000 0.0000 1.0000
vn 0.0000 1.0000 -0.0000
vn 0.0000 0.0000 -1.0000
vn 1.0000 0.0000 -0.0000
# 6 vertex normals

vt 0.2578 0.3203 0.0000
vt 0.2734 0.2734 0.0000
vt 0.2734 0.3203 0.0000
vt 0.2578 0.2734 0.0000
vt 0.1953 0.2734 0.0000
vt 0.2109 0.3203 0.0000
vt 0.1953 0.3203 0.0000
vt 0.2109 0.2734 0.0000
vt 0.2109 0.3359 0.0000
vt 0.2578 0.3359 0.0000
vt 0.3203 0.3203 0.0000
vt 0.3203 0.2734 0.0000
vt 0.3047 0.3359 0.0000
vt 0.3047 0.3203 0.0000
# 14 texture coords

g Component_10
usemtl Material__8
s off
f 57/96/43 58/97/43 59/98/43 
f 58/97/43 57/96/43 60/99/43 
f 61/100/44 58/101/44 60/102/44 
f 58/101/44 61/100/44 62/103/44 
f 63/96/45 58/103/45 62/99/45 
f 58/103/45 63/96/45 59/101/45 
f 63/104/46 57/96/46 59/105/46 
f 57/96/46 63/104/46 64/101/46 
f 57/106/47 61/97/47 60/107/47 
f 61/97/47 57/106/47 64/98/47 
f 61/96/48 63/108/48 62/105/48 
f 63/108/48 61/96/48 64/109/48 
# 12 faces

#
# object Component_10
#

v  -18.8179 377.9529 19.9951
v  5.4553 351.2276 3.1496
v  -7.9073 377.9529 26.2944
v  -5.4552 351.2276 -3.1496
v  7.9074 377.9529 -26.2944
v  18.8180 377.9529 -19.9952
v  5.4553 404.6782 3.1496
v  -5.4552 404.6782 -3.1497
# 8 vertices

vn -1.0000 0.0000 -0.0000
vn 0.0000 -1.0000 -0.0000
vn 0.0000 0.0000 1.0000
vn 0.0000 1.0000 -0.0000
vn 0.0000 0.0000 -1.0000
vn 1.0000 0.0000 -0.0000
# 6 vertex normals

vt 0.2578 0.3203 0.0000
vt 0.2734 0.2734 0.0000
vt 0.2734 0.3203 0.0000
vt 0.2578 0.2734 0.0000
vt 0.1953 0.2734 0.0000
vt 0.2109 0.3203 0.0000
vt 0.1953 0.3203 0.0000
vt 0.2109 0.2734 0.0000
vt 0.2109 0.3359 0.0000
vt 0.2578 0.3359 0.0000
vt 0.3203 0.3203 0.0000
vt 0.3203 0.2734 0.0000
vt 0.3047 0.3359 0.0000
vt 0.3047 0.3203 0.0000
# 14 texture coords

g Component_10
usemtl Material__8
s off
f 65/110/49 66/111/49 67/112/49 
f 66/111/49 65/110/49 68/113/49 
f 69/114/50 66/115/50 68/116/50 
f 66/115/50 69/114/50 70/117/50 
f 71/110/51 66/117/51 70/113/51 
f 66/117/51 71/110/51 67/115/51 
f 71/118/52 65/110/52 67/119/52 
f 65/110/52 71/118/52 72/115/52 
f 65/120/53 69/111/53 68/121/53 
f 69/111/53 65/120/53 72/112/53 
f 69/110/54 71/122/54 70/119/54 
f 71/122/54 69/110/54 72/123/54 
# 12 faces

#
# object Component_9
#

v  -18.0536 377.9528 -18.6715
v  18.0538 377.9528 18.6715
v  -7.1431 377.9528 -24.9707
v  7.1432 377.9528 24.9707
v  -18.0536 289.7638 -18.6715
v  -7.1431 289.7638 -24.9707
v  7.1432 289.7638 24.9707
v  18.0538 289.7638 18.6715
# 8 vertices

vn 0.0000 1.0000 -0.0000
vn -1.0000 0.0000 0.0000
vn 0.0000 0.0000 1.0000
vn 1.0000 0.0000 -0.0000
vn 0.0000 0.0000 -1.0000
vn 0.0000 -1.0000 -0.0000
# 6 vertex normals

vt 0.0781 0.3359 0.0000
vt 0.0156 0.3203 0.0000
vt 0.0781 0.3203 0.0000
vt 0.0156 0.3359 0.0000
vt 0.0938 0.2109 0.0000
vt 0.0938 0.3203 0.0000
vt 0.0781 0.2109 0.0000
vt 0.0156 0.2109 0.0000
vt 0.0000 0.3203 0.0000
vt -0.0000 0.2109 0.0000
vt 0.1563 0.3203 0.0000
vt 0.1563 0.2109 0.0000
vt 0.1406 0.3203 0.0000
vt 0.1406 0.3359 0.0000
# 14 texture coords

g Component_9
usemtl Material__8
s off
f 73/124/55 74/125/55 75/126/55 
f 74/125/55 73/124/55 76/127/55 
f 75/126/56 77/128/56 73/129/56 
f 77/128/56 75/126/56 78/130/56 
f 76/126/57 77/131/57 79/130/57 
f 77/131/57 76/126/57 73/125/57 
f 80/131/58 76/132/58 79/133/58 
f 76/132/58 80/131/58 74/125/58 
f 75/134/59 80/128/59 78/135/59 
f 80/128/59 75/134/59 74/129/59 
f 80/124/60 77/136/60 78/137/60 
f 77/136/60 80/124/60 79/126/60 
# 12 faces

#
# object Component_9
#

v  -25.1968 377.9528 6.2992
v  25.1969 377.9528 -6.2992
v  -25.1968 377.9528 -6.2992
v  25.1969 377.9528 6.2992
v  -25.1968 289.7638 6.2992
v  -25.1968 289.7638 -6.2992
v  25.1969 289.7638 6.2992
v  25.1969 289.7638 -6.2992
# 8 vertices

vn 0.0000 1.0000 -0.0000
vn -1.0000 0.0000 0.0000
vn 0.0000 0.0000 1.0000
vn 1.0000 0.0000 -0.0000
vn 0.0000 0.0000 -1.0000
vn 0.0000 -1.0000 -0.0000
# 6 vertex normals

vt 0.0781 0.3359 0.0000
vt 0.0156 0.3203 0.0000
vt 0.0781 0.3203 0.0000
vt 0.0156 0.3359 0.0000
vt 0.0938 0.2109 0.0000
vt 0.0938 0.3203 0.0000
vt 0.0781 0.2109 0.0000
vt 0.0156 0.2109 0.0000
vt 0.0000 0.3203 0.0000
vt -0.0000 0.2109 0.0000
vt 0.1563 0.3203 0.0000
vt 0.1563 0.2109 0.0000
vt 0.1406 0.3203 0.0000
vt 0.1406 0.3359 0.0000
# 14 texture coords

g Component_9
usemtl Material__8
s off
f 81/138/61 82/139/61 83/140/61 
f 82/139/61 81/138/61 84/141/61 
f 83/140/62 85/142/62 81/143/62 
f 85/142/62 83/140/62 86/144/62 
f 84/140/63 85/145/63 87/144/63 
f 85/145/63 84/140/63 81/139/63 
f 88/145/64 84/146/64 87/147/64 
f 84/146/64 88/145/64 82/139/64 
f 83/148/65 88/142/65 86/149/65 
f 88/142/65 83/148/65 82/143/65 
f 88/138/66 85/150/66 86/151/66 
f 85/150/66 88/138/66 87/140/66 
# 12 faces

#
# object Component_9
#

v  -7.1431 377.9528 24.9707
v  7.1432 377.9528 -24.9707
v  -18.0536 377.9528 18.6715
v  18.0538 377.9528 -18.6715
v  -7.1431 289.7638 24.9707
v  -18.0536 289.7638 18.6715
v  18.0538 289.7638 -18.6715
v  7.1432 289.7638 -24.9707
# 8 vertices

vn 0.0000 1.0000 -0.0000
vn -1.0000 0.0000 0.0000
vn 0.0000 0.0000 1.0000
vn 1.0000 0.0000 -0.0000
vn 0.0000 0.0000 -1.0000
vn 0.0000 -1.0000 -0.0000
# 6 vertex normals

vt 0.0781 0.3359 0.0000
vt 0.0156 0.3203 0.0000
vt 0.0781 0.3203 0.0000
vt 0.0156 0.3359 0.0000
vt 0.0938 0.2109 0.0000
vt 0.0938 0.3203 0.0000
vt 0.0781 0.2109 0.0000
vt 0.0156 0.2109 0.0000
vt 0.0000 0.3203 0.0000
vt -0.0000 0.2109 0.0000
vt 0.1563 0.3203 0.0000
vt 0.1563 0.2109 0.0000
vt 0.1406 0.3203 0.0000
vt 0.1406 0.3359 0.0000
# 14 texture coords

g Component_9
usemtl Material__8
s off
f 89/152/67 90/153/67 91/154/67 
f 90/153/67 89/152/67 92/155/67 
f 91/154/68 93/156/68 89/157/68 
f 93/156/68 91/154/68 94/158/68 
f 92/154/69 93/159/69 95/158/69 
f 93/159/69 92/154/69 89/153/69 
f 96/159/70 92/160/70 95/161/70 
f 92/160/70 96/159/70 90/153/70 
f 91/162/71 96/156/71 94/163/71 
f 96/156/71 91/162/71 90/157/71 
f 96/152/72 93/164/72 94/165/72 
f 93/164/72 96/152/72 95/154/72 
# 12 faces

