# 3ds Max Wavefront OBJ Exporter v0.97b - (c)2007 guruware
# File Created: 22.01.2017 18:05:50

mtllib head_incen.mtl

#
# object group_24
#

v  18.8977 314.9606 -18.8977
v  18.8977 359.0551 18.8976
v  18.8977 314.9606 18.8976
v  18.8977 359.0551 -18.8977
v  -18.8976 314.9606 18.8976
v  -18.8976 314.9606 -18.8977
v  -18.8976 359.0551 -18.8977
v  -18.8976 359.0551 18.8976
# 8 vertices

vn 1.0000 0.0000 -0.0000
vn 0.0000 -1.0000 -0.0000
vn 0.0000 0.0000 -1.0000
vn 0.0000 1.0000 -0.0000
vn 0.0000 0.0000 1.0000
vn -1.0000 0.0000 -0.0000
# 6 vertex normals

vt 0.0938 0.2891 0.0000
vt 0.1406 0.2344 0.0000
vt 0.1406 0.2891 0.0000
vt 0.0938 0.2344 0.0000
vt 0.0938 0.3359 0.0000
vt 0.1406 0.3359 0.0000
vt 0.0469 0.2344 0.0000
vt 0.0469 0.2891 0.0000
vt 0.0469 0.3359 0.0000
vt 0.0000 0.2344 0.0000
vt 0.0000 0.2891 0.0000
vt 0.1875 0.2344 0.0000
vt 0.1875 0.2891 0.0000
# 13 texture coords

g group_24
usemtl Material__5
s off
f 1/1/1 2/2/1 3/3/1 
f 2/2/1 1/1/1 4/4/1 
f 1/3/2 5/5/2 6/1/2 
f 5/5/2 1/3/2 3/6/2 
f 7/7/3 1/1/3 6/8/3 
f 1/1/3 7/7/3 4/4/3 
f 2/1/4 7/9/4 8/8/4 
f 7/9/4 2/1/4 4/5/4 
f 2/10/5 5/8/5 3/11/5 
f 5/8/5 2/10/5 8/7/5 
f 7/12/6 5/3/6 8/2/6 
f 5/3/6 7/12/6 6/13/6 
# 12 faces

#
# object group_23
#

v  6.2993 396.8504 6.2992
v  -6.2992 396.8504 -6.2992
v  -6.2992 396.8504 6.2992
v  6.2993 396.8504 -6.2992
v  -6.2992 359.0551 6.2992
v  -6.2992 359.0551 -6.2992
v  6.2993 359.0551 6.2992
v  6.2993 359.0551 -6.2992
# 8 vertices

vn 0.0000 1.0000 -0.0000
vn -1.0000 0.0000 -0.0000
vn 0.0000 0.0000 1.0000
vn 1.0000 0.0000 -0.0000
vn 0.0000 0.0000 -1.0000
vn 0.0000 -1.0000 -0.0000
# 6 vertex normals

vt 0.2344 0.1953 0.0000
vt 0.2188 0.2109 0.0000
vt 0.2188 0.1953 0.0000
vt 0.2344 0.2109 0.0000
vt 0.2344 0.1484 0.0000
vt 0.2188 0.1484 0.0000
vt 0.2031 0.1484 0.0000
vt 0.2031 0.1953 0.0000
vt 0.2500 0.1953 0.0000
vt 0.2656 0.1484 0.0000
vt 0.2656 0.1953 0.0000
vt 0.2500 0.1484 0.0000
vt 0.2500 0.2109 0.0000
# 13 texture coords

g group_23
usemtl Material__5
s off
f 9/14/7 10/15/7 11/16/7 
f 10/15/7 9/14/7 12/17/7 
f 10/18/8 13/16/8 11/19/8 
f 13/16/8 10/18/8 14/14/8 
f 9/20/9 13/16/9 15/21/9 
f 13/16/9 9/20/9 11/19/9 
f 16/22/10 9/23/10 15/24/10 
f 9/23/10 16/22/10 12/25/10 
f 10/18/11 16/22/11 14/14/11 
f 16/22/11 10/18/11 12/25/11 
f 16/22/12 13/17/12 14/14/12 
f 13/17/12 16/22/12 15/26/12 
# 12 faces

#
# object Component_15
#

v  -17.5930 365.3544 -26.5015
v  -4.4541 334.1749 4.4542
v  -26.5014 365.3544 -17.5930
v  4.4543 334.1749 -4.4542
v  26.5016 365.3544 17.5930
v  17.5931 365.3544 26.5015
v  -4.4541 396.5339 4.4542
v  4.4543 396.5339 -4.4542
# 8 vertices

vn -1.0000 0.0000 -0.0000
vn 0.0000 -1.0000 -0.0000
vn 0.0000 0.0000 1.0000
vn 0.0000 1.0000 -0.0000
vn 0.0000 0.0000 -1.0000
vn 1.0000 0.0000 -0.0000
# 6 vertex normals

vt 0.3438 0.2266 0.0000
vt 0.3281 0.2813 0.0000
vt 0.3281 0.2266 0.0000
vt 0.3438 0.2813 0.0000
vt 0.2734 0.3359 0.0000
vt 0.2578 0.2813 0.0000
vt 0.2734 0.2813 0.0000
vt 0.2578 0.3359 0.0000
vt 0.2031 0.2266 0.0000
vt 0.2578 0.2266 0.0000
vt 0.2031 0.2813 0.0000
vt 0.2891 0.3359 0.0000
vt 0.2891 0.2813 0.0000
vt 0.2734 0.2266 0.0000
# 14 texture coords

g Component_15
usemtl Material__5
s off
f 17/27/13 18/28/13 19/29/13 
f 18/28/13 17/27/13 20/30/13 
f 21/31/14 18/32/14 20/33/14 
f 18/32/14 21/31/14 22/34/14 
f 23/32/15 18/35/15 22/36/15 
f 18/35/15 23/32/15 19/37/15 
f 23/38/16 17/33/16 19/39/16 
f 17/33/16 23/38/16 24/31/16 
f 17/28/17 21/40/17 20/29/17 
f 21/40/17 17/28/17 24/33/17 
f 21/32/18 23/40/18 22/33/18 
f 23/40/18 21/32/18 24/36/18 
# 12 faces

#
# object Component_15
#

v  -26.5014 365.3543 17.5930
v  4.4543 334.1748 4.4542
v  -17.5929 365.3543 26.5014
v  -4.4541 334.1748 -4.4542
v  17.5931 365.3543 -26.5015
v  26.5016 365.3543 -17.5931
v  4.4543 396.5338 4.4542
v  -4.4541 396.5338 -4.4542
# 8 vertices

vn -1.0000 0.0000 -0.0000
vn 0.0000 -1.0000 -0.0000
vn 0.0000 0.0000 1.0000
vn 0.0000 1.0000 -0.0000
vn 0.0000 0.0000 -1.0000
vn 1.0000 0.0000 -0.0000
# 6 vertex normals

vt 0.3438 0.2266 0.0000
vt 0.3281 0.2813 0.0000
vt 0.3281 0.2266 0.0000
vt 0.3438 0.2813 0.0000
vt 0.2734 0.3359 0.0000
vt 0.2578 0.2813 0.0000
vt 0.2734 0.2813 0.0000
vt 0.2578 0.3359 0.0000
vt 0.2031 0.2266 0.0000
vt 0.2578 0.2266 0.0000
vt 0.2031 0.2813 0.0000
vt 0.2891 0.3359 0.0000
vt 0.2891 0.2813 0.0000
vt 0.2734 0.2266 0.0000
# 14 texture coords

g Component_15
usemtl Material__5
s off
f 25/41/19 26/42/19 27/43/19 
f 26/42/19 25/41/19 28/44/19 
f 29/45/20 26/46/20 28/47/20 
f 26/46/20 29/45/20 30/48/20 
f 31/46/21 26/49/21 30/50/21 
f 26/49/21 31/46/21 27/51/21 
f 31/52/22 25/47/22 27/53/22 
f 25/47/22 31/52/22 32/45/22 
f 25/42/23 29/54/23 28/43/23 
f 29/54/23 25/42/23 32/47/23 
f 29/46/24 31/54/24 30/47/24 
f 31/54/24 29/46/24 32/50/24 
# 12 faces

#
# object Component_14
#

v  -17.8168 365.3544 -26.7253
v  26.7254 321.2599 17.8169
v  -17.8168 321.2599 -26.7253
v  26.7254 365.3544 17.8169
v  -26.7252 321.2599 -17.8169
v  17.8169 321.2599 26.7253
v  -26.7252 365.3544 -17.8169
v  17.8169 365.3544 26.7253
# 8 vertices

vn 0.0000 0.0000 -1.0000
vn 0.0000 -1.0000 -0.0000
vn -1.0000 0.0000 -0.0000
vn 0.0000 1.0000 -0.0000
vn 1.0000 0.0000 -0.0000
vn 0.0000 0.0000 1.0000
# 6 vertex normals

vt 0.0938 0.0781 0.0000
vt 0.1719 0.1328 0.0000
vt 0.0938 0.1328 0.0000
vt 0.1719 0.0781 0.0000
vt 0.1094 0.2109 0.0000
vt 0.0938 0.2109 0.0000
vt 0.1094 0.1328 0.0000
vt 0.0781 0.1328 0.0000
vt 0.0781 0.0781 0.0000
vt 0.0781 0.2109 0.0000
vt 0.1875 0.0781 0.0000
vt 0.1875 0.1328 0.0000
vt 0.0000 0.0781 0.0000
vt 0.0000 0.1328 0.0000
# 14 texture coords

g Component_14
usemtl Material__5
s off
f 33/55/25 34/56/25 35/57/25 
f 34/56/25 33/55/25 36/58/25 
f 34/57/26 37/59/26 35/60/26 
f 37/59/26 34/57/26 38/61/26 
f 33/55/27 37/62/27 39/63/27 
f 37/62/27 33/55/27 35/57/27 
f 40/62/28 33/60/28 39/64/28 
f 33/60/28 40/62/28 36/57/28 
f 34/56/29 40/65/29 38/66/29 
f 40/65/29 34/56/29 36/58/29 
f 40/67/30 37/62/30 38/68/30 
f 37/62/30 40/67/30 39/63/30 
# 12 faces

#
# object Component_14
#

v  -26.7252 365.3544 17.8169
v  17.8169 321.2599 -26.7253
v  -26.7252 321.2599 17.8169
v  17.8169 365.3544 -26.7253
v  -17.8168 321.2599 26.7253
v  26.7254 321.2599 -17.8169
v  -17.8168 365.3544 26.7253
v  26.7254 365.3544 -17.8169
# 8 vertices

vn 0.0000 0.0000 -1.0000
vn 0.0000 -1.0000 -0.0000
vn -1.0000 0.0000 -0.0000
vn 0.0000 1.0000 -0.0000
vn 1.0000 0.0000 -0.0000
vn 0.0000 0.0000 1.0000
# 6 vertex normals

vt 0.0938 0.0781 0.0000
vt 0.1719 0.1328 0.0000
vt 0.0938 0.1328 0.0000
vt 0.1719 0.0781 0.0000
vt 0.1094 0.2109 0.0000
vt 0.0938 0.2109 0.0000
vt 0.1094 0.1328 0.0000
vt 0.0781 0.1328 0.0000
vt 0.0781 0.0781 0.0000
vt 0.0781 0.2109 0.0000
vt 0.1875 0.0781 0.0000
vt 0.1875 0.1328 0.0000
vt 0.0000 0.0781 0.0000
vt 0.0000 0.1328 0.0000
# 14 texture coords

g Component_14
usemtl Material__5
s off
f 41/69/31 42/70/31 43/71/31 
f 42/70/31 41/69/31 44/72/31 
f 42/71/32 45/73/32 43/74/32 
f 45/73/32 42/71/32 46/75/32 
f 41/69/33 45/76/33 47/77/33 
f 45/76/33 41/69/33 43/71/33 
f 48/76/34 41/74/34 47/78/34 
f 41/74/34 48/76/34 44/71/34 
f 42/70/35 48/79/35 46/80/35 
f 48/79/35 42/70/35 44/72/35 
f 48/81/36 45/76/36 46/82/36 
f 45/76/36 48/81/36 47/77/36 
# 12 faces

