# 3ds Max Wavefront OBJ Exporter v0.97b - (c)2007 guruware
# File Created: 01.02.2017 18:36:26

mtllib missile_head_nuclear.mtl

#
# object group_9
#

v  25.1968 554.3306 -25.1968
v  -25.1969 554.3306 25.1968
v  -25.1969 554.3306 -25.1968
v  25.1968 554.3306 25.1968
v  -25.1969 592.1259 -25.1968
v  25.1968 592.1259 -25.1968
v  25.1968 592.1259 25.1968
v  -25.1969 592.1259 25.1968
# 8 vertices

vn 0.0000 -1.0000 -0.0000
vn 0.0000 0.0000 -1.0000
vn 1.0000 0.0000 -0.0000
vn 0.0000 0.0000 1.0000
vn -1.0000 0.0000 -0.0000
vn 0.0000 1.0000 -0.0000
# 6 vertex normals

vt 0.7500 0.2266 0.0000
vt 0.6875 0.2891 0.0000
vt 0.6875 0.2266 0.0000
vt 0.7500 0.2891 0.0000
vt 0.6875 0.1797 0.0000
vt 0.7500 0.1797 0.0000
vt 0.6250 0.1797 0.0000
vt 0.5625 0.2266 0.0000
vt 0.5625 0.1797 0.0000
vt 0.6250 0.2266 0.0000
vt 0.8125 0.2266 0.0000
vt 0.8125 0.1797 0.0000
vt 0.6250 0.2891 0.0000
# 13 texture coords

g group_9
usemtl Material__27
s off
f 1/1/1 2/2/1 3/3/1 
f 2/2/1 1/1/1 4/4/1 
f 5/1/2 1/5/2 3/6/2 
f 1/5/2 5/1/2 6/3/2 
f 1/7/3 7/8/3 4/9/3 
f 7/8/3 1/7/3 6/10/3 
f 7/11/4 2/6/4 4/12/4 
f 2/6/4 7/11/4 8/1/4 
f 5/10/5 2/5/5 8/3/5 
f 2/5/5 5/10/5 3/7/5 
f 7/3/6 5/13/6 8/10/6 
f 5/13/6 7/3/6 6/2/6 
# 12 faces

#
# object group_11
#

v  18.8976 592.1260 -18.8976
v  18.8976 629.9213 18.8976
v  18.8976 592.1260 18.8976
v  18.8976 629.9213 -18.8976
v  -18.8977 592.1260 18.8976
v  -18.8977 592.1260 -18.8976
v  -18.8977 629.9213 -18.8976
v  -18.8977 629.9213 18.8976
# 8 vertices

vn 1.0000 0.0000 -0.0000
vn 0.0000 -1.0000 -0.0000
vn 0.0000 0.0000 -1.0000
vn 0.0000 1.0000 -0.0000
vn 0.0000 0.0000 1.0000
vn -1.0000 0.0000 -0.0000
# 6 vertex normals

vt 0.6094 0.0781 0.0000
vt 0.5625 0.1250 0.0000
vt 0.5625 0.0781 0.0000
vt 0.6094 0.1250 0.0000
vt 0.7031 0.1250 0.0000
vt 0.6563 0.1719 0.0000
vt 0.6563 0.1250 0.0000
vt 0.7031 0.1719 0.0000
vt 0.7500 0.1250 0.0000
vt 0.7031 0.0781 0.0000
vt 0.7500 0.0781 0.0000
vt 0.6094 0.1719 0.0000
vt 0.6563 0.0781 0.0000
# 13 texture coords

g group_11
usemtl Material__27
s off
f 9/14/7 10/15/7 11/16/7 
f 10/15/7 9/14/7 12/17/7 
f 9/18/8 13/19/8 14/20/8 
f 13/19/8 9/18/8 11/21/8 
f 15/22/9 9/23/9 14/24/9 
f 9/23/9 15/22/9 12/18/9 
f 10/20/10 15/25/10 16/17/10 
f 15/25/10 10/20/10 12/19/10 
f 10/20/11 13/14/11 11/26/11 
f 13/14/11 10/20/11 16/17/11 
f 15/20/12 13/23/12 16/18/12 
f 13/23/12 15/20/12 14/26/12 
# 12 faces

#
# object group_10
#

v  12.5984 667.7166 12.5984
v  -12.5984 667.7166 -12.5984
v  -12.5984 667.7166 12.5984
v  12.5984 667.7166 -12.5984
v  12.5984 629.9213 -12.5984
v  -12.5984 629.9213 -12.5984
v  -12.5984 629.9213 12.5984
v  12.5984 629.9213 12.5984
# 8 vertices

vn 0.0000 1.0000 -0.0000
vn 0.0000 0.0000 -1.0000
vn -1.0000 0.0000 -0.0000
vn 0.0000 0.0000 1.0000
vn 1.0000 0.0000 -0.0000
vn 0.0000 -1.0000 -0.0000
# 6 vertex normals

vt 0.9219 0.2578 0.0000
vt 0.8906 0.2891 0.0000
vt 0.8906 0.2578 0.0000
vt 0.9219 0.2891 0.0000
vt 0.9844 0.2578 0.0000
vt 0.9531 0.2109 0.0000
vt 0.9844 0.2109 0.0000
vt 0.9531 0.2578 0.0000
vt 0.8594 0.2578 0.0000
vt 0.8906 0.2109 0.0000
vt 0.8594 0.2109 0.0000
vt 0.9219 0.2109 0.0000
vt 0.9531 0.2891 0.0000
# 13 texture coords

g group_10
usemtl Material__27
s off
f 17/27/13 18/28/13 19/29/13 
f 18/28/13 17/27/13 20/30/13 
f 18/31/14 21/32/14 22/33/14 
f 21/32/14 18/31/14 20/34/14 
f 18/35/15 23/36/15 19/29/15 
f 23/36/15 18/35/15 22/37/15 
f 17/27/16 23/36/16 24/38/16 
f 23/36/16 17/27/16 19/29/16 
f 21/32/17 17/27/17 24/38/17 
f 17/27/17 21/32/17 20/34/17 
f 21/34/18 23/30/18 22/27/18 
f 23/30/18 21/34/18 24/39/18 
# 12 faces

