# Blender v2.76 (sub 0) OBJ File: 'rocket_launcher.blend'
# www.blender.org
mtllib rocket_launcher.mtl
o s
v 0.143306 0.293306 -1.062500
v 0.010723 0.425888 -1.062500
v 0.054918 0.470082 -1.062500
v 0.187500 0.337500 -1.062500
v 0.010723 0.425888 -0.812500
v 0.143306 0.293306 -0.812500
v 0.187500 0.337500 -0.812500
v 0.054918 0.470082 -0.812500
vt 0.031250 0.851563
vt 0.054688 0.851563
vt 0.054688 0.859375
vt 0.109375 0.851563
vt 0.109375 0.859375
vt 0.085938 0.859375
vt 0.054688 0.890625
vt 0.031250 0.890625
vt 0.078125 0.859375
vt 0.078125 0.890625
vt 0.031250 0.859375
vt 0.000000 0.859375
vt 0.085938 0.851563
vt 0.000000 0.851563
vn -0.000000 0.000000 -1.000000
vn 0.000000 0.000000 1.000000
vn 0.707100 0.707100 0.000000
vn -0.707100 -0.707100 -0.000000
vn 0.707100 -0.707100 0.000000
vn -0.707100 0.707100 0.000000
usemtl Material.001
s off
f 1/1/1 2/2/1 3/3/1
f 6/4/2 7/5/2 8/6/2
f 3/3/3 8/7/3 7/8/3
f 5/9/4 2/10/4 1/7/4
f 1/1/5 4/11/5 7/12/5
f 5/13/6 8/6/6 3/3/6
f 4/11/1 1/1/1 3/3/1
f 5/13/2 6/4/2 8/6/2
f 4/11/3 3/3/3 7/8/3
f 6/3/4 5/9/4 1/7/4
f 6/14/5 1/1/5 7/12/5
f 2/2/6 5/13/6 3/3/6
o j
v 0.062500 0.400000 0.687500
v -0.062500 0.400000 0.687500
v -0.062500 0.462500 0.687500
v 0.062500 0.462500 0.687500
v -0.062500 0.400000 1.187500
v 0.062500 0.400000 1.187500
v 0.062500 0.462500 1.187500
v -0.062500 0.462500 1.187500
vt 0.257813 0.515625
vt 0.257813 0.523438
vt 0.242188 0.523438
vt 0.335938 0.515625
vt 0.335938 0.523438
vt 0.320313 0.523438
vt 0.257813 0.585938
vt 0.242188 0.585938
vt 0.273438 0.523438
vt 0.273438 0.585938
vt 0.242188 0.515625
vt 0.179688 0.523438
vt 0.320313 0.515625
vt 0.179688 0.515625
vn 0.000000 0.000000 -1.000000
vn 0.000000 0.000000 1.000000
vn 0.000000 1.000000 0.000000
vn 0.000000 -1.000000 -0.000000
vn 1.000000 0.000000 0.000000
vn -1.000000 0.000000 0.000000
usemtl Material.001
s off
f 10/15/7 11/16/7 12/17/7
f 14/18/8 15/19/8 16/20/8
f 11/16/9 16/21/9 15/22/9
f 13/23/10 10/24/10 9/21/10
f 9/25/11 12/17/11 15/26/11
f 13/27/12 16/20/12 11/16/12
f 9/25/7 10/15/7 12/17/7
f 13/27/8 14/18/8 16/20/8
f 12/17/9 11/16/9 15/22/9
f 14/16/10 13/23/10 9/21/10
f 14/28/11 9/25/11 15/26/11
f 10/15/12 13/27/12 11/16/12
o u
v 0.187500 0.212500 -1.062500
v 0.054917 0.079917 -1.062500
v 0.010723 0.124112 -1.062500
v 0.143306 0.256694 -1.062500
v 0.054917 0.079917 -0.812500
v 0.187500 0.212500 -0.812500
v 0.143306 0.256694 -0.812500
v 0.010723 0.124112 -0.812500
vt 0.031250 0.851563
vt 0.054688 0.851563
vt 0.054688 0.859375
vt 0.109375 0.851563
vt 0.109375 0.859375
vt 0.085938 0.859375
vt 0.054688 0.890625
vt 0.031250 0.890625
vt 0.078125 0.859375
vt 0.078125 0.890625
vt 0.031250 0.859375
vt 0.000000 0.859375
vt 0.085938 0.851563
vt 0.000000 0.851563
vn -0.000000 0.000000 -1.000000
vn -0.000000 -0.000000 1.000000
vn -0.707100 0.707100 0.000000
vn 0.707100 -0.707100 -0.000000
vn 0.707100 0.707100 0.000000
vn -0.707100 -0.707100 -0.000000
usemtl Material.001
s off
f 17/29/13 18/30/13 19/31/13
f 22/32/14 23/33/14 24/34/14
f 19/31/15 24/35/15 23/36/15
f 21/37/16 18/38/16 17/35/16
f 17/29/17 20/39/17 23/40/17
f 21/41/18 24/34/18 19/31/18
f 20/39/13 17/29/13 19/31/13
f 21/41/14 22/32/14 24/34/14
f 20/39/15 19/31/15 23/36/15
f 22/31/16 21/37/16 17/35/16
f 22/42/17 17/29/17 23/40/17
f 18/30/18 21/41/18 19/31/18
o o
v 0.007583 0.392417 -0.375000
v -0.080806 0.304029 -0.375000
v -0.213388 0.436612 -0.375000
v -0.125000 0.525000 -0.375000
v -0.080806 0.304029 -0.312500
v 0.007583 0.392417 -0.312500
v -0.125000 0.525000 -0.312500
v -0.213388 0.436612 -0.312500
vt 0.390625 0.890625
vt 0.390625 0.914063
vt 0.375000 0.914063
vt 0.398438 0.890625
vt 0.414063 0.890625
vt 0.414063 0.914063
vt 0.390625 0.921875
vt 0.375000 0.921875
vt 0.406250 0.914063
vt 0.406250 0.921875
vt 0.375000 0.890625
vt 0.367188 0.914063
vt 0.398438 0.914063
vt 0.367188 0.890625
vn 0.000000 0.000000 -1.000000
vn 0.000000 -0.000000 1.000000
vn -0.707100 0.707100 0.000000
vn 0.707100 -0.707100 0.000000
vn 0.707100 0.707100 0.000000
vn -0.707100 -0.707100 0.000000
usemtl Material.001
s off
f 26/43/19 27/44/19 28/45/19
f 29/46/20 30/47/20 31/48/20
f 27/44/21 32/49/21 31/50/21
f 29/51/22 26/52/22 25/49/22
f 25/53/23 28/45/23 31/54/23
f 29/46/24 32/55/24 27/44/24
f 25/53/19 26/43/19 28/45/19
f 32/55/20 29/46/20 31/48/20
f 28/45/21 27/44/21 31/50/21
f 30/44/22 29/51/22 25/49/22
f 30/56/23 25/53/23 31/54/23
f 26/43/24 29/46/24 27/44/24
o tube_a
v 0.125000 0.150000 -1.000000
v -0.125000 0.150000 -1.000000
v -0.125000 0.400000 -1.000000
v 0.125000 0.400000 -1.000000
v -0.125000 0.150000 1.125000
v 0.125000 0.150000 1.125000
v 0.125000 0.400000 1.125000
v -0.125000 0.400000 1.125000
vt 0.296875 0.703125
vt 0.296875 0.734375
vt 0.265625 0.734375
vt 0.593750 0.703125
vt 0.593750 0.734375
vt 0.562500 0.734375
vt 0.296875 1.000000
vt 0.265625 1.000000
vt 0.328125 0.734375
vt 0.328125 1.000000
vt 0.000000 0.703125
vt 0.265625 0.703125
vt 0.562500 0.703125
vt 0.000000 0.734375
vn 0.000000 0.000000 -1.000000
vn 0.000000 -0.000000 1.000000
vn 0.000000 1.000000 0.000000
vn 0.000000 -1.000000 -0.000000
vn 1.000000 -0.000000 0.000000
vn -1.000000 0.000000 0.000000
usemtl Material.001
s off
f 34/57/25 35/58/25 36/59/25
f 38/60/26 39/61/26 40/62/26
f 35/58/27 40/63/27 39/64/27
f 37/65/28 34/66/28 33/63/28
f 38/67/29 33/68/29 36/59/29
f 37/69/30 40/62/30 35/58/30
f 33/68/25 34/57/25 36/59/25
f 37/69/26 38/60/26 40/62/26
f 36/59/27 35/58/27 39/64/27
f 38/58/28 37/65/28 33/63/28
f 39/70/29 38/67/29 36/59/29
f 34/57/30 37/69/30 35/58/30
o read_grip_c
v 0.000000 -0.100000 0.125000
v -0.062500 -0.100000 0.125000
v -0.062500 0.150000 0.125000
v 0.000000 0.150000 0.125000
v -0.062500 -0.100000 0.250000
v 0.000000 -0.100000 0.250000
v 0.000000 0.150000 0.250000
v -0.062500 0.150000 0.250000
vt 0.078125 0.906250
vt 0.078125 0.937500
vt 0.070313 0.937500
vt 0.101563 0.906250
vt 0.101563 0.937500
vt 0.093750 0.937500
vt 0.078125 0.953125
vt 0.070313 0.953125
vt 0.085938 0.937500
vt 0.085938 0.953125
vt 0.054688 0.906250
vt 0.070313 0.906250
vt 0.093750 0.906250
vt 0.054688 0.937500
vn 0.000000 0.000000 -1.000000
vn 0.000000 -0.000000 1.000000
vn 0.000000 1.000000 0.000000
vn 0.000000 -1.000000 -0.000000
vn 1.000000 0.000000 0.000000
vn -1.000000 0.000000 0.000000
usemtl Material.001
s off
f 42/71/31 43/72/31 44/73/31
f 46/74/32 47/75/32 48/76/32
f 43/72/33 48/77/33 47/78/33
f 45/79/34 42/80/34 41/77/34
f 46/81/35 41/82/35 44/73/35
f 45/83/36 48/76/36 43/72/36
f 41/82/31 42/71/31 44/73/31
f 45/83/32 46/74/32 48/76/32
f 44/73/33 43/72/33 47/78/33
f 46/72/34 45/79/34 41/77/34
f 47/84/35 46/81/35 44/73/35
f 42/71/36 45/83/36 43/72/36
o n
v 0.007583 0.392417 -0.562500
v -0.080806 0.304029 -0.562500
v -0.213388 0.436612 -0.562500
v -0.125000 0.525000 -0.562500
v -0.080806 0.304029 -0.500000
v 0.007583 0.392417 -0.500000
v -0.125000 0.525000 -0.500000
v -0.213388 0.436612 -0.500000
vt 0.390625 0.890625
vt 0.390625 0.914063
vt 0.375000 0.914063
vt 0.398438 0.890625
vt 0.414063 0.890625
vt 0.414063 0.914063
vt 0.390625 0.921875
vt 0.375000 0.921875
vt 0.406250 0.914063
vt 0.406250 0.921875
vt 0.375000 0.890625
vt 0.367188 0.914063
vt 0.398438 0.914063
vt 0.367188 0.890625
vn 0.000000 0.000000 -1.000000
vn 0.000000 -0.000000 1.000000
vn -0.707100 0.707100 0.000000
vn 0.707100 -0.707100 0.000000
vn 0.707100 0.707100 0.000000
vn -0.707100 -0.707100 0.000000
usemtl Material.001
s off
f 50/85/37 51/86/37 52/87/37
f 53/88/38 54/89/38 55/90/38
f 51/86/39 56/91/39 55/92/39
f 53/93/40 50/94/40 49/91/40
f 49/95/41 52/87/41 55/96/41
f 53/88/42 56/97/42 51/86/42
f 49/95/37 50/85/37 52/87/37
f 56/97/38 53/88/38 55/90/38
f 52/87/39 51/86/39 55/92/39
f 54/86/40 53/93/40 49/91/40
f 54/98/41 49/95/41 55/96/41
f 50/85/42 53/88/42 51/86/42
o e
v 0.062500 0.400000 -0.937500
v -0.062500 0.400000 -0.937500
v -0.062500 0.462500 -0.937500
v 0.062500 0.462500 -0.937500
v -0.062500 0.400000 -0.687500
v 0.062500 0.400000 -0.687500
v 0.062500 0.462500 -0.687500
v -0.062500 0.462500 -0.687500
vt 0.046875 0.960938
vt 0.046875 0.968750
vt 0.031250 0.968750
vt 0.093750 0.960938
vt 0.093750 0.968750
vt 0.078125 0.968750
vt 0.046875 1.000000
vt 0.031250 1.000000
vt 0.062500 0.968750
vt 0.062500 1.000000
vt 0.031250 0.960938
vt 0.000000 0.968750
vt 0.078125 0.960938
vt 0.000000 0.960938
vn 0.000000 0.000000 -1.000000
vn 0.000000 0.000000 1.000000
vn 0.000000 1.000000 0.000000
vn 0.000000 -1.000000 0.000000
vn 1.000000 0.000000 0.000000
vn -1.000000 0.000000 0.000000
usemtl Material.001
s off
f 58/99/43 59/100/43 60/101/43
f 62/102/44 63/103/44 64/104/44
f 59/100/45 64/105/45 63/106/45
f 61/107/46 58/108/46 57/105/46
f 57/109/47 60/101/47 63/110/47
f 61/111/48 64/104/48 59/100/48
f 57/109/43 58/99/43 60/101/43
f 61/111/44 62/102/44 64/104/44
f 60/101/45 59/100/45 63/106/45
f 62/100/46 61/107/46 57/105/46
f 62/112/47 57/109/47 63/110/47
f 58/99/48 61/111/48 59/100/48
o k
v -0.018306 0.418306 0.687500
v -0.150888 0.285723 0.687500
v -0.195082 0.329917 0.687500
v -0.062500 0.462500 0.687500
v -0.150888 0.285723 1.187500
v -0.018306 0.418306 1.187500
v -0.062500 0.462500 1.187500
v -0.195082 0.329917 1.187500
vt 0.062500 0.515625
vt 0.085938 0.515625
vt 0.085938 0.523438
vt 0.171875 0.515625
vt 0.171875 0.523438
vt 0.148438 0.523438
vt 0.062500 0.523438
vt 0.085938 0.585938
vt 0.109375 0.523438
vt 0.109375 0.585938
vt 0.000000 0.523438
vt 0.148438 0.515625
vt 0.062500 0.585938
vt 0.000000 0.515625
vn 0.000000 0.000000 -1.000000
vn -0.000000 -0.000000 1.000000
vn -0.707100 0.707100 0.000000
vn 0.707100 -0.707100 0.000000
vn 0.707100 0.707100 0.000000
vn -0.707100 -0.707100 0.000000
usemtl Material.001
s off
f 65/113/49 66/114/49 67/115/49
f 70/116/50 71/117/50 72/118/50
f 68/119/51 67/115/51 72/120/51
f 69/121/52 66/122/52 65/120/52
f 65/113/53 68/119/53 71/123/53
f 69/124/54 72/118/54 67/115/54
f 68/119/49 65/113/49 67/115/49
f 69/124/50 70/116/50 72/118/50
f 71/125/51 68/119/51 72/120/51
f 70/115/52 69/121/52 65/120/52
f 70/126/53 65/113/53 71/123/53
f 66/114/54 69/124/54 67/115/54
o q
v -0.062500 0.087500 -1.062500
v -0.195083 0.220083 -1.062500
v -0.150888 0.264277 -1.062500
v -0.018306 0.131694 -1.062500
v -0.195083 0.220083 -0.812500
v -0.062500 0.087500 -0.812500
v -0.018306 0.131694 -0.812500
v -0.150888 0.264277 -0.812500
vt 0.031250 0.851563
vt 0.054688 0.851563
vt 0.054688 0.859375
vt 0.109375 0.851563
vt 0.109375 0.859375
vt 0.085938 0.859375
vt 0.054688 0.890625
vt 0.031250 0.890625
vt 0.078125 0.859375
vt 0.078125 0.890625
vt 0.031250 0.859375
vt 0.000000 0.859375
vt 0.085938 0.851563
vt 0.000000 0.851563
vn -0.000000 0.000000 -1.000000
vn 0.000000 -0.000000 1.000000
vn 0.707100 0.707100 0.000000
vn -0.707100 -0.707100 -0.000000
vn 0.707100 -0.707100 -0.000000
vn -0.707100 0.707100 0.000000
usemtl Material.001
s off
f 73/127/55 74/128/55 75/129/55
f 78/130/56 79/131/56 80/132/56
f 75/129/57 80/133/57 79/134/57
f 78/129/58 77/135/58 74/136/58
f 73/127/59 76/137/59 79/138/59
f 77/139/60 80/132/60 75/129/60
f 76/137/55 73/127/55 75/129/55
f 77/139/56 78/130/56 80/132/56
f 76/137/57 75/129/57 79/134/57
f 73/133/58 78/129/58 74/136/58
f 78/140/59 73/127/59 79/138/59
f 74/128/60 77/139/60 75/129/60
o f
v 0.125000 0.434384 -0.875000
v -0.125000 0.434384 -0.875000
v -0.125000 0.559384 -0.875000
v 0.125000 0.559384 -0.875000
vt 0.171875 0.984375
vt 0.171875 1.000000
vt 0.140625 1.000000
vt 0.140625 0.984375
vn 0.000000 0.000000 1.000000
usemtl Material.001
s off
f 81/141/61 84/142/61 83/143/61
f 82/144/61 81/141/61 83/143/61
o front_grip_b
v 0.000000 -0.030237 -0.573318
v -0.062500 -0.030237 -0.573318
v -0.062500 0.150000 -0.625000
v 0.000000 0.150000 -0.625000
v -0.062500 0.004218 -0.453160
v 0.000000 0.004218 -0.453160
v 0.000000 0.184455 -0.504842
v -0.062500 0.184455 -0.504842
vt 0.023438 0.906250
vt 0.023438 0.929688
vt 0.015625 0.929688
vt 0.046875 0.906250
vt 0.046875 0.929688
vt 0.039063 0.929688
vt 0.023438 0.945313
vt 0.015625 0.945313
vt 0.031250 0.929688
vt 0.031250 0.945313
vt 0.000000 0.906250
vt 0.015625 0.906250
vt 0.039063 0.906250
vt 0.000000 0.929688
vn 0.000000 -0.275600 -0.961300
vn 0.000000 0.275600 0.961300
vn 0.000000 0.961300 -0.275600
vn 0.000000 -0.961300 0.275600
vn 1.000000 0.000000 0.000000
vn -1.000000 0.000000 0.000000
usemtl Material.001
s off
f 86/145/62 87/146/62 88/147/62
f 90/148/63 91/149/63 92/150/63
f 87/146/64 92/151/64 91/152/64
f 89/153/65 86/154/65 85/151/65
f 90/155/66 85/156/66 88/147/66
f 89/157/67 92/150/67 87/146/67
f 85/156/62 86/145/62 88/147/62
f 89/157/63 90/148/63 92/150/63
f 88/147/64 87/146/64 91/152/64
f 90/146/65 89/153/65 85/151/65
f 91/158/66 90/155/66 88/147/66
f 86/145/67 89/157/67 87/146/67
o p
v -0.018306 0.418306 -1.062500
v -0.150888 0.285723 -1.062500
v -0.195082 0.329917 -1.062500
v -0.062500 0.462500 -1.062500
v -0.150888 0.285723 -0.812500
v -0.018306 0.418306 -0.812500
v -0.062500 0.462500 -0.812500
v -0.195082 0.329917 -0.812500
vt 0.031250 0.851563
vt 0.054688 0.851563
vt 0.054688 0.859375
vt 0.109375 0.851563
vt 0.109375 0.859375
vt 0.085938 0.859375
vt 0.054688 0.890625
vt 0.031250 0.890625
vt 0.078125 0.859375
vt 0.078125 0.890625
vt 0.031250 0.859375
vt 0.000000 0.859375
vt 0.085938 0.851563
vt 0.000000 0.851563
vn 0.000000 0.000000 -1.000000
vn 0.000000 0.000000 1.000000
vn -0.707100 0.707100 0.000000
vn 0.707100 -0.707100 0.000000
vn 0.707100 0.707100 0.000000
vn -0.707100 -0.707100 0.000000
usemtl Material.001
s off
f 93/159/68 94/160/68 95/161/68
f 98/162/69 99/163/69 100/164/69
f 95/161/70 100/165/70 99/166/70
f 97/167/71 94/168/71 93/165/71
f 93/159/72 96/169/72 99/170/72
f 97/171/73 100/164/73 95/161/73
f 96/169/68 93/159/68 95/161/68
f 97/171/69 98/162/69 100/164/69
f 96/169/70 95/161/70 99/166/70
f 98/161/71 97/167/71 93/165/71
f 98/172/72 93/159/72 99/170/72
f 94/160/73 97/171/73 95/161/73
o h
v 0.150888 0.285723 0.687500
v 0.018306 0.418306 0.687500
v 0.062500 0.462500 0.687500
v 0.195083 0.329917 0.687500
v 0.018306 0.418306 1.187500
v 0.150888 0.285723 1.187500
v 0.195083 0.329917 1.187500
v 0.062500 0.462500 1.187500
vt 0.062500 0.515625
vt 0.085938 0.515625
vt 0.085938 0.523438
vt 0.171875 0.515625
vt 0.171875 0.523438
vt 0.148438 0.523438
vt 0.085938 0.585938
vt 0.062500 0.585938
vt 0.109375 0.523438
vt 0.109375 0.585938
vt 0.062500 0.523438
vt 0.000000 0.523438
vt 0.148438 0.515625
vt 0.000000 0.515625
vn 0.000000 0.000000 -1.000000
vn 0.000000 -0.000000 1.000000
vn 0.707100 0.707100 0.000000
vn -0.707100 -0.707100 -0.000000
vn 0.707100 -0.707100 -0.000000
vn -0.707100 0.707100 0.000000
usemtl Material.001
s off
f 101/173/74 102/174/74 103/175/74
f 106/176/75 107/177/75 108/178/75
f 103/175/76 108/179/76 107/180/76
f 106/175/77 105/181/77 102/182/77
f 101/173/78 104/183/78 107/184/78
f 105/185/79 108/178/79 103/175/79
f 104/183/74 101/173/74 103/175/74
f 105/185/75 106/176/75 108/178/75
f 104/183/76 103/175/76 107/180/76
f 101/179/77 106/175/77 102/182/77
f 106/186/78 101/173/78 107/184/78
f 102/174/79 105/185/79 103/175/79
o l
v -0.062500 0.087500 0.562500
v -0.195083 0.220083 0.562500
v -0.150888 0.264277 0.562500
v -0.018306 0.131694 0.562500
v -0.195083 0.220083 1.312500
v -0.062500 0.087500 1.312500
v -0.018306 0.131694 1.312500
v -0.150888 0.264277 1.312500
vt 0.093750 0.585938
vt 0.117188 0.585938
vt 0.117188 0.593750
vt 0.234375 0.585938
vt 0.234375 0.593750
vt 0.210938 0.593750
vt 0.117188 0.687500
vt 0.093750 0.687500
vt 0.140625 0.593750
vt 0.140625 0.687500
vt 0.093750 0.593750
vt 0.000000 0.593750
vt 0.210938 0.585938
vt 0.000000 0.585938
vn -0.000000 0.000000 -1.000000
vn 0.000000 0.000000 1.000000
vn 0.707100 0.707100 0.000000
vn -0.707100 -0.707100 -0.000000
vn 0.707100 -0.707100 -0.000000
vn -0.707100 0.707100 0.000000
usemtl Material.001
s off
f 109/187/80 110/188/80 111/189/80
f 114/190/81 115/191/81 116/192/81
f 111/189/82 116/193/82 115/194/82
f 114/189/83 113/195/83 110/196/83
f 109/187/84 112/197/84 115/198/84
f 110/188/85 113/199/85 116/192/85
f 112/197/80 109/187/80 111/189/80
f 113/199/81 114/190/81 116/192/81
f 112/197/82 111/189/82 115/194/82
f 109/193/83 114/189/83 110/196/83
f 114/200/84 109/187/84 115/198/84
f 111/189/85 110/188/85 116/192/85
o m
v -0.125000 0.400000 -0.625000
v -0.250000 0.400000 -0.625000
v -0.250000 0.525000 -0.625000
v -0.125000 0.525000 -0.625000
v -0.250000 0.400000 -0.250000
v -0.125000 0.400000 -0.250000
v -0.125000 0.525000 -0.250000
v -0.250000 0.525000 -0.250000
vt 0.429688 0.937500
vt 0.429688 0.953125
vt 0.414063 0.953125
vt 0.492188 0.937500
vt 0.492188 0.953125
vt 0.476563 0.953125
vt 0.429688 1.000000
vt 0.414063 1.000000
vt 0.445313 0.953125
vt 0.445313 1.000000
vt 0.414063 0.937500
vt 0.367188 0.953125
vt 0.476563 0.937500
vt 0.367188 0.937500
vn 0.000000 0.000000 -1.000000
vn 0.000000 -0.000000 1.000000
vn 0.000000 1.000000 0.000000
vn 0.000000 -1.000000 -0.000000
vn 1.000000 0.000000 0.000000
vn -1.000000 0.000000 0.000000
usemtl Material.001
s off
f 118/201/86 119/202/86 120/203/86
f 122/204/87 123/205/87 124/206/87
f 119/202/88 124/207/88 123/208/88
f 121/209/89 118/210/89 117/207/89
f 117/211/90 120/203/90 123/212/90
f 121/213/91 124/206/91 119/202/91
f 117/211/86 118/201/86 120/203/86
f 121/213/87 122/204/87 124/206/87
f 120/203/88 119/202/88 123/208/88
f 122/202/89 121/209/89 117/207/89
f 122/214/90 117/211/90 123/212/90
f 118/201/91 121/213/91 119/202/91
o i
v 0.062500 0.087500 0.562500
v -0.062500 0.087500 0.562500
v -0.062500 0.150000 0.562500
v 0.062500 0.150000 0.562500
v -0.062500 0.087500 1.312500
v 0.062500 0.087500 1.312500
v 0.062500 0.150000 1.312500
v -0.062500 0.150000 1.312500
vt 0.351563 0.585938
vt 0.351563 0.593750
vt 0.335938 0.593750
vt 0.460938 0.585938
vt 0.460938 0.593750
vt 0.445313 0.593750
vt 0.351563 0.687500
vt 0.335938 0.687500
vt 0.367188 0.593750
vt 0.367188 0.687500
vt 0.335938 0.585938
vt 0.242188 0.593750
vt 0.445313 0.585938
vt 0.242188 0.585938
vn 0.000000 0.000000 -1.000000
vn 0.000000 0.000000 1.000000
vn 0.000000 1.000000 0.000000
vn 0.000000 -1.000000 -0.000000
vn 1.000000 0.000000 0.000000
vn -1.000000 0.000000 0.000000
usemtl Material.001
s off
f 126/215/92 127/216/92 128/217/92
f 130/218/93 131/219/93 132/220/93
f 127/216/94 132/221/94 131/222/94
f 129/223/95 126/224/95 125/221/95
f 125/225/96 128/217/96 131/226/96
f 129/227/97 132/220/97 127/216/97
f 125/225/92 126/215/92 128/217/92
f 129/227/93 130/218/93 132/220/93
f 128/217/94 127/216/94 131/222/94
f 130/216/95 129/223/95 125/221/95
f 130/228/96 125/225/96 131/226/96
f 126/215/97 129/227/97 127/216/97
o r
v -0.125000 0.212500 -1.062500
v -0.187500 0.212500 -1.062500
v -0.187500 0.337500 -1.062500
v -0.125000 0.337500 -1.062500
v -0.187500 0.212500 -0.812500
v -0.125000 0.212500 -0.812500
v -0.125000 0.337500 -0.812500
v -0.187500 0.337500 -0.812500
vt 0.039063 0.789063
vt 0.039063 0.804688
vt 0.031250 0.804688
vt 0.078125 0.789063
vt 0.078125 0.804688
vt 0.070313 0.804688
vt 0.039063 0.835938
vt 0.031250 0.835938
vt 0.046875 0.804688
vt 0.046875 0.835938
vt 0.031250 0.789063
vt 0.000000 0.804688
vt 0.070313 0.789063
vt 0.000000 0.789063
vn 0.000000 0.000000 -1.000000
vn 0.000000 0.000000 1.000000
vn 0.000000 1.000000 0.000000
vn 0.000000 -1.000000 -0.000000
vn 1.000000 0.000000 0.000000
vn -1.000000 0.000000 0.000000
usemtl Material.001
s off
f 134/229/98 135/230/98 136/231/98
f 138/232/99 139/233/99 140/234/99
f 135/230/100 140/235/100 139/236/100
f 137/237/101 134/238/101 133/235/101
f 133/239/102 136/231/102 139/240/102
f 134/229/103 137/241/103 140/234/103
f 133/239/98 134/229/98 136/231/98
f 137/241/99 138/232/99 140/234/99
f 136/231/100 135/230/100 139/236/100
f 138/230/101 137/237/101 133/235/101
f 138/242/102 133/239/102 139/240/102
f 135/230/103 134/229/103 140/234/103
o sight_d
v 0.062500 0.525000 -0.875000
v -0.062500 0.525000 -0.875000
v -0.062500 0.775000 -0.875000
v 0.062500 0.775000 -0.875000
vt 0.140625 0.945313
vt 0.140625 0.976563
vt 0.125000 0.976563
vt 0.125000 0.945313
vn 0.000000 -0.000000 1.000000
usemtl Material.001
s off
f 141/243/104 144/244/104 143/245/104
f 142/246/104 141/243/104 143/245/104
o t
v 0.187500 0.212500 -1.062500
v 0.125000 0.212500 -1.062500
v 0.125000 0.337500 -1.062500
v 0.187500 0.337500 -1.062500
v 0.125000 0.212500 -0.812500
v 0.187500 0.212500 -0.812500
v 0.187500 0.337500 -0.812500
v 0.125000 0.337500 -0.812500
vt 0.039063 0.789063
vt 0.039063 0.804688
vt 0.031250 0.804688
vt 0.078125 0.789063
vt 0.078125 0.804688
vt 0.070313 0.804688
vt 0.039063 0.835938
vt 0.031250 0.835938
vt 0.046875 0.804688
vt 0.046875 0.835938
vt 0.031250 0.789063
vt 0.000000 0.804688
vt 0.070313 0.789063
vt 0.000000 0.789063
vn 0.000000 0.000000 -1.000000
vn 0.000000 0.000000 1.000000
vn 0.000000 1.000000 0.000000
vn 0.000000 -1.000000 -0.000000
vn 1.000000 0.000000 0.000000
vn -1.000000 0.000000 0.000000
usemtl Material.001
s off
f 146/247/105 147/248/105 148/249/105
f 150/250/106 151/251/106 152/252/106
f 147/248/107 152/253/107 151/254/107
f 149/255/108 146/256/108 145/253/108
f 145/257/109 148/249/109 151/258/109
f 146/247/110 149/259/110 152/252/110
f 145/257/105 146/247/105 148/249/105
f 149/259/106 150/250/106 152/252/106
f 148/249/107 147/248/107 151/254/107
f 150/248/108 149/255/108 145/253/108
f 150/260/109 145/257/109 151/258/109
f 147/248/110 146/247/110 152/252/110
o g
v 0.187500 0.212500 0.562500
v 0.054917 0.079917 0.562500
v 0.010723 0.124112 0.562500
v 0.143306 0.256694 0.562500
v 0.054917 0.079917 1.312500
v 0.187500 0.212500 1.312500
v 0.143306 0.256694 1.312500
v 0.010723 0.124112 1.312500
vt 0.093750 0.585938
vt 0.117188 0.585938
vt 0.117188 0.593750
vt 0.234375 0.585938
vt 0.234375 0.593750
vt 0.210938 0.593750
vt 0.093750 0.593750
vt 0.117188 0.687500
vt 0.140625 0.593750
vt 0.140625 0.687500
vt 0.000000 0.593750
vt 0.210938 0.585938
vt 0.093750 0.687500
vt 0.000000 0.585938
vn 0.000000 0.000000 -1.000000
vn 0.000000 0.000000 1.000000
vn -0.707100 0.707100 0.000000
vn 0.707100 -0.707100 -0.000000
vn 0.707100 0.707100 0.000000
vn -0.707100 -0.707100 -0.000000
usemtl Material.001
s off
f 153/261/111 154/262/111 155/263/111
f 158/264/112 159/265/112 160/266/112
f 156/267/113 155/263/113 160/268/113
f 157/269/114 154/270/114 153/268/114
f 153/261/115 156/267/115 159/271/115
f 157/272/116 160/266/116 155/263/116
f 156/267/111 153/261/111 155/263/111
f 157/272/112 158/264/112 160/266/112
f 159/273/113 156/267/113 160/268/113
f 158/263/114 157/269/114 153/268/114
f 158/274/115 153/261/115 159/271/115
f 154/262/116 157/272/116 155/263/116
